%TF.GenerationSoftware,KiCad,Pcbnew,7.0.7*%
%TF.CreationDate,2023-09-17T10:26:07+01:00*%
%TF.ProjectId,TRSG3JPMod,54525347-334a-4504-9d6f-642e6b696361,rev?*%
%TF.SameCoordinates,Original*%
%TF.FileFunction,Copper,L2,Bot*%
%TF.FilePolarity,Positive*%
%FSLAX46Y46*%
G04 Gerber Fmt 4.6, Leading zero omitted, Abs format (unit mm)*
G04 Created by KiCad (PCBNEW 7.0.7) date 2023-09-17 10:26:07*
%MOMM*%
%LPD*%
G01*
G04 APERTURE LIST*
%TA.AperFunction,ComponentPad*%
%ADD10R,1.600000X1.600000*%
%TD*%
%TA.AperFunction,ComponentPad*%
%ADD11O,1.600000X1.600000*%
%TD*%
%TA.AperFunction,ComponentPad*%
%ADD12R,1.700000X1.700000*%
%TD*%
%TA.AperFunction,ComponentPad*%
%ADD13O,1.700000X1.700000*%
%TD*%
%TA.AperFunction,ViaPad*%
%ADD14C,0.800000*%
%TD*%
%TA.AperFunction,Conductor*%
%ADD15C,0.250000*%
%TD*%
%TA.AperFunction,Conductor*%
%ADD16C,0.381000*%
%TD*%
G04 APERTURE END LIST*
D10*
%TO.P,J1,1,Pin_1*%
%TO.N,/I6*%
X111800000Y-58485000D03*
D11*
%TO.P,J1,2,Pin_2*%
%TO.N,/I5*%
X111800000Y-61025000D03*
%TO.P,J1,3,Pin_3*%
%TO.N,/I4*%
X111800000Y-63565000D03*
%TO.P,J1,4,Pin_4*%
%TO.N,/I3*%
X111800000Y-66105000D03*
%TO.P,J1,5,Pin_5*%
%TO.N,/I2*%
X111800000Y-68645000D03*
%TO.P,J1,6,Pin_6*%
%TO.N,/I1*%
X111800000Y-71185000D03*
%TO.P,J1,7,Pin_7*%
%TO.N,/I0*%
X111800000Y-73725000D03*
%TO.P,J1,8,Pin_8*%
%TO.N,RS3*%
X111800000Y-76265000D03*
%TO.P,J1,9,Pin_9*%
%TO.N,GND*%
X111800000Y-78805000D03*
%TO.P,J1,10,Pin_10*%
%TO.N,RS2*%
X119420000Y-78805000D03*
%TO.P,J1,11,Pin_11*%
%TO.N,RS1*%
X119420000Y-76265000D03*
%TO.P,J1,12,Pin_12*%
%TO.N,/O0*%
X119420000Y-73725000D03*
%TO.P,J1,13,Pin_13*%
%TO.N,/O1*%
X119420000Y-71185000D03*
%TO.P,J1,14,Pin_14*%
%TO.N,/O2*%
X119420000Y-68645000D03*
%TO.P,J1,15,Pin_15*%
%TO.N,/O3*%
X119420000Y-66105000D03*
%TO.P,J1,16,Pin_16*%
%TO.N,/O4*%
X119420000Y-63565000D03*
%TO.P,J1,17,Pin_17*%
%TO.N,CSA*%
X119420000Y-61025000D03*
%TO.P,J1,18,Pin_18*%
%TO.N,+5V*%
X119420000Y-58485000D03*
%TD*%
D12*
%TO.P,J2,1,Pin_1*%
%TO.N,Z12p11*%
X114325000Y-84625000D03*
D13*
%TO.P,J2,2,Pin_2*%
%TO.N,Z10p14*%
X116865000Y-84625000D03*
%TD*%
D10*
%TO.P,U1,1,A7*%
%TO.N,/I3*%
X107975000Y-56725000D03*
D11*
%TO.P,U1,2,A6*%
%TO.N,/I2*%
X107975000Y-59265000D03*
%TO.P,U1,3,A5*%
%TO.N,/I1*%
X107975000Y-61805000D03*
%TO.P,U1,4,A4*%
%TO.N,/I0*%
X107975000Y-64345000D03*
%TO.P,U1,5,A3*%
%TO.N,Z12p11*%
X107975000Y-66885000D03*
%TO.P,U1,6,A2*%
%TO.N,RS3*%
X107975000Y-69425000D03*
%TO.P,U1,7,A1*%
%TO.N,RS2*%
X107975000Y-71965000D03*
%TO.P,U1,8,A0*%
%TO.N,RS1*%
X107975000Y-74505000D03*
%TO.P,U1,9,D0*%
%TO.N,/O0*%
X107975000Y-77045000D03*
%TO.P,U1,10,D1*%
%TO.N,/O1*%
X107975000Y-79585000D03*
%TO.P,U1,11,D2*%
%TO.N,/O2*%
X107975000Y-82125000D03*
%TO.P,U1,12,GND*%
%TO.N,GND*%
X107975000Y-84665000D03*
%TO.P,U1,13,D3*%
%TO.N,/O3*%
X123215000Y-84665000D03*
%TO.P,U1,14,D4*%
%TO.N,/O4*%
X123215000Y-82125000D03*
%TO.P,U1,15,D5*%
%TO.N,Z10p14*%
X123215000Y-79585000D03*
%TO.P,U1,16,D6*%
%TO.N,unconnected-(U1-D6-Pad16)*%
X123215000Y-77045000D03*
%TO.P,U1,17,D7*%
%TO.N,unconnected-(U1-D7-Pad17)*%
X123215000Y-74505000D03*
%TO.P,U1,18,A11*%
%TO.N,CSA*%
X123215000Y-71965000D03*
%TO.P,U1,19,A10*%
%TO.N,/I6*%
X123215000Y-69425000D03*
%TO.P,U1,20,~{OE}*%
%TO.N,GND*%
X123215000Y-66885000D03*
%TO.P,U1,21,VPP*%
%TO.N,+5V*%
X123215000Y-64345000D03*
%TO.P,U1,22,A9*%
%TO.N,/I5*%
X123215000Y-61805000D03*
%TO.P,U1,23,A8*%
%TO.N,/I4*%
X123215000Y-59265000D03*
%TO.P,U1,24,VCC*%
%TO.N,+5V*%
X123215000Y-56725000D03*
%TD*%
D14*
%TO.N,/I6*%
X122169500Y-65550000D03*
%TO.N,RS2*%
X115850000Y-78800000D03*
%TO.N,/I5*%
X113125000Y-57150000D03*
%TO.N,RS1*%
X115150000Y-76250000D03*
%TO.N,/I4*%
X118450000Y-59750000D03*
%TO.N,/O0*%
X114374000Y-74975000D03*
%TO.N,/O1*%
X114525000Y-77550000D03*
%TO.N,/O2*%
X112925000Y-79775000D03*
%TD*%
D15*
%TO.N,/I6*%
X121599500Y-64980000D02*
X113530000Y-64980000D01*
X122169500Y-65550000D02*
X121599500Y-64980000D01*
X112760000Y-58485000D02*
X111800000Y-58485000D01*
X113050000Y-64500000D02*
X113050000Y-58775000D01*
X113530000Y-64980000D02*
X113050000Y-64500000D01*
X113050000Y-58775000D02*
X112760000Y-58485000D01*
%TO.N,RS2*%
X115850000Y-78800000D02*
X115855000Y-78805000D01*
X115855000Y-78805000D02*
X119420000Y-78805000D01*
%TO.N,/I5*%
X113500000Y-57525000D02*
X113500000Y-62025000D01*
X113800000Y-62325000D02*
X122695000Y-62325000D01*
X113125000Y-57150000D02*
X113500000Y-57525000D01*
X113500000Y-62025000D02*
X113800000Y-62325000D01*
X122695000Y-62325000D02*
X123215000Y-61805000D01*
%TO.N,RS1*%
X115165000Y-76265000D02*
X119420000Y-76265000D01*
X115150000Y-76250000D02*
X115165000Y-76265000D01*
%TO.N,/I4*%
X123215000Y-59265000D02*
X123085000Y-59265000D01*
X123085000Y-59265000D02*
X122600000Y-59750000D01*
X122600000Y-59750000D02*
X118450000Y-59750000D01*
%TO.N,/O0*%
X114600000Y-73725000D02*
X119420000Y-73725000D01*
X114374000Y-73951000D02*
X114600000Y-73725000D01*
X114374000Y-74975000D02*
X114374000Y-73951000D01*
%TO.N,/O1*%
X113649500Y-76674500D02*
X113649500Y-71900500D01*
X114525000Y-77550000D02*
X113649500Y-76674500D01*
X114365000Y-71185000D02*
X119420000Y-71185000D01*
X113649500Y-71900500D02*
X114365000Y-71185000D01*
%TO.N,/I2*%
X110450000Y-68275000D02*
X110820000Y-68645000D01*
X110820000Y-68645000D02*
X111800000Y-68645000D01*
X109640000Y-59265000D02*
X110450000Y-60075000D01*
X110450000Y-60075000D02*
X110450000Y-68275000D01*
X107975000Y-59265000D02*
X109640000Y-59265000D01*
%TO.N,/O2*%
X112925000Y-69600000D02*
X113880000Y-68645000D01*
X112925000Y-79775000D02*
X112925000Y-69600000D01*
X113880000Y-68645000D02*
X119420000Y-68645000D01*
%TO.N,/I1*%
X109455000Y-61805000D02*
X110000000Y-62350000D01*
X110000000Y-62350000D02*
X110000000Y-71100000D01*
X110000000Y-71100000D02*
X110085000Y-71185000D01*
X110085000Y-71185000D02*
X111800000Y-71185000D01*
X107975000Y-61805000D02*
X109455000Y-61805000D01*
%TO.N,/I0*%
X109070000Y-64345000D02*
X107975000Y-64345000D01*
X109875000Y-73725000D02*
X109550000Y-73400000D01*
X109550000Y-64825000D02*
X109070000Y-64345000D01*
X111800000Y-73725000D02*
X109875000Y-73725000D01*
X109550000Y-73400000D02*
X109550000Y-64825000D01*
%TO.N,RS3*%
X108750000Y-69425000D02*
X109100000Y-69775000D01*
X109365000Y-76265000D02*
X111800000Y-76265000D01*
X109100000Y-76000000D02*
X109365000Y-76265000D01*
X107975000Y-69425000D02*
X108750000Y-69425000D01*
X109100000Y-69775000D02*
X109100000Y-76000000D01*
%TO.N,GND*%
X121840000Y-66885000D02*
X121490000Y-67235000D01*
D16*
X111800000Y-82300000D02*
X111800000Y-78805000D01*
D15*
X123215000Y-66885000D02*
X121840000Y-66885000D01*
D16*
X107975000Y-84665000D02*
X111560000Y-84665000D01*
X111560000Y-84665000D02*
X111800000Y-84425000D01*
D15*
X120725000Y-82300000D02*
X111800000Y-82300000D01*
X121490000Y-67235000D02*
X121490000Y-81535000D01*
X121490000Y-81535000D02*
X120725000Y-82300000D01*
D16*
X111800000Y-84425000D02*
X111800000Y-82300000D01*
D15*
%TO.N,Z10p14*%
X121650000Y-84625000D02*
X116865000Y-84625000D01*
X123215000Y-79585000D02*
X122365000Y-79585000D01*
X122000000Y-84275000D02*
X121650000Y-84625000D01*
X122365000Y-79585000D02*
X122000000Y-79950000D01*
X122000000Y-79950000D02*
X122000000Y-84275000D01*
%TD*%
%TA.AperFunction,Conductor*%
%TO.N,GND*%
G36*
X121218059Y-65633185D02*
G01*
X121263814Y-65685989D01*
X121274339Y-65724533D01*
X121275958Y-65739928D01*
X121275959Y-65739931D01*
X121334970Y-65921549D01*
X121334973Y-65921556D01*
X121430460Y-66086944D01*
X121558247Y-66228866D01*
X121712748Y-66341118D01*
X121885921Y-66418219D01*
X121939159Y-66463470D01*
X121959480Y-66530319D01*
X121955261Y-66563591D01*
X121936127Y-66634999D01*
X121936128Y-66635000D01*
X122704424Y-66635000D01*
X122771463Y-66654685D01*
X122817218Y-66707489D01*
X122827162Y-66776647D01*
X122826897Y-66778397D01*
X122810014Y-66884996D01*
X122810014Y-66885003D01*
X122826897Y-66991603D01*
X122817942Y-67060896D01*
X122772946Y-67114348D01*
X122706194Y-67134987D01*
X122704424Y-67135000D01*
X121936128Y-67135000D01*
X121988730Y-67331317D01*
X121988734Y-67331326D01*
X122084865Y-67537482D01*
X122215342Y-67723820D01*
X122376179Y-67884657D01*
X122562517Y-68015133D01*
X122611399Y-68037927D01*
X122663839Y-68084099D01*
X122682992Y-68151292D01*
X122662777Y-68218174D01*
X122611402Y-68262691D01*
X122558256Y-68287474D01*
X122558252Y-68287476D01*
X122517946Y-68315699D01*
X122370700Y-68418802D01*
X122370698Y-68418803D01*
X122370695Y-68418806D01*
X122208806Y-68580695D01*
X122077476Y-68768252D01*
X122077475Y-68768254D01*
X121980718Y-68975750D01*
X121980714Y-68975761D01*
X121921457Y-69196910D01*
X121921456Y-69196918D01*
X121901502Y-69424998D01*
X121901502Y-69425001D01*
X121921456Y-69653081D01*
X121921457Y-69653089D01*
X121980714Y-69874238D01*
X121980718Y-69874249D01*
X122052125Y-70027382D01*
X122077477Y-70081749D01*
X122208802Y-70269300D01*
X122370700Y-70431198D01*
X122509310Y-70528254D01*
X122558251Y-70562523D01*
X122601345Y-70582618D01*
X122653784Y-70628791D01*
X122672936Y-70695984D01*
X122652720Y-70762865D01*
X122601345Y-70807382D01*
X122558251Y-70827476D01*
X122436949Y-70912414D01*
X122370700Y-70958802D01*
X122370698Y-70958803D01*
X122370695Y-70958806D01*
X122208806Y-71120695D01*
X122077476Y-71308252D01*
X122077475Y-71308254D01*
X121980718Y-71515750D01*
X121980714Y-71515761D01*
X121921457Y-71736910D01*
X121921456Y-71736918D01*
X121901502Y-71964998D01*
X121901502Y-71965001D01*
X121921456Y-72193081D01*
X121921457Y-72193089D01*
X121980714Y-72414238D01*
X121980718Y-72414249D01*
X122052125Y-72567382D01*
X122077477Y-72621749D01*
X122208802Y-72809300D01*
X122370700Y-72971198D01*
X122509310Y-73068254D01*
X122558251Y-73102523D01*
X122601345Y-73122618D01*
X122653784Y-73168791D01*
X122672936Y-73235984D01*
X122652720Y-73302865D01*
X122601345Y-73347382D01*
X122558251Y-73367476D01*
X122433126Y-73455090D01*
X122370700Y-73498802D01*
X122370698Y-73498803D01*
X122370695Y-73498806D01*
X122208806Y-73660695D01*
X122077476Y-73848252D01*
X122077475Y-73848254D01*
X121980718Y-74055750D01*
X121980714Y-74055761D01*
X121921457Y-74276910D01*
X121921456Y-74276918D01*
X121901502Y-74504998D01*
X121901502Y-74505001D01*
X121921456Y-74733081D01*
X121921457Y-74733089D01*
X121980714Y-74954238D01*
X121980718Y-74954249D01*
X122052125Y-75107382D01*
X122077477Y-75161749D01*
X122208802Y-75349300D01*
X122370700Y-75511198D01*
X122509310Y-75608254D01*
X122558251Y-75642523D01*
X122601345Y-75662618D01*
X122653784Y-75708791D01*
X122672936Y-75775984D01*
X122652720Y-75842865D01*
X122601345Y-75887382D01*
X122558251Y-75907476D01*
X122433126Y-75995090D01*
X122370700Y-76038802D01*
X122370698Y-76038803D01*
X122370695Y-76038806D01*
X122208806Y-76200695D01*
X122077476Y-76388252D01*
X122077475Y-76388254D01*
X121980718Y-76595750D01*
X121980714Y-76595761D01*
X121921457Y-76816910D01*
X121921456Y-76816918D01*
X121901502Y-77044998D01*
X121901502Y-77045001D01*
X121921456Y-77273081D01*
X121921457Y-77273089D01*
X121980714Y-77494238D01*
X121980718Y-77494249D01*
X122033553Y-77607554D01*
X122077477Y-77701749D01*
X122208802Y-77889300D01*
X122370700Y-78051198D01*
X122519664Y-78155504D01*
X122558251Y-78182523D01*
X122601345Y-78202618D01*
X122653784Y-78248791D01*
X122672936Y-78315984D01*
X122652720Y-78382865D01*
X122601345Y-78427382D01*
X122558251Y-78447476D01*
X122463239Y-78514005D01*
X122370700Y-78578802D01*
X122370698Y-78578803D01*
X122370695Y-78578806D01*
X122208806Y-78740695D01*
X122208803Y-78740698D01*
X122208802Y-78740700D01*
X122155501Y-78816822D01*
X122077475Y-78928253D01*
X122035237Y-79018833D01*
X121989064Y-79071272D01*
X121985981Y-79073157D01*
X121973638Y-79080456D01*
X121959202Y-79094893D01*
X121944410Y-79107527D01*
X121927892Y-79119527D01*
X121897782Y-79155923D01*
X121893850Y-79160244D01*
X121611180Y-79442913D01*
X121598821Y-79452816D01*
X121598994Y-79453025D01*
X121592985Y-79457996D01*
X121545015Y-79509079D01*
X121523872Y-79530222D01*
X121523857Y-79530239D01*
X121519531Y-79535814D01*
X121515747Y-79540244D01*
X121483419Y-79574671D01*
X121483412Y-79574681D01*
X121473579Y-79592567D01*
X121462903Y-79608820D01*
X121450386Y-79624957D01*
X121450385Y-79624959D01*
X121431625Y-79668310D01*
X121429055Y-79673556D01*
X121406303Y-79714941D01*
X121406303Y-79714942D01*
X121401225Y-79734720D01*
X121394925Y-79753122D01*
X121386818Y-79771857D01*
X121379431Y-79818495D01*
X121378246Y-79824216D01*
X121366500Y-79869965D01*
X121366500Y-79890384D01*
X121364973Y-79909783D01*
X121361780Y-79929941D01*
X121361779Y-79929944D01*
X121366224Y-79976968D01*
X121366499Y-79982804D01*
X121366500Y-83867500D01*
X121346815Y-83934539D01*
X121294011Y-83980294D01*
X121242500Y-83991500D01*
X118140956Y-83991500D01*
X118073917Y-83971815D01*
X118037148Y-83935322D01*
X117940723Y-83787734D01*
X117940715Y-83787723D01*
X117788243Y-83622097D01*
X117788238Y-83622092D01*
X117640860Y-83507382D01*
X117610576Y-83483811D01*
X117610575Y-83483810D01*
X117610572Y-83483808D01*
X117412580Y-83376661D01*
X117412577Y-83376659D01*
X117412574Y-83376658D01*
X117412571Y-83376657D01*
X117412569Y-83376656D01*
X117199637Y-83303556D01*
X116977569Y-83266500D01*
X116752431Y-83266500D01*
X116530362Y-83303556D01*
X116317430Y-83376656D01*
X116317419Y-83376661D01*
X116119427Y-83483808D01*
X116119422Y-83483812D01*
X115941761Y-83622092D01*
X115878548Y-83690760D01*
X115818661Y-83726750D01*
X115748823Y-83724649D01*
X115691207Y-83685124D01*
X115671138Y-83650110D01*
X115625889Y-83528796D01*
X115613369Y-83512071D01*
X115538261Y-83411739D01*
X115421204Y-83324111D01*
X115421204Y-83324110D01*
X115284203Y-83273011D01*
X115223654Y-83266500D01*
X115223638Y-83266500D01*
X113426362Y-83266500D01*
X113426345Y-83266500D01*
X113365797Y-83273011D01*
X113365795Y-83273011D01*
X113228795Y-83324111D01*
X113111739Y-83411739D01*
X113024111Y-83528795D01*
X112973011Y-83665795D01*
X112973011Y-83665797D01*
X112966500Y-83726345D01*
X112966499Y-83726362D01*
X112966499Y-85523637D01*
X112966500Y-85523654D01*
X112973011Y-85584202D01*
X112973011Y-85584204D01*
X113006430Y-85673801D01*
X113024111Y-85721204D01*
X113102704Y-85826191D01*
X113127120Y-85891653D01*
X113112269Y-85959926D01*
X113062864Y-86009332D01*
X113003436Y-86024500D01*
X108692984Y-86024500D01*
X108625945Y-86004815D01*
X108580190Y-85952011D01*
X108570246Y-85882853D01*
X108599271Y-85819297D01*
X108623680Y-85799141D01*
X108623048Y-85798239D01*
X108813820Y-85664657D01*
X108974657Y-85503820D01*
X109105134Y-85317482D01*
X109201265Y-85111326D01*
X109201269Y-85111317D01*
X109253872Y-84915000D01*
X108485576Y-84915000D01*
X108418537Y-84895315D01*
X108372782Y-84842511D01*
X108362838Y-84773353D01*
X108363103Y-84771603D01*
X108379986Y-84665003D01*
X108379986Y-84664996D01*
X108363103Y-84558397D01*
X108372058Y-84489104D01*
X108417054Y-84435652D01*
X108483806Y-84415013D01*
X108485576Y-84415000D01*
X109253872Y-84415000D01*
X109253872Y-84414999D01*
X109201269Y-84218682D01*
X109201265Y-84218673D01*
X109105134Y-84012517D01*
X108974657Y-83826179D01*
X108813820Y-83665342D01*
X108627481Y-83534865D01*
X108627479Y-83534864D01*
X108578599Y-83512071D01*
X108526159Y-83465899D01*
X108507007Y-83398706D01*
X108527223Y-83331824D01*
X108578599Y-83287307D01*
X108631749Y-83262523D01*
X108819300Y-83131198D01*
X108981198Y-82969300D01*
X109112523Y-82781749D01*
X109209284Y-82574243D01*
X109268543Y-82353087D01*
X109288498Y-82125000D01*
X109268543Y-81896913D01*
X109209284Y-81675757D01*
X109112523Y-81468251D01*
X108981198Y-81280700D01*
X108819300Y-81118802D01*
X108631749Y-80987477D01*
X108588655Y-80967382D01*
X108536215Y-80921210D01*
X108517063Y-80854017D01*
X108537278Y-80787136D01*
X108588655Y-80742618D01*
X108591882Y-80741112D01*
X108631749Y-80722523D01*
X108819300Y-80591198D01*
X108981198Y-80429300D01*
X109112523Y-80241749D01*
X109209284Y-80034243D01*
X109268543Y-79813087D01*
X109288498Y-79585000D01*
X109268543Y-79356913D01*
X109209284Y-79135757D01*
X109201716Y-79119528D01*
X109166052Y-79043045D01*
X109112523Y-78928251D01*
X108981198Y-78740700D01*
X108819300Y-78578802D01*
X108631749Y-78447477D01*
X108588655Y-78427382D01*
X108536215Y-78381210D01*
X108517063Y-78314017D01*
X108537278Y-78247136D01*
X108588655Y-78202618D01*
X108591882Y-78201112D01*
X108631749Y-78182523D01*
X108819300Y-78051198D01*
X108981198Y-77889300D01*
X109112523Y-77701749D01*
X109209284Y-77494243D01*
X109268543Y-77273087D01*
X109288498Y-77045000D01*
X109287475Y-77033308D01*
X109301241Y-76964808D01*
X109349856Y-76914625D01*
X109411003Y-76898500D01*
X110581648Y-76898500D01*
X110648687Y-76918185D01*
X110683220Y-76951373D01*
X110793802Y-77109300D01*
X110955700Y-77271198D01*
X111143251Y-77402523D01*
X111196401Y-77427307D01*
X111248840Y-77473479D01*
X111267992Y-77540673D01*
X111247776Y-77607554D01*
X111196401Y-77652071D01*
X111147517Y-77674865D01*
X110961179Y-77805342D01*
X110800342Y-77966179D01*
X110669865Y-78152517D01*
X110573734Y-78358673D01*
X110573730Y-78358682D01*
X110521127Y-78554999D01*
X110521128Y-78555000D01*
X111289424Y-78555000D01*
X111356463Y-78574685D01*
X111402218Y-78627489D01*
X111412162Y-78696647D01*
X111411897Y-78698397D01*
X111395014Y-78804996D01*
X111395014Y-78805003D01*
X111411897Y-78911603D01*
X111402942Y-78980896D01*
X111357946Y-79034348D01*
X111291194Y-79054987D01*
X111289424Y-79055000D01*
X110521128Y-79055000D01*
X110573730Y-79251317D01*
X110573734Y-79251326D01*
X110669865Y-79457482D01*
X110800342Y-79643820D01*
X110961179Y-79804657D01*
X111147517Y-79935134D01*
X111353673Y-80031265D01*
X111353682Y-80031269D01*
X111549999Y-80083872D01*
X111550000Y-80083871D01*
X111550000Y-79315575D01*
X111569685Y-79248536D01*
X111622489Y-79202781D01*
X111691647Y-79192837D01*
X111693331Y-79193091D01*
X111725699Y-79198218D01*
X111768515Y-79205000D01*
X111768519Y-79205000D01*
X111831485Y-79205000D01*
X111874300Y-79198218D01*
X111906602Y-79193102D01*
X111975894Y-79202056D01*
X112029347Y-79247052D01*
X112049987Y-79313803D01*
X112050000Y-79315575D01*
X112050000Y-79508366D01*
X112043931Y-79546684D01*
X112034838Y-79574671D01*
X112031458Y-79585072D01*
X112011827Y-79771855D01*
X112011496Y-79775000D01*
X112028326Y-79935134D01*
X112031458Y-79964928D01*
X112043931Y-80003317D01*
X112050000Y-80041633D01*
X112050000Y-80086139D01*
X112087438Y-80137409D01*
X112088678Y-80141034D01*
X112090470Y-80146549D01*
X112090473Y-80146556D01*
X112185960Y-80311944D01*
X112313747Y-80453866D01*
X112468248Y-80566118D01*
X112642712Y-80643794D01*
X112829513Y-80683500D01*
X113020487Y-80683500D01*
X113207288Y-80643794D01*
X113381752Y-80566118D01*
X113536253Y-80453866D01*
X113664040Y-80311944D01*
X113759527Y-80146556D01*
X113818542Y-79964928D01*
X113838504Y-79775000D01*
X113818542Y-79585072D01*
X113759527Y-79403444D01*
X113664040Y-79238056D01*
X113590348Y-79156213D01*
X113560119Y-79093223D01*
X113558499Y-79073242D01*
X113558499Y-78314017D01*
X113558499Y-78155501D01*
X113578184Y-78088465D01*
X113630988Y-78042710D01*
X113700146Y-78032766D01*
X113763702Y-78061791D01*
X113782814Y-78082615D01*
X113785956Y-78086940D01*
X113890113Y-78202618D01*
X113913747Y-78228866D01*
X114068248Y-78341118D01*
X114242712Y-78418794D01*
X114429513Y-78458500D01*
X114620487Y-78458500D01*
X114807284Y-78418795D01*
X114807285Y-78418794D01*
X114807288Y-78418794D01*
X114807290Y-78418792D01*
X114812087Y-78417234D01*
X114881928Y-78415232D01*
X114941764Y-78451307D01*
X114972598Y-78514005D01*
X114968348Y-78573477D01*
X114963515Y-78588353D01*
X114956458Y-78610072D01*
X114936496Y-78800000D01*
X114956458Y-78989928D01*
X114956459Y-78989931D01*
X115015470Y-79171549D01*
X115015473Y-79171556D01*
X115110960Y-79336944D01*
X115202401Y-79438500D01*
X115215291Y-79452816D01*
X115238747Y-79478866D01*
X115393248Y-79591118D01*
X115567712Y-79668794D01*
X115754513Y-79708500D01*
X115945487Y-79708500D01*
X116132288Y-79668794D01*
X116306752Y-79591118D01*
X116461253Y-79478866D01*
X116461256Y-79478863D01*
X116466082Y-79474518D01*
X116467047Y-79475589D01*
X116520146Y-79442879D01*
X116552807Y-79438500D01*
X118201648Y-79438500D01*
X118268687Y-79458185D01*
X118303220Y-79491373D01*
X118413802Y-79649300D01*
X118575700Y-79811198D01*
X118763251Y-79942523D01*
X118888091Y-80000736D01*
X118970750Y-80039281D01*
X118970752Y-80039281D01*
X118970757Y-80039284D01*
X119191913Y-80098543D01*
X119354832Y-80112796D01*
X119419998Y-80118498D01*
X119420000Y-80118498D01*
X119420002Y-80118498D01*
X119477021Y-80113509D01*
X119648087Y-80098543D01*
X119869243Y-80039284D01*
X120076749Y-79942523D01*
X120264300Y-79811198D01*
X120426198Y-79649300D01*
X120557523Y-79461749D01*
X120654284Y-79254243D01*
X120713543Y-79033087D01*
X120733498Y-78805000D01*
X120713543Y-78576913D01*
X120654284Y-78355757D01*
X120651933Y-78350716D01*
X120604405Y-78248791D01*
X120557523Y-78148251D01*
X120426198Y-77960700D01*
X120264300Y-77798802D01*
X120076749Y-77667477D01*
X120033655Y-77647382D01*
X119981215Y-77601210D01*
X119962063Y-77534017D01*
X119982278Y-77467136D01*
X120033655Y-77422618D01*
X120036882Y-77421112D01*
X120076749Y-77402523D01*
X120264300Y-77271198D01*
X120426198Y-77109300D01*
X120557523Y-76921749D01*
X120654284Y-76714243D01*
X120713543Y-76493087D01*
X120733498Y-76265000D01*
X120713543Y-76036913D01*
X120654284Y-75815757D01*
X120651933Y-75810716D01*
X120604405Y-75708791D01*
X120557523Y-75608251D01*
X120426198Y-75420700D01*
X120264300Y-75258802D01*
X120076749Y-75127477D01*
X120033655Y-75107382D01*
X119981215Y-75061210D01*
X119962063Y-74994017D01*
X119982278Y-74927136D01*
X120033655Y-74882618D01*
X120036882Y-74881112D01*
X120076749Y-74862523D01*
X120264300Y-74731198D01*
X120426198Y-74569300D01*
X120557523Y-74381749D01*
X120654284Y-74174243D01*
X120713543Y-73953087D01*
X120733498Y-73725000D01*
X120713543Y-73496913D01*
X120654284Y-73275757D01*
X120651933Y-73270716D01*
X120604405Y-73168791D01*
X120557523Y-73068251D01*
X120426198Y-72880700D01*
X120264300Y-72718802D01*
X120076749Y-72587477D01*
X120033655Y-72567382D01*
X119981215Y-72521210D01*
X119962063Y-72454017D01*
X119982278Y-72387136D01*
X120033655Y-72342618D01*
X120036882Y-72341112D01*
X120076749Y-72322523D01*
X120264300Y-72191198D01*
X120426198Y-72029300D01*
X120557523Y-71841749D01*
X120654284Y-71634243D01*
X120713543Y-71413087D01*
X120733498Y-71185000D01*
X120713543Y-70956913D01*
X120654284Y-70735757D01*
X120651933Y-70730716D01*
X120604405Y-70628791D01*
X120557523Y-70528251D01*
X120426198Y-70340700D01*
X120264300Y-70178802D01*
X120076749Y-70047477D01*
X120033655Y-70027382D01*
X119981215Y-69981210D01*
X119962063Y-69914017D01*
X119982278Y-69847136D01*
X120033655Y-69802618D01*
X120036882Y-69801112D01*
X120076749Y-69782523D01*
X120264300Y-69651198D01*
X120426198Y-69489300D01*
X120557523Y-69301749D01*
X120654284Y-69094243D01*
X120713543Y-68873087D01*
X120733498Y-68645000D01*
X120713543Y-68416913D01*
X120654284Y-68195757D01*
X120651933Y-68190716D01*
X120604405Y-68088791D01*
X120557523Y-67988251D01*
X120426198Y-67800700D01*
X120264300Y-67638802D01*
X120076749Y-67507477D01*
X120033655Y-67487382D01*
X119981215Y-67441210D01*
X119962063Y-67374017D01*
X119982278Y-67307136D01*
X120033655Y-67262618D01*
X120036882Y-67261112D01*
X120076749Y-67242523D01*
X120264300Y-67111198D01*
X120426198Y-66949300D01*
X120557523Y-66761749D01*
X120654284Y-66554243D01*
X120713543Y-66333087D01*
X120733498Y-66105000D01*
X120713543Y-65876913D01*
X120684786Y-65769591D01*
X120686449Y-65699744D01*
X120725611Y-65641882D01*
X120789839Y-65614377D01*
X120804561Y-65613500D01*
X121151020Y-65613500D01*
X121218059Y-65633185D01*
G37*
%TD.AperFunction*%
%TD*%
M02*
