%TF.GenerationSoftware,KiCad,Pcbnew,7.0.7*%
%TF.CreationDate,2023-09-17T10:26:07+01:00*%
%TF.ProjectId,TRSG3JPMod,54525347-334a-4504-9d6f-642e6b696361,rev?*%
%TF.SameCoordinates,Original*%
%TF.FileFunction,Legend,Bot*%
%TF.FilePolarity,Positive*%
%FSLAX46Y46*%
G04 Gerber Fmt 4.6, Leading zero omitted, Abs format (unit mm)*
G04 Created by KiCad (PCBNEW 7.0.7) date 2023-09-17 10:26:07*
%MOMM*%
%LPD*%
G01*
G04 APERTURE LIST*
%ADD10C,0.100000*%
G04 APERTURE END LIST*
D10*
X119278570Y-80525085D02*
X119192856Y-80553657D01*
X119192856Y-80553657D02*
X119164285Y-80582228D01*
X119164285Y-80582228D02*
X119135713Y-80639371D01*
X119135713Y-80639371D02*
X119135713Y-80725085D01*
X119135713Y-80725085D02*
X119164285Y-80782228D01*
X119164285Y-80782228D02*
X119192856Y-80810800D01*
X119192856Y-80810800D02*
X119249999Y-80839371D01*
X119249999Y-80839371D02*
X119478570Y-80839371D01*
X119478570Y-80839371D02*
X119478570Y-80239371D01*
X119478570Y-80239371D02*
X119278570Y-80239371D01*
X119278570Y-80239371D02*
X119221428Y-80267942D01*
X119221428Y-80267942D02*
X119192856Y-80296514D01*
X119192856Y-80296514D02*
X119164285Y-80353657D01*
X119164285Y-80353657D02*
X119164285Y-80410800D01*
X119164285Y-80410800D02*
X119192856Y-80467942D01*
X119192856Y-80467942D02*
X119221428Y-80496514D01*
X119221428Y-80496514D02*
X119278570Y-80525085D01*
X119278570Y-80525085D02*
X119478570Y-80525085D01*
X118621428Y-80839371D02*
X118621428Y-80525085D01*
X118621428Y-80525085D02*
X118649999Y-80467942D01*
X118649999Y-80467942D02*
X118707142Y-80439371D01*
X118707142Y-80439371D02*
X118821428Y-80439371D01*
X118821428Y-80439371D02*
X118878570Y-80467942D01*
X118621428Y-80810800D02*
X118678570Y-80839371D01*
X118678570Y-80839371D02*
X118821428Y-80839371D01*
X118821428Y-80839371D02*
X118878570Y-80810800D01*
X118878570Y-80810800D02*
X118907142Y-80753657D01*
X118907142Y-80753657D02*
X118907142Y-80696514D01*
X118907142Y-80696514D02*
X118878570Y-80639371D01*
X118878570Y-80639371D02*
X118821428Y-80610800D01*
X118821428Y-80610800D02*
X118678570Y-80610800D01*
X118678570Y-80610800D02*
X118621428Y-80582228D01*
X118364285Y-80810800D02*
X118307142Y-80839371D01*
X118307142Y-80839371D02*
X118192856Y-80839371D01*
X118192856Y-80839371D02*
X118135713Y-80810800D01*
X118135713Y-80810800D02*
X118107142Y-80753657D01*
X118107142Y-80753657D02*
X118107142Y-80725085D01*
X118107142Y-80725085D02*
X118135713Y-80667942D01*
X118135713Y-80667942D02*
X118192856Y-80639371D01*
X118192856Y-80639371D02*
X118278571Y-80639371D01*
X118278571Y-80639371D02*
X118335713Y-80610800D01*
X118335713Y-80610800D02*
X118364285Y-80553657D01*
X118364285Y-80553657D02*
X118364285Y-80525085D01*
X118364285Y-80525085D02*
X118335713Y-80467942D01*
X118335713Y-80467942D02*
X118278571Y-80439371D01*
X118278571Y-80439371D02*
X118192856Y-80439371D01*
X118192856Y-80439371D02*
X118135713Y-80467942D01*
X117621428Y-80810800D02*
X117678571Y-80839371D01*
X117678571Y-80839371D02*
X117792857Y-80839371D01*
X117792857Y-80839371D02*
X117849999Y-80810800D01*
X117849999Y-80810800D02*
X117878571Y-80753657D01*
X117878571Y-80753657D02*
X117878571Y-80525085D01*
X117878571Y-80525085D02*
X117849999Y-80467942D01*
X117849999Y-80467942D02*
X117792857Y-80439371D01*
X117792857Y-80439371D02*
X117678571Y-80439371D01*
X117678571Y-80439371D02*
X117621428Y-80467942D01*
X117621428Y-80467942D02*
X117592857Y-80525085D01*
X117592857Y-80525085D02*
X117592857Y-80582228D01*
X117592857Y-80582228D02*
X117878571Y-80639371D01*
X117078571Y-80839371D02*
X117078571Y-80239371D01*
X117078571Y-80810800D02*
X117135713Y-80839371D01*
X117135713Y-80839371D02*
X117249999Y-80839371D01*
X117249999Y-80839371D02*
X117307142Y-80810800D01*
X117307142Y-80810800D02*
X117335713Y-80782228D01*
X117335713Y-80782228D02*
X117364285Y-80725085D01*
X117364285Y-80725085D02*
X117364285Y-80553657D01*
X117364285Y-80553657D02*
X117335713Y-80496514D01*
X117335713Y-80496514D02*
X117307142Y-80467942D01*
X117307142Y-80467942D02*
X117249999Y-80439371D01*
X117249999Y-80439371D02*
X117135713Y-80439371D01*
X117135713Y-80439371D02*
X117078571Y-80467942D01*
X116249999Y-80839371D02*
X116307142Y-80810800D01*
X116307142Y-80810800D02*
X116335713Y-80782228D01*
X116335713Y-80782228D02*
X116364285Y-80725085D01*
X116364285Y-80725085D02*
X116364285Y-80553657D01*
X116364285Y-80553657D02*
X116335713Y-80496514D01*
X116335713Y-80496514D02*
X116307142Y-80467942D01*
X116307142Y-80467942D02*
X116249999Y-80439371D01*
X116249999Y-80439371D02*
X116164285Y-80439371D01*
X116164285Y-80439371D02*
X116107142Y-80467942D01*
X116107142Y-80467942D02*
X116078571Y-80496514D01*
X116078571Y-80496514D02*
X116049999Y-80553657D01*
X116049999Y-80553657D02*
X116049999Y-80725085D01*
X116049999Y-80725085D02*
X116078571Y-80782228D01*
X116078571Y-80782228D02*
X116107142Y-80810800D01*
X116107142Y-80810800D02*
X116164285Y-80839371D01*
X116164285Y-80839371D02*
X116249999Y-80839371D01*
X115792856Y-80439371D02*
X115792856Y-80839371D01*
X115792856Y-80496514D02*
X115764285Y-80467942D01*
X115764285Y-80467942D02*
X115707142Y-80439371D01*
X115707142Y-80439371D02*
X115621428Y-80439371D01*
X115621428Y-80439371D02*
X115564285Y-80467942D01*
X115564285Y-80467942D02*
X115535714Y-80525085D01*
X115535714Y-80525085D02*
X115535714Y-80839371D01*
X114478571Y-80267942D02*
X114535714Y-80239371D01*
X114535714Y-80239371D02*
X114621428Y-80239371D01*
X114621428Y-80239371D02*
X114707142Y-80267942D01*
X114707142Y-80267942D02*
X114764285Y-80325085D01*
X114764285Y-80325085D02*
X114792856Y-80382228D01*
X114792856Y-80382228D02*
X114821428Y-80496514D01*
X114821428Y-80496514D02*
X114821428Y-80582228D01*
X114821428Y-80582228D02*
X114792856Y-80696514D01*
X114792856Y-80696514D02*
X114764285Y-80753657D01*
X114764285Y-80753657D02*
X114707142Y-80810800D01*
X114707142Y-80810800D02*
X114621428Y-80839371D01*
X114621428Y-80839371D02*
X114564285Y-80839371D01*
X114564285Y-80839371D02*
X114478571Y-80810800D01*
X114478571Y-80810800D02*
X114449999Y-80782228D01*
X114449999Y-80782228D02*
X114449999Y-80582228D01*
X114449999Y-80582228D02*
X114564285Y-80582228D01*
X113964285Y-80810800D02*
X114021428Y-80839371D01*
X114021428Y-80839371D02*
X114135714Y-80839371D01*
X114135714Y-80839371D02*
X114192856Y-80810800D01*
X114192856Y-80810800D02*
X114221428Y-80753657D01*
X114221428Y-80753657D02*
X114221428Y-80525085D01*
X114221428Y-80525085D02*
X114192856Y-80467942D01*
X114192856Y-80467942D02*
X114135714Y-80439371D01*
X114135714Y-80439371D02*
X114021428Y-80439371D01*
X114021428Y-80439371D02*
X113964285Y-80467942D01*
X113964285Y-80467942D02*
X113935714Y-80525085D01*
X113935714Y-80525085D02*
X113935714Y-80582228D01*
X113935714Y-80582228D02*
X114221428Y-80639371D01*
X113678570Y-80439371D02*
X113678570Y-80839371D01*
X113678570Y-80496514D02*
X113649999Y-80467942D01*
X113649999Y-80467942D02*
X113592856Y-80439371D01*
X113592856Y-80439371D02*
X113507142Y-80439371D01*
X113507142Y-80439371D02*
X113449999Y-80467942D01*
X113449999Y-80467942D02*
X113421428Y-80525085D01*
X113421428Y-80525085D02*
X113421428Y-80839371D01*
X112878571Y-80839371D02*
X112878571Y-80239371D01*
X112878571Y-80810800D02*
X112935713Y-80839371D01*
X112935713Y-80839371D02*
X113049999Y-80839371D01*
X113049999Y-80839371D02*
X113107142Y-80810800D01*
X113107142Y-80810800D02*
X113135713Y-80782228D01*
X113135713Y-80782228D02*
X113164285Y-80725085D01*
X113164285Y-80725085D02*
X113164285Y-80553657D01*
X113164285Y-80553657D02*
X113135713Y-80496514D01*
X113135713Y-80496514D02*
X113107142Y-80467942D01*
X113107142Y-80467942D02*
X113049999Y-80439371D01*
X113049999Y-80439371D02*
X112935713Y-80439371D01*
X112935713Y-80439371D02*
X112878571Y-80467942D01*
X112507142Y-80839371D02*
X112564285Y-80810800D01*
X112564285Y-80810800D02*
X112592856Y-80782228D01*
X112592856Y-80782228D02*
X112621428Y-80725085D01*
X112621428Y-80725085D02*
X112621428Y-80553657D01*
X112621428Y-80553657D02*
X112592856Y-80496514D01*
X112592856Y-80496514D02*
X112564285Y-80467942D01*
X112564285Y-80467942D02*
X112507142Y-80439371D01*
X112507142Y-80439371D02*
X112421428Y-80439371D01*
X112421428Y-80439371D02*
X112364285Y-80467942D01*
X112364285Y-80467942D02*
X112335714Y-80496514D01*
X112335714Y-80496514D02*
X112307142Y-80553657D01*
X112307142Y-80553657D02*
X112307142Y-80725085D01*
X112307142Y-80725085D02*
X112335714Y-80782228D01*
X112335714Y-80782228D02*
X112364285Y-80810800D01*
X112364285Y-80810800D02*
X112421428Y-80839371D01*
X112421428Y-80839371D02*
X112507142Y-80839371D01*
X112049999Y-80439371D02*
X112049999Y-80839371D01*
X112049999Y-80496514D02*
X112021428Y-80467942D01*
X112021428Y-80467942D02*
X111964285Y-80439371D01*
X111964285Y-80439371D02*
X111878571Y-80439371D01*
X111878571Y-80439371D02*
X111821428Y-80467942D01*
X111821428Y-80467942D02*
X111792857Y-80525085D01*
X111792857Y-80525085D02*
X111792857Y-80839371D01*
X111564285Y-80239371D02*
X111192857Y-80239371D01*
X111192857Y-80239371D02*
X111392857Y-80467942D01*
X111392857Y-80467942D02*
X111307142Y-80467942D01*
X111307142Y-80467942D02*
X111250000Y-80496514D01*
X111250000Y-80496514D02*
X111221428Y-80525085D01*
X111221428Y-80525085D02*
X111192857Y-80582228D01*
X111192857Y-80582228D02*
X111192857Y-80725085D01*
X111192857Y-80725085D02*
X111221428Y-80782228D01*
X111221428Y-80782228D02*
X111250000Y-80810800D01*
X111250000Y-80810800D02*
X111307142Y-80839371D01*
X111307142Y-80839371D02*
X111478571Y-80839371D01*
X111478571Y-80839371D02*
X111535714Y-80810800D01*
X111535714Y-80810800D02*
X111564285Y-80782228D01*
X120921427Y-81205371D02*
X120578570Y-81205371D01*
X120749998Y-81805371D02*
X120749998Y-81205371D01*
X120378569Y-81805371D02*
X120378569Y-81205371D01*
X120121427Y-81805371D02*
X120121427Y-81491085D01*
X120121427Y-81491085D02*
X120149998Y-81433942D01*
X120149998Y-81433942D02*
X120207141Y-81405371D01*
X120207141Y-81405371D02*
X120292855Y-81405371D01*
X120292855Y-81405371D02*
X120349998Y-81433942D01*
X120349998Y-81433942D02*
X120378569Y-81462514D01*
X119578570Y-81805371D02*
X119578570Y-81491085D01*
X119578570Y-81491085D02*
X119607141Y-81433942D01*
X119607141Y-81433942D02*
X119664284Y-81405371D01*
X119664284Y-81405371D02*
X119778570Y-81405371D01*
X119778570Y-81405371D02*
X119835712Y-81433942D01*
X119578570Y-81776800D02*
X119635712Y-81805371D01*
X119635712Y-81805371D02*
X119778570Y-81805371D01*
X119778570Y-81805371D02*
X119835712Y-81776800D01*
X119835712Y-81776800D02*
X119864284Y-81719657D01*
X119864284Y-81719657D02*
X119864284Y-81662514D01*
X119864284Y-81662514D02*
X119835712Y-81605371D01*
X119835712Y-81605371D02*
X119778570Y-81576800D01*
X119778570Y-81576800D02*
X119635712Y-81576800D01*
X119635712Y-81576800D02*
X119578570Y-81548228D01*
X119292855Y-81405371D02*
X119292855Y-81805371D01*
X119292855Y-81462514D02*
X119264284Y-81433942D01*
X119264284Y-81433942D02*
X119207141Y-81405371D01*
X119207141Y-81405371D02*
X119121427Y-81405371D01*
X119121427Y-81405371D02*
X119064284Y-81433942D01*
X119064284Y-81433942D02*
X119035713Y-81491085D01*
X119035713Y-81491085D02*
X119035713Y-81805371D01*
X118749998Y-81805371D02*
X118749998Y-81205371D01*
X118692856Y-81576800D02*
X118521427Y-81805371D01*
X118521427Y-81405371D02*
X118749998Y-81633942D01*
X118292856Y-81776800D02*
X118235713Y-81805371D01*
X118235713Y-81805371D02*
X118121427Y-81805371D01*
X118121427Y-81805371D02*
X118064284Y-81776800D01*
X118064284Y-81776800D02*
X118035713Y-81719657D01*
X118035713Y-81719657D02*
X118035713Y-81691085D01*
X118035713Y-81691085D02*
X118064284Y-81633942D01*
X118064284Y-81633942D02*
X118121427Y-81605371D01*
X118121427Y-81605371D02*
X118207142Y-81605371D01*
X118207142Y-81605371D02*
X118264284Y-81576800D01*
X118264284Y-81576800D02*
X118292856Y-81519657D01*
X118292856Y-81519657D02*
X118292856Y-81491085D01*
X118292856Y-81491085D02*
X118264284Y-81433942D01*
X118264284Y-81433942D02*
X118207142Y-81405371D01*
X118207142Y-81405371D02*
X118121427Y-81405371D01*
X118121427Y-81405371D02*
X118064284Y-81433942D01*
X117407142Y-81405371D02*
X117178570Y-81405371D01*
X117321427Y-81205371D02*
X117321427Y-81719657D01*
X117321427Y-81719657D02*
X117292856Y-81776800D01*
X117292856Y-81776800D02*
X117235713Y-81805371D01*
X117235713Y-81805371D02*
X117178570Y-81805371D01*
X116892856Y-81805371D02*
X116949999Y-81776800D01*
X116949999Y-81776800D02*
X116978570Y-81748228D01*
X116978570Y-81748228D02*
X117007142Y-81691085D01*
X117007142Y-81691085D02*
X117007142Y-81519657D01*
X117007142Y-81519657D02*
X116978570Y-81462514D01*
X116978570Y-81462514D02*
X116949999Y-81433942D01*
X116949999Y-81433942D02*
X116892856Y-81405371D01*
X116892856Y-81405371D02*
X116807142Y-81405371D01*
X116807142Y-81405371D02*
X116749999Y-81433942D01*
X116749999Y-81433942D02*
X116721428Y-81462514D01*
X116721428Y-81462514D02*
X116692856Y-81519657D01*
X116692856Y-81519657D02*
X116692856Y-81691085D01*
X116692856Y-81691085D02*
X116721428Y-81748228D01*
X116721428Y-81748228D02*
X116749999Y-81776800D01*
X116749999Y-81776800D02*
X116807142Y-81805371D01*
X116807142Y-81805371D02*
X116892856Y-81805371D01*
X115978570Y-81805371D02*
X115978570Y-81405371D01*
X115978570Y-81462514D02*
X115949999Y-81433942D01*
X115949999Y-81433942D02*
X115892856Y-81405371D01*
X115892856Y-81405371D02*
X115807142Y-81405371D01*
X115807142Y-81405371D02*
X115749999Y-81433942D01*
X115749999Y-81433942D02*
X115721428Y-81491085D01*
X115721428Y-81491085D02*
X115721428Y-81805371D01*
X115721428Y-81491085D02*
X115692856Y-81433942D01*
X115692856Y-81433942D02*
X115635713Y-81405371D01*
X115635713Y-81405371D02*
X115549999Y-81405371D01*
X115549999Y-81405371D02*
X115492856Y-81433942D01*
X115492856Y-81433942D02*
X115464285Y-81491085D01*
X115464285Y-81491085D02*
X115464285Y-81805371D01*
X114921428Y-81805371D02*
X114921428Y-81491085D01*
X114921428Y-81491085D02*
X114949999Y-81433942D01*
X114949999Y-81433942D02*
X115007142Y-81405371D01*
X115007142Y-81405371D02*
X115121428Y-81405371D01*
X115121428Y-81405371D02*
X115178570Y-81433942D01*
X114921428Y-81776800D02*
X114978570Y-81805371D01*
X114978570Y-81805371D02*
X115121428Y-81805371D01*
X115121428Y-81805371D02*
X115178570Y-81776800D01*
X115178570Y-81776800D02*
X115207142Y-81719657D01*
X115207142Y-81719657D02*
X115207142Y-81662514D01*
X115207142Y-81662514D02*
X115178570Y-81605371D01*
X115178570Y-81605371D02*
X115121428Y-81576800D01*
X115121428Y-81576800D02*
X114978570Y-81576800D01*
X114978570Y-81576800D02*
X114921428Y-81548228D01*
X114635713Y-81805371D02*
X114635713Y-81205371D01*
X114635713Y-81433942D02*
X114578571Y-81405371D01*
X114578571Y-81405371D02*
X114464285Y-81405371D01*
X114464285Y-81405371D02*
X114407142Y-81433942D01*
X114407142Y-81433942D02*
X114378571Y-81462514D01*
X114378571Y-81462514D02*
X114349999Y-81519657D01*
X114349999Y-81519657D02*
X114349999Y-81691085D01*
X114349999Y-81691085D02*
X114378571Y-81748228D01*
X114378571Y-81748228D02*
X114407142Y-81776800D01*
X114407142Y-81776800D02*
X114464285Y-81805371D01*
X114464285Y-81805371D02*
X114578571Y-81805371D01*
X114578571Y-81805371D02*
X114635713Y-81776800D01*
X114007142Y-81805371D02*
X114064285Y-81776800D01*
X114064285Y-81776800D02*
X114092856Y-81748228D01*
X114092856Y-81748228D02*
X114121428Y-81691085D01*
X114121428Y-81691085D02*
X114121428Y-81519657D01*
X114121428Y-81519657D02*
X114092856Y-81462514D01*
X114092856Y-81462514D02*
X114064285Y-81433942D01*
X114064285Y-81433942D02*
X114007142Y-81405371D01*
X114007142Y-81405371D02*
X113921428Y-81405371D01*
X113921428Y-81405371D02*
X113864285Y-81433942D01*
X113864285Y-81433942D02*
X113835714Y-81462514D01*
X113835714Y-81462514D02*
X113807142Y-81519657D01*
X113807142Y-81519657D02*
X113807142Y-81691085D01*
X113807142Y-81691085D02*
X113835714Y-81748228D01*
X113835714Y-81748228D02*
X113864285Y-81776800D01*
X113864285Y-81776800D02*
X113921428Y-81805371D01*
X113921428Y-81805371D02*
X114007142Y-81805371D01*
X113607142Y-81405371D02*
X113464285Y-81805371D01*
X113321428Y-81405371D02*
X113464285Y-81805371D01*
X113464285Y-81805371D02*
X113521428Y-81948228D01*
X113521428Y-81948228D02*
X113549999Y-81976800D01*
X113549999Y-81976800D02*
X113607142Y-82005371D01*
X113178571Y-81405371D02*
X112949999Y-81405371D01*
X113092856Y-81205371D02*
X113092856Y-81719657D01*
X113092856Y-81719657D02*
X113064285Y-81776800D01*
X113064285Y-81776800D02*
X113007142Y-81805371D01*
X113007142Y-81805371D02*
X112949999Y-81805371D01*
X112749999Y-81805371D02*
X112749999Y-81405371D01*
X112749999Y-81205371D02*
X112778571Y-81233942D01*
X112778571Y-81233942D02*
X112749999Y-81262514D01*
X112749999Y-81262514D02*
X112721428Y-81233942D01*
X112721428Y-81233942D02*
X112749999Y-81205371D01*
X112749999Y-81205371D02*
X112749999Y-81262514D01*
X112464285Y-81805371D02*
X112464285Y-81405371D01*
X112464285Y-81462514D02*
X112435714Y-81433942D01*
X112435714Y-81433942D02*
X112378571Y-81405371D01*
X112378571Y-81405371D02*
X112292857Y-81405371D01*
X112292857Y-81405371D02*
X112235714Y-81433942D01*
X112235714Y-81433942D02*
X112207143Y-81491085D01*
X112207143Y-81491085D02*
X112207143Y-81805371D01*
X112207143Y-81491085D02*
X112178571Y-81433942D01*
X112178571Y-81433942D02*
X112121428Y-81405371D01*
X112121428Y-81405371D02*
X112035714Y-81405371D01*
X112035714Y-81405371D02*
X111978571Y-81433942D01*
X111978571Y-81433942D02*
X111950000Y-81491085D01*
X111950000Y-81491085D02*
X111950000Y-81805371D01*
X110950000Y-81805371D02*
X110950000Y-81491085D01*
X110950000Y-81491085D02*
X110978571Y-81433942D01*
X110978571Y-81433942D02*
X111035714Y-81405371D01*
X111035714Y-81405371D02*
X111150000Y-81405371D01*
X111150000Y-81405371D02*
X111207142Y-81433942D01*
X110950000Y-81776800D02*
X111007142Y-81805371D01*
X111007142Y-81805371D02*
X111150000Y-81805371D01*
X111150000Y-81805371D02*
X111207142Y-81776800D01*
X111207142Y-81776800D02*
X111235714Y-81719657D01*
X111235714Y-81719657D02*
X111235714Y-81662514D01*
X111235714Y-81662514D02*
X111207142Y-81605371D01*
X111207142Y-81605371D02*
X111150000Y-81576800D01*
X111150000Y-81576800D02*
X111007142Y-81576800D01*
X111007142Y-81576800D02*
X110950000Y-81548228D01*
X110664285Y-81405371D02*
X110664285Y-81805371D01*
X110664285Y-81462514D02*
X110635714Y-81433942D01*
X110635714Y-81433942D02*
X110578571Y-81405371D01*
X110578571Y-81405371D02*
X110492857Y-81405371D01*
X110492857Y-81405371D02*
X110435714Y-81433942D01*
X110435714Y-81433942D02*
X110407143Y-81491085D01*
X110407143Y-81491085D02*
X110407143Y-81805371D01*
X109864286Y-81805371D02*
X109864286Y-81205371D01*
X109864286Y-81776800D02*
X109921428Y-81805371D01*
X109921428Y-81805371D02*
X110035714Y-81805371D01*
X110035714Y-81805371D02*
X110092857Y-81776800D01*
X110092857Y-81776800D02*
X110121428Y-81748228D01*
X110121428Y-81748228D02*
X110150000Y-81691085D01*
X110150000Y-81691085D02*
X110150000Y-81519657D01*
X110150000Y-81519657D02*
X110121428Y-81462514D01*
X110121428Y-81462514D02*
X110092857Y-81433942D01*
X110092857Y-81433942D02*
X110035714Y-81405371D01*
X110035714Y-81405371D02*
X109921428Y-81405371D01*
X109921428Y-81405371D02*
X109864286Y-81433942D01*
X119607143Y-82771371D02*
X119607143Y-82457085D01*
X119607143Y-82457085D02*
X119635714Y-82399942D01*
X119635714Y-82399942D02*
X119692857Y-82371371D01*
X119692857Y-82371371D02*
X119807143Y-82371371D01*
X119807143Y-82371371D02*
X119864285Y-82399942D01*
X119607143Y-82742800D02*
X119664285Y-82771371D01*
X119664285Y-82771371D02*
X119807143Y-82771371D01*
X119807143Y-82771371D02*
X119864285Y-82742800D01*
X119864285Y-82742800D02*
X119892857Y-82685657D01*
X119892857Y-82685657D02*
X119892857Y-82628514D01*
X119892857Y-82628514D02*
X119864285Y-82571371D01*
X119864285Y-82571371D02*
X119807143Y-82542800D01*
X119807143Y-82542800D02*
X119664285Y-82542800D01*
X119664285Y-82542800D02*
X119607143Y-82514228D01*
X119235714Y-82771371D02*
X119292857Y-82742800D01*
X119292857Y-82742800D02*
X119321428Y-82685657D01*
X119321428Y-82685657D02*
X119321428Y-82171371D01*
X118921428Y-82771371D02*
X118978571Y-82742800D01*
X118978571Y-82742800D02*
X119007142Y-82685657D01*
X119007142Y-82685657D02*
X119007142Y-82171371D01*
X117978571Y-82771371D02*
X117978571Y-82457085D01*
X117978571Y-82457085D02*
X118007142Y-82399942D01*
X118007142Y-82399942D02*
X118064285Y-82371371D01*
X118064285Y-82371371D02*
X118178571Y-82371371D01*
X118178571Y-82371371D02*
X118235713Y-82399942D01*
X117978571Y-82742800D02*
X118035713Y-82771371D01*
X118035713Y-82771371D02*
X118178571Y-82771371D01*
X118178571Y-82771371D02*
X118235713Y-82742800D01*
X118235713Y-82742800D02*
X118264285Y-82685657D01*
X118264285Y-82685657D02*
X118264285Y-82628514D01*
X118264285Y-82628514D02*
X118235713Y-82571371D01*
X118235713Y-82571371D02*
X118178571Y-82542800D01*
X118178571Y-82542800D02*
X118035713Y-82542800D01*
X118035713Y-82542800D02*
X117978571Y-82514228D01*
X117778571Y-82371371D02*
X117549999Y-82371371D01*
X117692856Y-82171371D02*
X117692856Y-82685657D01*
X117692856Y-82685657D02*
X117664285Y-82742800D01*
X117664285Y-82742800D02*
X117607142Y-82771371D01*
X117607142Y-82771371D02*
X117549999Y-82771371D01*
X116978571Y-82171371D02*
X116635714Y-82171371D01*
X116807142Y-82771371D02*
X116807142Y-82171371D01*
X116178571Y-82771371D02*
X116178571Y-82457085D01*
X116178571Y-82457085D02*
X116207142Y-82399942D01*
X116207142Y-82399942D02*
X116264285Y-82371371D01*
X116264285Y-82371371D02*
X116378571Y-82371371D01*
X116378571Y-82371371D02*
X116435713Y-82399942D01*
X116178571Y-82742800D02*
X116235713Y-82771371D01*
X116235713Y-82771371D02*
X116378571Y-82771371D01*
X116378571Y-82771371D02*
X116435713Y-82742800D01*
X116435713Y-82742800D02*
X116464285Y-82685657D01*
X116464285Y-82685657D02*
X116464285Y-82628514D01*
X116464285Y-82628514D02*
X116435713Y-82571371D01*
X116435713Y-82571371D02*
X116378571Y-82542800D01*
X116378571Y-82542800D02*
X116235713Y-82542800D01*
X116235713Y-82542800D02*
X116178571Y-82514228D01*
X115892856Y-82371371D02*
X115892856Y-82771371D01*
X115892856Y-82428514D02*
X115864285Y-82399942D01*
X115864285Y-82399942D02*
X115807142Y-82371371D01*
X115807142Y-82371371D02*
X115721428Y-82371371D01*
X115721428Y-82371371D02*
X115664285Y-82399942D01*
X115664285Y-82399942D02*
X115635714Y-82457085D01*
X115635714Y-82457085D02*
X115635714Y-82771371D01*
X115092857Y-82771371D02*
X115092857Y-82171371D01*
X115092857Y-82742800D02*
X115149999Y-82771371D01*
X115149999Y-82771371D02*
X115264285Y-82771371D01*
X115264285Y-82771371D02*
X115321428Y-82742800D01*
X115321428Y-82742800D02*
X115349999Y-82714228D01*
X115349999Y-82714228D02*
X115378571Y-82657085D01*
X115378571Y-82657085D02*
X115378571Y-82485657D01*
X115378571Y-82485657D02*
X115349999Y-82428514D01*
X115349999Y-82428514D02*
X115321428Y-82399942D01*
X115321428Y-82399942D02*
X115264285Y-82371371D01*
X115264285Y-82371371D02*
X115149999Y-82371371D01*
X115149999Y-82371371D02*
X115092857Y-82399942D01*
X114864285Y-82371371D02*
X114721428Y-82771371D01*
X114578571Y-82371371D02*
X114721428Y-82771371D01*
X114721428Y-82771371D02*
X114778571Y-82914228D01*
X114778571Y-82914228D02*
X114807142Y-82942800D01*
X114807142Y-82942800D02*
X114864285Y-82971371D01*
X113892856Y-82771371D02*
X113892856Y-82171371D01*
X113892856Y-82171371D02*
X113749999Y-82171371D01*
X113749999Y-82171371D02*
X113664285Y-82199942D01*
X113664285Y-82199942D02*
X113607142Y-82257085D01*
X113607142Y-82257085D02*
X113578571Y-82314228D01*
X113578571Y-82314228D02*
X113549999Y-82428514D01*
X113549999Y-82428514D02*
X113549999Y-82514228D01*
X113549999Y-82514228D02*
X113578571Y-82628514D01*
X113578571Y-82628514D02*
X113607142Y-82685657D01*
X113607142Y-82685657D02*
X113664285Y-82742800D01*
X113664285Y-82742800D02*
X113749999Y-82771371D01*
X113749999Y-82771371D02*
X113892856Y-82771371D01*
X113292856Y-82771371D02*
X113292856Y-82371371D01*
X113292856Y-82171371D02*
X113321428Y-82199942D01*
X113321428Y-82199942D02*
X113292856Y-82228514D01*
X113292856Y-82228514D02*
X113264285Y-82199942D01*
X113264285Y-82199942D02*
X113292856Y-82171371D01*
X113292856Y-82171371D02*
X113292856Y-82228514D01*
X113035714Y-82742800D02*
X112978571Y-82771371D01*
X112978571Y-82771371D02*
X112864285Y-82771371D01*
X112864285Y-82771371D02*
X112807142Y-82742800D01*
X112807142Y-82742800D02*
X112778571Y-82685657D01*
X112778571Y-82685657D02*
X112778571Y-82657085D01*
X112778571Y-82657085D02*
X112807142Y-82599942D01*
X112807142Y-82599942D02*
X112864285Y-82571371D01*
X112864285Y-82571371D02*
X112950000Y-82571371D01*
X112950000Y-82571371D02*
X113007142Y-82542800D01*
X113007142Y-82542800D02*
X113035714Y-82485657D01*
X113035714Y-82485657D02*
X113035714Y-82457085D01*
X113035714Y-82457085D02*
X113007142Y-82399942D01*
X113007142Y-82399942D02*
X112950000Y-82371371D01*
X112950000Y-82371371D02*
X112864285Y-82371371D01*
X112864285Y-82371371D02*
X112807142Y-82399942D01*
X112264286Y-82742800D02*
X112321428Y-82771371D01*
X112321428Y-82771371D02*
X112435714Y-82771371D01*
X112435714Y-82771371D02*
X112492857Y-82742800D01*
X112492857Y-82742800D02*
X112521428Y-82714228D01*
X112521428Y-82714228D02*
X112550000Y-82657085D01*
X112550000Y-82657085D02*
X112550000Y-82485657D01*
X112550000Y-82485657D02*
X112521428Y-82428514D01*
X112521428Y-82428514D02*
X112492857Y-82399942D01*
X112492857Y-82399942D02*
X112435714Y-82371371D01*
X112435714Y-82371371D02*
X112321428Y-82371371D01*
X112321428Y-82371371D02*
X112264286Y-82399942D01*
X111921428Y-82771371D02*
X111978571Y-82742800D01*
X111978571Y-82742800D02*
X112007142Y-82714228D01*
X112007142Y-82714228D02*
X112035714Y-82657085D01*
X112035714Y-82657085D02*
X112035714Y-82485657D01*
X112035714Y-82485657D02*
X112007142Y-82428514D01*
X112007142Y-82428514D02*
X111978571Y-82399942D01*
X111978571Y-82399942D02*
X111921428Y-82371371D01*
X111921428Y-82371371D02*
X111835714Y-82371371D01*
X111835714Y-82371371D02*
X111778571Y-82399942D01*
X111778571Y-82399942D02*
X111750000Y-82428514D01*
X111750000Y-82428514D02*
X111721428Y-82485657D01*
X111721428Y-82485657D02*
X111721428Y-82657085D01*
X111721428Y-82657085D02*
X111750000Y-82714228D01*
X111750000Y-82714228D02*
X111778571Y-82742800D01*
X111778571Y-82742800D02*
X111835714Y-82771371D01*
X111835714Y-82771371D02*
X111921428Y-82771371D01*
X111464285Y-82771371D02*
X111464285Y-82371371D01*
X111464285Y-82485657D02*
X111435714Y-82428514D01*
X111435714Y-82428514D02*
X111407143Y-82399942D01*
X111407143Y-82399942D02*
X111350000Y-82371371D01*
X111350000Y-82371371D02*
X111292857Y-82371371D01*
X110835714Y-82771371D02*
X110835714Y-82171371D01*
X110835714Y-82742800D02*
X110892856Y-82771371D01*
X110892856Y-82771371D02*
X111007142Y-82771371D01*
X111007142Y-82771371D02*
X111064285Y-82742800D01*
X111064285Y-82742800D02*
X111092856Y-82714228D01*
X111092856Y-82714228D02*
X111121428Y-82657085D01*
X111121428Y-82657085D02*
X111121428Y-82485657D01*
X111121428Y-82485657D02*
X111092856Y-82428514D01*
X111092856Y-82428514D02*
X111064285Y-82399942D01*
X111064285Y-82399942D02*
X111007142Y-82371371D01*
X111007142Y-82371371D02*
X110892856Y-82371371D01*
X110892856Y-82371371D02*
X110835714Y-82399942D01*
X113258895Y-64866979D02*
X113258895Y-65324122D01*
X114058895Y-65095550D02*
X113258895Y-65095550D01*
X114058895Y-65590789D02*
X113258895Y-65590789D01*
X114058895Y-65933646D02*
X113639847Y-65933646D01*
X113639847Y-65933646D02*
X113563657Y-65895551D01*
X113563657Y-65895551D02*
X113525561Y-65819360D01*
X113525561Y-65819360D02*
X113525561Y-65705074D01*
X113525561Y-65705074D02*
X113563657Y-65628884D01*
X113563657Y-65628884D02*
X113601752Y-65590789D01*
X114020800Y-66619361D02*
X114058895Y-66543170D01*
X114058895Y-66543170D02*
X114058895Y-66390789D01*
X114058895Y-66390789D02*
X114020800Y-66314599D01*
X114020800Y-66314599D02*
X113944609Y-66276503D01*
X113944609Y-66276503D02*
X113639847Y-66276503D01*
X113639847Y-66276503D02*
X113563657Y-66314599D01*
X113563657Y-66314599D02*
X113525561Y-66390789D01*
X113525561Y-66390789D02*
X113525561Y-66543170D01*
X113525561Y-66543170D02*
X113563657Y-66619361D01*
X113563657Y-66619361D02*
X113639847Y-66657456D01*
X113639847Y-66657456D02*
X113716038Y-66657456D01*
X113716038Y-66657456D02*
X113792228Y-66276503D01*
X113639847Y-67876503D02*
X113677942Y-67990789D01*
X113677942Y-67990789D02*
X113716038Y-68028884D01*
X113716038Y-68028884D02*
X113792228Y-68066980D01*
X113792228Y-68066980D02*
X113906514Y-68066980D01*
X113906514Y-68066980D02*
X113982704Y-68028884D01*
X113982704Y-68028884D02*
X114020800Y-67990789D01*
X114020800Y-67990789D02*
X114058895Y-67914599D01*
X114058895Y-67914599D02*
X114058895Y-67609837D01*
X114058895Y-67609837D02*
X113258895Y-67609837D01*
X113258895Y-67609837D02*
X113258895Y-67876503D01*
X113258895Y-67876503D02*
X113296990Y-67952694D01*
X113296990Y-67952694D02*
X113335085Y-67990789D01*
X113335085Y-67990789D02*
X113411276Y-68028884D01*
X113411276Y-68028884D02*
X113487466Y-68028884D01*
X113487466Y-68028884D02*
X113563657Y-67990789D01*
X113563657Y-67990789D02*
X113601752Y-67952694D01*
X113601752Y-67952694D02*
X113639847Y-67876503D01*
X113639847Y-67876503D02*
X113639847Y-67609837D01*
X114058895Y-68524122D02*
X114020800Y-68447932D01*
X114020800Y-68447932D02*
X113982704Y-68409837D01*
X113982704Y-68409837D02*
X113906514Y-68371741D01*
X113906514Y-68371741D02*
X113677942Y-68371741D01*
X113677942Y-68371741D02*
X113601752Y-68409837D01*
X113601752Y-68409837D02*
X113563657Y-68447932D01*
X113563657Y-68447932D02*
X113525561Y-68524122D01*
X113525561Y-68524122D02*
X113525561Y-68638408D01*
X113525561Y-68638408D02*
X113563657Y-68714599D01*
X113563657Y-68714599D02*
X113601752Y-68752694D01*
X113601752Y-68752694D02*
X113677942Y-68790789D01*
X113677942Y-68790789D02*
X113906514Y-68790789D01*
X113906514Y-68790789D02*
X113982704Y-68752694D01*
X113982704Y-68752694D02*
X114020800Y-68714599D01*
X114020800Y-68714599D02*
X114058895Y-68638408D01*
X114058895Y-68638408D02*
X114058895Y-68524122D01*
X114058895Y-69476504D02*
X113639847Y-69476504D01*
X113639847Y-69476504D02*
X113563657Y-69438409D01*
X113563657Y-69438409D02*
X113525561Y-69362218D01*
X113525561Y-69362218D02*
X113525561Y-69209837D01*
X113525561Y-69209837D02*
X113563657Y-69133647D01*
X114020800Y-69476504D02*
X114058895Y-69400313D01*
X114058895Y-69400313D02*
X114058895Y-69209837D01*
X114058895Y-69209837D02*
X114020800Y-69133647D01*
X114020800Y-69133647D02*
X113944609Y-69095551D01*
X113944609Y-69095551D02*
X113868419Y-69095551D01*
X113868419Y-69095551D02*
X113792228Y-69133647D01*
X113792228Y-69133647D02*
X113754133Y-69209837D01*
X113754133Y-69209837D02*
X113754133Y-69400313D01*
X113754133Y-69400313D02*
X113716038Y-69476504D01*
X114058895Y-69857457D02*
X113525561Y-69857457D01*
X113677942Y-69857457D02*
X113601752Y-69895552D01*
X113601752Y-69895552D02*
X113563657Y-69933647D01*
X113563657Y-69933647D02*
X113525561Y-70009838D01*
X113525561Y-70009838D02*
X113525561Y-70086028D01*
X114058895Y-70695552D02*
X113258895Y-70695552D01*
X114020800Y-70695552D02*
X114058895Y-70619361D01*
X114058895Y-70619361D02*
X114058895Y-70466980D01*
X114058895Y-70466980D02*
X114020800Y-70390790D01*
X114020800Y-70390790D02*
X113982704Y-70352695D01*
X113982704Y-70352695D02*
X113906514Y-70314599D01*
X113906514Y-70314599D02*
X113677942Y-70314599D01*
X113677942Y-70314599D02*
X113601752Y-70352695D01*
X113601752Y-70352695D02*
X113563657Y-70390790D01*
X113563657Y-70390790D02*
X113525561Y-70466980D01*
X113525561Y-70466980D02*
X113525561Y-70619361D01*
X113525561Y-70619361D02*
X113563657Y-70695552D01*
X113639847Y-71952695D02*
X113639847Y-71686029D01*
X114058895Y-71686029D02*
X113258895Y-71686029D01*
X113258895Y-71686029D02*
X113258895Y-72066981D01*
X114058895Y-72486028D02*
X114020800Y-72409838D01*
X114020800Y-72409838D02*
X113982704Y-72371743D01*
X113982704Y-72371743D02*
X113906514Y-72333647D01*
X113906514Y-72333647D02*
X113677942Y-72333647D01*
X113677942Y-72333647D02*
X113601752Y-72371743D01*
X113601752Y-72371743D02*
X113563657Y-72409838D01*
X113563657Y-72409838D02*
X113525561Y-72486028D01*
X113525561Y-72486028D02*
X113525561Y-72600314D01*
X113525561Y-72600314D02*
X113563657Y-72676505D01*
X113563657Y-72676505D02*
X113601752Y-72714600D01*
X113601752Y-72714600D02*
X113677942Y-72752695D01*
X113677942Y-72752695D02*
X113906514Y-72752695D01*
X113906514Y-72752695D02*
X113982704Y-72714600D01*
X113982704Y-72714600D02*
X114020800Y-72676505D01*
X114020800Y-72676505D02*
X114058895Y-72600314D01*
X114058895Y-72600314D02*
X114058895Y-72486028D01*
X114058895Y-73209838D02*
X114020800Y-73133648D01*
X114020800Y-73133648D02*
X113944609Y-73095553D01*
X113944609Y-73095553D02*
X113258895Y-73095553D01*
X114058895Y-73514601D02*
X113258895Y-73514601D01*
X113754133Y-73590791D02*
X114058895Y-73819363D01*
X113525561Y-73819363D02*
X113830323Y-73514601D01*
X113258895Y-74657458D02*
X113258895Y-75114601D01*
X114058895Y-74886029D02*
X113258895Y-74886029D01*
X114020800Y-75686030D02*
X114058895Y-75609839D01*
X114058895Y-75609839D02*
X114058895Y-75457458D01*
X114058895Y-75457458D02*
X114020800Y-75381268D01*
X114020800Y-75381268D02*
X113944609Y-75343172D01*
X113944609Y-75343172D02*
X113639847Y-75343172D01*
X113639847Y-75343172D02*
X113563657Y-75381268D01*
X113563657Y-75381268D02*
X113525561Y-75457458D01*
X113525561Y-75457458D02*
X113525561Y-75609839D01*
X113525561Y-75609839D02*
X113563657Y-75686030D01*
X113563657Y-75686030D02*
X113639847Y-75724125D01*
X113639847Y-75724125D02*
X113716038Y-75724125D01*
X113716038Y-75724125D02*
X113792228Y-75343172D01*
X114058895Y-76409839D02*
X113639847Y-76409839D01*
X113639847Y-76409839D02*
X113563657Y-76371744D01*
X113563657Y-76371744D02*
X113525561Y-76295553D01*
X113525561Y-76295553D02*
X113525561Y-76143172D01*
X113525561Y-76143172D02*
X113563657Y-76066982D01*
X114020800Y-76409839D02*
X114058895Y-76333648D01*
X114058895Y-76333648D02*
X114058895Y-76143172D01*
X114058895Y-76143172D02*
X114020800Y-76066982D01*
X114020800Y-76066982D02*
X113944609Y-76028886D01*
X113944609Y-76028886D02*
X113868419Y-76028886D01*
X113868419Y-76028886D02*
X113792228Y-76066982D01*
X113792228Y-76066982D02*
X113754133Y-76143172D01*
X113754133Y-76143172D02*
X113754133Y-76333648D01*
X113754133Y-76333648D02*
X113716038Y-76409839D01*
X114058895Y-76790792D02*
X113525561Y-76790792D01*
X113601752Y-76790792D02*
X113563657Y-76828887D01*
X113563657Y-76828887D02*
X113525561Y-76905077D01*
X113525561Y-76905077D02*
X113525561Y-77019363D01*
X113525561Y-77019363D02*
X113563657Y-77095554D01*
X113563657Y-77095554D02*
X113639847Y-77133649D01*
X113639847Y-77133649D02*
X114058895Y-77133649D01*
X113639847Y-77133649D02*
X113563657Y-77171744D01*
X113563657Y-77171744D02*
X113525561Y-77247935D01*
X113525561Y-77247935D02*
X113525561Y-77362220D01*
X113525561Y-77362220D02*
X113563657Y-77438411D01*
X113563657Y-77438411D02*
X113639847Y-77476506D01*
X113639847Y-77476506D02*
X114058895Y-77476506D01*
X114623085Y-64943169D02*
X114584990Y-64981265D01*
X114584990Y-64981265D02*
X114546895Y-65057455D01*
X114546895Y-65057455D02*
X114546895Y-65247931D01*
X114546895Y-65247931D02*
X114584990Y-65324122D01*
X114584990Y-65324122D02*
X114623085Y-65362217D01*
X114623085Y-65362217D02*
X114699276Y-65400312D01*
X114699276Y-65400312D02*
X114775466Y-65400312D01*
X114775466Y-65400312D02*
X114889752Y-65362217D01*
X114889752Y-65362217D02*
X115346895Y-64905074D01*
X115346895Y-64905074D02*
X115346895Y-65400312D01*
X114546895Y-65895551D02*
X114546895Y-65971741D01*
X114546895Y-65971741D02*
X114584990Y-66047932D01*
X114584990Y-66047932D02*
X114623085Y-66086027D01*
X114623085Y-66086027D02*
X114699276Y-66124122D01*
X114699276Y-66124122D02*
X114851657Y-66162217D01*
X114851657Y-66162217D02*
X115042133Y-66162217D01*
X115042133Y-66162217D02*
X115194514Y-66124122D01*
X115194514Y-66124122D02*
X115270704Y-66086027D01*
X115270704Y-66086027D02*
X115308800Y-66047932D01*
X115308800Y-66047932D02*
X115346895Y-65971741D01*
X115346895Y-65971741D02*
X115346895Y-65895551D01*
X115346895Y-65895551D02*
X115308800Y-65819360D01*
X115308800Y-65819360D02*
X115270704Y-65781265D01*
X115270704Y-65781265D02*
X115194514Y-65743170D01*
X115194514Y-65743170D02*
X115042133Y-65705074D01*
X115042133Y-65705074D02*
X114851657Y-65705074D01*
X114851657Y-65705074D02*
X114699276Y-65743170D01*
X114699276Y-65743170D02*
X114623085Y-65781265D01*
X114623085Y-65781265D02*
X114584990Y-65819360D01*
X114584990Y-65819360D02*
X114546895Y-65895551D01*
X114623085Y-66466979D02*
X114584990Y-66505075D01*
X114584990Y-66505075D02*
X114546895Y-66581265D01*
X114546895Y-66581265D02*
X114546895Y-66771741D01*
X114546895Y-66771741D02*
X114584990Y-66847932D01*
X114584990Y-66847932D02*
X114623085Y-66886027D01*
X114623085Y-66886027D02*
X114699276Y-66924122D01*
X114699276Y-66924122D02*
X114775466Y-66924122D01*
X114775466Y-66924122D02*
X114889752Y-66886027D01*
X114889752Y-66886027D02*
X115346895Y-66428884D01*
X115346895Y-66428884D02*
X115346895Y-66924122D01*
X114546895Y-67190789D02*
X114546895Y-67686027D01*
X114546895Y-67686027D02*
X114851657Y-67419361D01*
X114851657Y-67419361D02*
X114851657Y-67533646D01*
X114851657Y-67533646D02*
X114889752Y-67609837D01*
X114889752Y-67609837D02*
X114927847Y-67647932D01*
X114927847Y-67647932D02*
X115004038Y-67686027D01*
X115004038Y-67686027D02*
X115194514Y-67686027D01*
X115194514Y-67686027D02*
X115270704Y-67647932D01*
X115270704Y-67647932D02*
X115308800Y-67609837D01*
X115308800Y-67609837D02*
X115346895Y-67533646D01*
X115346895Y-67533646D02*
X115346895Y-67305075D01*
X115346895Y-67305075D02*
X115308800Y-67228884D01*
X115308800Y-67228884D02*
X115270704Y-67190789D01*
%TO.C,G1*%
G36*
X113839954Y-57363126D02*
G01*
X113868320Y-57365612D01*
X113899446Y-57369415D01*
X113930646Y-57374163D01*
X113959232Y-57379482D01*
X113982518Y-57385001D01*
X113989743Y-57387052D01*
X114009923Y-57393083D01*
X114032389Y-57400130D01*
X114055705Y-57407706D01*
X114078436Y-57415328D01*
X114099147Y-57422507D01*
X114116403Y-57428759D01*
X114128769Y-57433599D01*
X114134809Y-57436540D01*
X114137380Y-57438081D01*
X114139883Y-57437386D01*
X114141063Y-57436582D01*
X114145972Y-57439416D01*
X114149564Y-57441811D01*
X114152062Y-57441446D01*
X114152874Y-57440507D01*
X114157294Y-57442765D01*
X114157376Y-57442828D01*
X114162833Y-57445376D01*
X114174874Y-57450133D01*
X114192452Y-57456710D01*
X114214517Y-57464723D01*
X114240021Y-57473785D01*
X114267914Y-57483509D01*
X114287191Y-57490182D01*
X114321573Y-57502143D01*
X114356817Y-57514468D01*
X114390789Y-57526408D01*
X114421352Y-57537212D01*
X114446372Y-57546133D01*
X114449738Y-57547334D01*
X114467113Y-57553433D01*
X114491230Y-57561784D01*
X114521333Y-57572131D01*
X114543453Y-57579696D01*
X114556664Y-57584214D01*
X114596466Y-57597778D01*
X114639984Y-57612564D01*
X114686459Y-57628314D01*
X114735136Y-57644771D01*
X114785256Y-57661677D01*
X114836064Y-57678775D01*
X114861965Y-57687491D01*
X114909569Y-57703568D01*
X114954642Y-57718864D01*
X114996610Y-57733179D01*
X115034898Y-57746316D01*
X115068932Y-57758075D01*
X115098138Y-57768256D01*
X115121941Y-57776663D01*
X115139766Y-57783094D01*
X115151039Y-57787353D01*
X115155185Y-57789239D01*
X115155987Y-57790328D01*
X115161290Y-57793452D01*
X115161806Y-57793488D01*
X115168955Y-57795117D01*
X115172203Y-57796230D01*
X115182459Y-57799690D01*
X115198762Y-57805171D01*
X115220202Y-57812365D01*
X115245865Y-57820967D01*
X115274838Y-57830670D01*
X115306211Y-57841168D01*
X115328603Y-57848696D01*
X115360332Y-57859491D01*
X115389915Y-57869700D01*
X115416239Y-57878932D01*
X115438191Y-57886796D01*
X115454659Y-57892900D01*
X115464530Y-57896853D01*
X115471952Y-57900346D01*
X115495448Y-57913270D01*
X115521556Y-57929772D01*
X115547975Y-57948268D01*
X115572403Y-57967176D01*
X115592538Y-57984911D01*
X115610986Y-58004153D01*
X115636033Y-58034626D01*
X115659596Y-58068000D01*
X115680424Y-58102328D01*
X115697268Y-58135662D01*
X115708877Y-58166058D01*
X115711306Y-58173914D01*
X115717460Y-58193049D01*
X115723397Y-58210712D01*
X115724926Y-58215659D01*
X115728713Y-58230741D01*
X115733045Y-58250840D01*
X115737499Y-58273930D01*
X115741652Y-58297987D01*
X115744085Y-58312836D01*
X115747490Y-58332938D01*
X115750369Y-58349140D01*
X115752478Y-58360067D01*
X115753568Y-58364347D01*
X115754629Y-58363722D01*
X115758527Y-58358002D01*
X115763937Y-58348112D01*
X115772665Y-58332197D01*
X115792671Y-58301810D01*
X115815636Y-58273120D01*
X115839852Y-58248169D01*
X115863608Y-58229000D01*
X115863734Y-58228914D01*
X115876443Y-58220078D01*
X115886897Y-58212456D01*
X115892842Y-58207688D01*
X115896196Y-58205205D01*
X115904006Y-58202593D01*
X115906538Y-58202183D01*
X115909805Y-58198534D01*
X115910361Y-58196792D01*
X115915516Y-58194474D01*
X115915631Y-58194472D01*
X115922222Y-58192782D01*
X115933667Y-58188549D01*
X115947558Y-58182660D01*
X115950813Y-58181236D01*
X115983678Y-58169886D01*
X116021831Y-58161268D01*
X116063017Y-58155796D01*
X116104984Y-58153880D01*
X116121453Y-58154092D01*
X116138648Y-58154916D01*
X116150427Y-58156257D01*
X116155443Y-58158005D01*
X116156526Y-58159294D01*
X116161391Y-58160031D01*
X116165384Y-58159572D01*
X116176656Y-58160795D01*
X116193769Y-58163875D01*
X116215615Y-58168585D01*
X116224451Y-58170706D01*
X116241083Y-58174698D01*
X116269067Y-58181988D01*
X116275712Y-58183928D01*
X116291667Y-58188980D01*
X116314033Y-58196346D01*
X116342068Y-58205773D01*
X116375029Y-58217005D01*
X116412174Y-58229787D01*
X116452759Y-58243865D01*
X116496043Y-58258983D01*
X116541282Y-58274888D01*
X116587734Y-58291323D01*
X116660311Y-58317085D01*
X116730441Y-58341981D01*
X116793624Y-58364411D01*
X116850223Y-58384506D01*
X116900602Y-58402396D01*
X116945122Y-58418208D01*
X116984148Y-58432073D01*
X117018043Y-58444119D01*
X117047169Y-58454476D01*
X117071890Y-58463274D01*
X117092569Y-58470640D01*
X117109569Y-58476705D01*
X117123253Y-58481598D01*
X117133984Y-58485448D01*
X117142126Y-58488383D01*
X117148041Y-58490535D01*
X117152092Y-58492030D01*
X117154643Y-58493000D01*
X117156057Y-58493573D01*
X117159098Y-58494843D01*
X117164176Y-58496697D01*
X117168338Y-58498569D01*
X117176354Y-58502808D01*
X117183662Y-58506539D01*
X117187475Y-58507849D01*
X117188238Y-58507771D01*
X117193564Y-58509129D01*
X117196864Y-58510311D01*
X117207098Y-58513963D01*
X117223036Y-58519645D01*
X117243579Y-58526965D01*
X117267626Y-58535530D01*
X117294079Y-58544950D01*
X117302008Y-58547773D01*
X117336814Y-58560170D01*
X117375727Y-58574034D01*
X117415929Y-58588361D01*
X117454603Y-58602148D01*
X117488932Y-58614390D01*
X117513149Y-58623077D01*
X117548730Y-58636125D01*
X117578456Y-58647541D01*
X117603503Y-58657871D01*
X117625047Y-58667661D01*
X117644262Y-58677457D01*
X117662326Y-58687806D01*
X117680412Y-58699254D01*
X117699697Y-58712347D01*
X117717950Y-58725382D01*
X117761787Y-58760270D01*
X117801216Y-58797640D01*
X117838897Y-58839927D01*
X117861722Y-58870323D01*
X117888618Y-58913952D01*
X117912372Y-58961343D01*
X117932080Y-59010433D01*
X117946833Y-59059162D01*
X117955724Y-59105469D01*
X117955838Y-59106553D01*
X117956350Y-59116498D01*
X117956798Y-59133891D01*
X117957181Y-59158178D01*
X117957497Y-59188804D01*
X117957742Y-59225214D01*
X117957914Y-59266855D01*
X117958011Y-59313170D01*
X117958030Y-59363607D01*
X117957970Y-59417609D01*
X117957827Y-59474623D01*
X117957599Y-59534094D01*
X117957448Y-59568842D01*
X117957264Y-59613157D01*
X117957057Y-59664725D01*
X117956828Y-59723099D01*
X117956579Y-59787833D01*
X117956312Y-59858481D01*
X117956028Y-59934598D01*
X117955729Y-60015736D01*
X117955417Y-60101451D01*
X117955092Y-60191295D01*
X117954758Y-60284824D01*
X117954414Y-60381590D01*
X117954064Y-60481149D01*
X117953708Y-60583053D01*
X117953348Y-60686857D01*
X117952986Y-60792116D01*
X117952624Y-60898382D01*
X117952262Y-61005210D01*
X117951902Y-61112153D01*
X117951547Y-61218767D01*
X117951423Y-61255818D01*
X117951063Y-61359193D01*
X117950689Y-61461353D01*
X117950302Y-61561933D01*
X117949904Y-61660571D01*
X117949497Y-61756903D01*
X117949083Y-61850566D01*
X117948665Y-61941197D01*
X117948243Y-62028432D01*
X117947820Y-62111908D01*
X117947399Y-62191262D01*
X117946980Y-62266130D01*
X117946566Y-62336149D01*
X117946159Y-62400956D01*
X117945760Y-62460187D01*
X117945373Y-62513479D01*
X117944998Y-62560469D01*
X117944638Y-62600794D01*
X117944294Y-62634089D01*
X117943969Y-62659993D01*
X117943665Y-62678141D01*
X117943551Y-62683621D01*
X117942678Y-62724996D01*
X117941898Y-62759225D01*
X117941153Y-62787173D01*
X117940384Y-62809709D01*
X117939533Y-62827698D01*
X117938540Y-62842008D01*
X117937347Y-62853505D01*
X117935895Y-62863056D01*
X117934126Y-62871528D01*
X117931981Y-62879787D01*
X117929401Y-62888701D01*
X117920937Y-62913869D01*
X117908928Y-62941187D01*
X117895868Y-62963048D01*
X117882453Y-62978125D01*
X117875625Y-62983156D01*
X117862301Y-62991432D01*
X117847778Y-62999219D01*
X117837012Y-63004157D01*
X117827061Y-63007489D01*
X117816106Y-63009334D01*
X117801779Y-63010086D01*
X117781708Y-63010134D01*
X117753393Y-63008713D01*
X117709472Y-63002703D01*
X117663692Y-62992467D01*
X117618673Y-62978514D01*
X117617930Y-62978249D01*
X117600376Y-62972039D01*
X117583236Y-62966072D01*
X117570121Y-62961605D01*
X117564714Y-62959791D01*
X117553158Y-62955828D01*
X117545765Y-62953173D01*
X117542795Y-62952036D01*
X117537646Y-62950124D01*
X117536031Y-62949512D01*
X117529527Y-62946835D01*
X117526842Y-62945858D01*
X117516716Y-62942362D01*
X117499576Y-62936524D01*
X117475827Y-62928481D01*
X117445876Y-62918370D01*
X117410128Y-62906326D01*
X117368990Y-62892487D01*
X117322868Y-62876987D01*
X117272168Y-62859965D01*
X117217295Y-62841556D01*
X117158656Y-62821896D01*
X117096657Y-62801123D01*
X117031705Y-62779371D01*
X116964204Y-62756779D01*
X116894561Y-62733481D01*
X116823182Y-62709615D01*
X116818197Y-62707948D01*
X116776399Y-62693921D01*
X116737012Y-62680619D01*
X116700699Y-62668270D01*
X116668122Y-62657103D01*
X116639941Y-62647347D01*
X116616820Y-62639231D01*
X116599419Y-62632984D01*
X116588401Y-62628835D01*
X116584427Y-62627013D01*
X116583140Y-62625765D01*
X116577323Y-62626030D01*
X116574432Y-62626560D01*
X116571496Y-62623900D01*
X116570623Y-62621989D01*
X116565407Y-62621870D01*
X116562270Y-62622427D01*
X116559317Y-62619713D01*
X116559168Y-62618348D01*
X116556273Y-62615700D01*
X116550184Y-62615192D01*
X116549812Y-62615074D01*
X116543080Y-62613189D01*
X116542412Y-62613016D01*
X116536990Y-62611160D01*
X116531916Y-62609287D01*
X116529921Y-62608620D01*
X116522782Y-62605723D01*
X116521726Y-62605314D01*
X116513964Y-62602583D01*
X116499671Y-62597687D01*
X116479697Y-62590913D01*
X116454894Y-62582549D01*
X116426112Y-62572881D01*
X116394203Y-62562197D01*
X116360018Y-62550785D01*
X116203344Y-62498553D01*
X116200685Y-62583927D01*
X116200355Y-62597808D01*
X116199996Y-62620344D01*
X116199649Y-62649743D01*
X116199317Y-62685344D01*
X116199004Y-62726487D01*
X116198713Y-62772512D01*
X116198449Y-62822757D01*
X116198216Y-62876562D01*
X116198016Y-62933267D01*
X116197855Y-62992210D01*
X116197735Y-63052732D01*
X116197660Y-63114172D01*
X116197564Y-63198156D01*
X116197360Y-63301671D01*
X116197065Y-63397374D01*
X116196676Y-63485439D01*
X116196192Y-63566038D01*
X116195609Y-63639346D01*
X116194924Y-63705536D01*
X116194134Y-63764783D01*
X116193238Y-63817260D01*
X116192233Y-63863141D01*
X116191114Y-63902600D01*
X116189881Y-63935810D01*
X116188530Y-63962945D01*
X116187059Y-63984180D01*
X116185464Y-63999687D01*
X116183744Y-64009641D01*
X116174466Y-64039849D01*
X116157807Y-64075185D01*
X116136530Y-64104662D01*
X116111006Y-64127792D01*
X116081605Y-64144088D01*
X116074008Y-64146751D01*
X116050721Y-64151665D01*
X116023926Y-64153882D01*
X115996646Y-64153250D01*
X115971903Y-64149616D01*
X115969755Y-64148994D01*
X115959872Y-64145528D01*
X115943771Y-64139499D01*
X115922311Y-64131253D01*
X115896354Y-64121136D01*
X115866762Y-64109493D01*
X115834394Y-64096670D01*
X115800112Y-64083013D01*
X115764776Y-64068869D01*
X115729248Y-64054582D01*
X115694389Y-64040499D01*
X115661059Y-64026966D01*
X115630119Y-64014328D01*
X115602431Y-64002931D01*
X115578855Y-63993122D01*
X115560252Y-63985245D01*
X115547483Y-63979648D01*
X115541410Y-63976675D01*
X115535157Y-63973429D01*
X115532276Y-63973510D01*
X115531541Y-63974256D01*
X115527201Y-63971935D01*
X115522826Y-63969443D01*
X115512121Y-63964446D01*
X115497094Y-63957965D01*
X115479503Y-63950781D01*
X115466282Y-63945464D01*
X115446086Y-63937152D01*
X115427920Y-63929472D01*
X115414552Y-63923581D01*
X115405446Y-63919583D01*
X115389245Y-63912764D01*
X115368660Y-63904294D01*
X115345403Y-63894873D01*
X115321184Y-63885207D01*
X115313127Y-63882000D01*
X115262341Y-63860846D01*
X115218896Y-63840919D01*
X115182245Y-63821920D01*
X115151843Y-63803546D01*
X115127146Y-63785498D01*
X115107607Y-63767474D01*
X115083259Y-63739860D01*
X115058619Y-63705701D01*
X115040026Y-63670994D01*
X115026510Y-63634142D01*
X115026288Y-63633380D01*
X115025373Y-63629986D01*
X115024537Y-63626198D01*
X115023777Y-63621664D01*
X115023090Y-63616034D01*
X115022473Y-63608956D01*
X115021924Y-63600079D01*
X115021441Y-63589053D01*
X115021019Y-63575525D01*
X115020657Y-63559145D01*
X115020352Y-63539561D01*
X115020102Y-63516424D01*
X115019903Y-63489380D01*
X115019752Y-63458080D01*
X115019648Y-63422173D01*
X115019587Y-63381306D01*
X115019566Y-63335129D01*
X115019584Y-63283292D01*
X115019637Y-63225442D01*
X115019722Y-63161228D01*
X115019837Y-63090301D01*
X115019980Y-63012308D01*
X115020146Y-62926898D01*
X115020335Y-62833720D01*
X115021915Y-62059685D01*
X114778797Y-61979635D01*
X114769932Y-61976715D01*
X114727652Y-61962749D01*
X114687752Y-61949508D01*
X114650898Y-61937217D01*
X114617758Y-61926101D01*
X114588998Y-61916386D01*
X114565286Y-61908296D01*
X114547289Y-61902056D01*
X114535673Y-61897892D01*
X114531106Y-61896029D01*
X114530496Y-61897729D01*
X114529912Y-61904064D01*
X114529360Y-61915275D01*
X114528837Y-61931592D01*
X114528341Y-61953248D01*
X114527870Y-61980474D01*
X114527422Y-62013501D01*
X114526994Y-62052562D01*
X114526583Y-62097889D01*
X114526189Y-62149712D01*
X114525807Y-62208264D01*
X114525437Y-62273776D01*
X114525075Y-62346481D01*
X114524720Y-62426609D01*
X114524369Y-62514392D01*
X114524020Y-62610063D01*
X114523816Y-62666202D01*
X114523494Y-62748505D01*
X114523142Y-62831524D01*
X114522765Y-62914578D01*
X114522367Y-62996988D01*
X114521950Y-63078074D01*
X114521521Y-63157158D01*
X114521081Y-63233559D01*
X114520636Y-63306597D01*
X114520189Y-63375594D01*
X114519744Y-63439870D01*
X114519306Y-63498746D01*
X114518877Y-63551541D01*
X114518462Y-63597576D01*
X114518065Y-63636172D01*
X114517898Y-63651268D01*
X114517260Y-63708717D01*
X114516675Y-63758797D01*
X114516091Y-63802109D01*
X114515459Y-63839257D01*
X114514728Y-63870844D01*
X114513848Y-63897472D01*
X114512769Y-63919743D01*
X114511442Y-63938260D01*
X114509815Y-63953627D01*
X114507838Y-63966444D01*
X114505463Y-63977316D01*
X114502638Y-63986845D01*
X114499313Y-63995632D01*
X114495438Y-64004282D01*
X114490964Y-64013396D01*
X114485839Y-64023578D01*
X114474888Y-64042708D01*
X114457497Y-64066720D01*
X114437878Y-64088485D01*
X114417691Y-64106205D01*
X114398595Y-64118083D01*
X114392677Y-64120761D01*
X114371442Y-64128955D01*
X114350652Y-64134273D01*
X114329195Y-64136632D01*
X114305958Y-64135948D01*
X114279827Y-64132136D01*
X114249691Y-64125115D01*
X114214437Y-64114798D01*
X114172952Y-64101104D01*
X114162649Y-64097581D01*
X114140251Y-64089948D01*
X114111559Y-64080193D01*
X114077434Y-64068608D01*
X114038742Y-64055487D01*
X113996346Y-64041121D01*
X113951111Y-64025804D01*
X113903900Y-64009829D01*
X113855578Y-63993488D01*
X113807008Y-63977074D01*
X113764288Y-63962636D01*
X113720263Y-63947740D01*
X113678980Y-63933756D01*
X113641060Y-63920894D01*
X113607120Y-63909365D01*
X113577780Y-63899379D01*
X113553658Y-63891146D01*
X113535372Y-63884877D01*
X113523542Y-63880783D01*
X113518787Y-63879073D01*
X113515741Y-63877750D01*
X113510668Y-63875690D01*
X113510572Y-63875656D01*
X113505458Y-63873672D01*
X113496460Y-63870058D01*
X113487486Y-63866463D01*
X113473330Y-63860856D01*
X113457895Y-63854789D01*
X113438918Y-63846842D01*
X113400242Y-63826900D01*
X113363355Y-63802253D01*
X113326839Y-63771891D01*
X113289274Y-63734804D01*
X113282192Y-63727193D01*
X113262616Y-63704114D01*
X113247467Y-63681950D01*
X113234994Y-63657889D01*
X113223449Y-63629124D01*
X113222696Y-63627054D01*
X113219990Y-63619371D01*
X113217815Y-63612179D01*
X113216103Y-63604523D01*
X113214788Y-63595446D01*
X113213804Y-63583990D01*
X113213084Y-63569200D01*
X113212561Y-63550118D01*
X113212169Y-63525788D01*
X113211842Y-63495253D01*
X113211512Y-63457556D01*
X113211467Y-63447071D01*
X113211451Y-63428009D01*
X113211470Y-63401257D01*
X113211523Y-63367041D01*
X113211609Y-63325585D01*
X113211728Y-63277114D01*
X113211878Y-63221852D01*
X113212060Y-63160025D01*
X113212271Y-63091858D01*
X113212511Y-63017574D01*
X113212779Y-62937399D01*
X113213075Y-62851557D01*
X113213397Y-62760273D01*
X113213745Y-62663772D01*
X113214118Y-62562279D01*
X113214515Y-62456017D01*
X113214935Y-62345214D01*
X113215378Y-62230091D01*
X113215842Y-62110876D01*
X113216327Y-61987791D01*
X113216832Y-61861063D01*
X113217356Y-61730916D01*
X113217898Y-61597573D01*
X113218458Y-61461262D01*
X113219034Y-61322205D01*
X113219626Y-61180628D01*
X113220233Y-61036755D01*
X113220347Y-61009937D01*
X116218398Y-61009937D01*
X116464972Y-61087567D01*
X116711547Y-61165198D01*
X116714378Y-61026560D01*
X116714542Y-61017800D01*
X116714925Y-60992145D01*
X116715313Y-60959366D01*
X116715700Y-60920154D01*
X116716082Y-60875204D01*
X116716455Y-60825208D01*
X116716815Y-60770858D01*
X116717156Y-60712849D01*
X116717475Y-60651872D01*
X116717767Y-60588620D01*
X116718028Y-60523787D01*
X116718253Y-60458066D01*
X116718437Y-60392148D01*
X116719666Y-59896374D01*
X116638477Y-59871108D01*
X116632723Y-59869313D01*
X116607924Y-59861494D01*
X116585388Y-59854257D01*
X116566491Y-59848053D01*
X116552607Y-59843330D01*
X116545109Y-59840540D01*
X116536362Y-59837143D01*
X116521451Y-59831848D01*
X116501478Y-59825019D01*
X116477424Y-59816972D01*
X116450271Y-59808021D01*
X116421003Y-59798480D01*
X116390601Y-59788664D01*
X116360048Y-59778886D01*
X116330326Y-59769461D01*
X116302417Y-59760704D01*
X116277304Y-59752928D01*
X116255968Y-59746449D01*
X116239393Y-59741580D01*
X116228559Y-59738636D01*
X116224451Y-59737930D01*
X116224390Y-59739146D01*
X116224253Y-59747420D01*
X116224090Y-59763146D01*
X116223904Y-59785886D01*
X116223695Y-59815207D01*
X116223468Y-59850672D01*
X116223224Y-59891847D01*
X116222965Y-59938295D01*
X116222695Y-59989581D01*
X116222415Y-60045270D01*
X116222127Y-60104927D01*
X116221835Y-60168115D01*
X116221541Y-60234400D01*
X116221246Y-60303346D01*
X116220954Y-60374517D01*
X116218398Y-61009937D01*
X113220347Y-61009937D01*
X113220854Y-60890812D01*
X113221488Y-60743022D01*
X113222135Y-60593611D01*
X113223183Y-60352432D01*
X114533650Y-60352432D01*
X114650360Y-60389367D01*
X114650690Y-60389472D01*
X114686269Y-60400738D01*
X114727179Y-60413704D01*
X114771039Y-60427613D01*
X114815469Y-60441711D01*
X114858087Y-60455243D01*
X114896513Y-60467452D01*
X114918828Y-60474524D01*
X114947906Y-60483667D01*
X114973776Y-60491719D01*
X114995534Y-60498402D01*
X115012275Y-60503440D01*
X115023094Y-60506554D01*
X115027086Y-60507468D01*
X115027153Y-60506455D01*
X115027314Y-60498551D01*
X115027506Y-60483178D01*
X115027727Y-60460772D01*
X115027972Y-60431770D01*
X115028239Y-60396609D01*
X115028526Y-60355726D01*
X115028830Y-60309558D01*
X115029147Y-60258541D01*
X115029475Y-60203112D01*
X115029812Y-60143709D01*
X115030153Y-60080769D01*
X115030497Y-60014727D01*
X115030841Y-59946021D01*
X115031181Y-59875088D01*
X115034148Y-59243843D01*
X114991946Y-59230263D01*
X114991854Y-59230234D01*
X114979386Y-59226205D01*
X114960170Y-59219975D01*
X114935165Y-59211856D01*
X114905332Y-59202159D01*
X114871630Y-59191198D01*
X114835021Y-59179283D01*
X114796464Y-59166728D01*
X114756920Y-59153845D01*
X114729698Y-59144974D01*
X114689164Y-59131764D01*
X114655366Y-59120750D01*
X114627683Y-59111732D01*
X114605496Y-59104510D01*
X114588185Y-59098885D01*
X114575131Y-59094655D01*
X114565713Y-59091621D01*
X114559312Y-59089582D01*
X114555307Y-59088339D01*
X114553080Y-59087691D01*
X114552009Y-59087439D01*
X114551476Y-59087382D01*
X114550860Y-59087320D01*
X114549441Y-59086892D01*
X114543453Y-59083208D01*
X114542899Y-59085134D01*
X114542180Y-59094494D01*
X114541463Y-59111200D01*
X114540752Y-59134817D01*
X114540051Y-59164907D01*
X114539365Y-59201034D01*
X114538697Y-59242764D01*
X114538053Y-59289658D01*
X114537436Y-59341281D01*
X114536850Y-59397197D01*
X114536300Y-59456970D01*
X114535790Y-59520164D01*
X114535324Y-59586341D01*
X114534907Y-59655067D01*
X114534542Y-59725905D01*
X114534233Y-59798419D01*
X114533986Y-59872172D01*
X114533804Y-59946729D01*
X114533692Y-60021652D01*
X114533653Y-60096507D01*
X114533650Y-60352432D01*
X113223183Y-60352432D01*
X113233963Y-57871748D01*
X113244101Y-57822957D01*
X113252701Y-57787407D01*
X113273393Y-57726032D01*
X113300584Y-57667431D01*
X113333703Y-57612498D01*
X113372183Y-57562129D01*
X113415452Y-57517220D01*
X113462943Y-57478666D01*
X113507381Y-57449967D01*
X113560069Y-57422061D01*
X113614032Y-57399378D01*
X113666957Y-57383004D01*
X113670178Y-57382222D01*
X113692853Y-57377478D01*
X113719573Y-57372870D01*
X113747943Y-57368725D01*
X113775570Y-57365369D01*
X113800059Y-57363126D01*
X113819018Y-57362323D01*
X113839954Y-57363126D01*
G37*
%TD*%
M02*
