%TF.GenerationSoftware,KiCad,Pcbnew,7.0.7*%
%TF.CreationDate,2023-09-17T10:26:07+01:00*%
%TF.ProjectId,TRSG3JPMod,54525347-334a-4504-9d6f-642e6b696361,rev?*%
%TF.SameCoordinates,Original*%
%TF.FileFunction,Legend,Top*%
%TF.FilePolarity,Positive*%
%FSLAX46Y46*%
G04 Gerber Fmt 4.6, Leading zero omitted, Abs format (unit mm)*
G04 Created by KiCad (PCBNEW 7.0.7) date 2023-09-17 10:26:07*
%MOMM*%
%LPD*%
G01*
G04 APERTURE LIST*
%ADD10C,0.200000*%
%ADD11C,0.100000*%
%ADD12C,0.150000*%
%ADD13C,0.120000*%
G04 APERTURE END LIST*
D10*
X110520863Y-80424885D02*
X110406578Y-80367742D01*
X110406578Y-80367742D02*
X110235149Y-80367742D01*
X110235149Y-80367742D02*
X110063720Y-80424885D01*
X110063720Y-80424885D02*
X109949435Y-80539171D01*
X109949435Y-80539171D02*
X109892292Y-80653457D01*
X109892292Y-80653457D02*
X109835149Y-80882028D01*
X109835149Y-80882028D02*
X109835149Y-81053457D01*
X109835149Y-81053457D02*
X109892292Y-81282028D01*
X109892292Y-81282028D02*
X109949435Y-81396314D01*
X109949435Y-81396314D02*
X110063720Y-81510600D01*
X110063720Y-81510600D02*
X110235149Y-81567742D01*
X110235149Y-81567742D02*
X110349435Y-81567742D01*
X110349435Y-81567742D02*
X110520863Y-81510600D01*
X110520863Y-81510600D02*
X110578006Y-81453457D01*
X110578006Y-81453457D02*
X110578006Y-81053457D01*
X110578006Y-81053457D02*
X110349435Y-81053457D01*
X110978006Y-80367742D02*
X111720863Y-80367742D01*
X111720863Y-80367742D02*
X111320863Y-80824885D01*
X111320863Y-80824885D02*
X111492292Y-80824885D01*
X111492292Y-80824885D02*
X111606578Y-80882028D01*
X111606578Y-80882028D02*
X111663720Y-80939171D01*
X111663720Y-80939171D02*
X111720863Y-81053457D01*
X111720863Y-81053457D02*
X111720863Y-81339171D01*
X111720863Y-81339171D02*
X111663720Y-81453457D01*
X111663720Y-81453457D02*
X111606578Y-81510600D01*
X111606578Y-81510600D02*
X111492292Y-81567742D01*
X111492292Y-81567742D02*
X111149435Y-81567742D01*
X111149435Y-81567742D02*
X111035149Y-81510600D01*
X111035149Y-81510600D02*
X110978006Y-81453457D01*
X112578006Y-80367742D02*
X112578006Y-81224885D01*
X112578006Y-81224885D02*
X112520863Y-81396314D01*
X112520863Y-81396314D02*
X112406577Y-81510600D01*
X112406577Y-81510600D02*
X112235149Y-81567742D01*
X112235149Y-81567742D02*
X112120863Y-81567742D01*
X113149435Y-81567742D02*
X113149435Y-80367742D01*
X113149435Y-80367742D02*
X113606578Y-80367742D01*
X113606578Y-80367742D02*
X113720863Y-80424885D01*
X113720863Y-80424885D02*
X113778006Y-80482028D01*
X113778006Y-80482028D02*
X113835149Y-80596314D01*
X113835149Y-80596314D02*
X113835149Y-80767742D01*
X113835149Y-80767742D02*
X113778006Y-80882028D01*
X113778006Y-80882028D02*
X113720863Y-80939171D01*
X113720863Y-80939171D02*
X113606578Y-80996314D01*
X113606578Y-80996314D02*
X113149435Y-80996314D01*
X114349435Y-81567742D02*
X114349435Y-80367742D01*
X114349435Y-80367742D02*
X114749435Y-81224885D01*
X114749435Y-81224885D02*
X115149435Y-80367742D01*
X115149435Y-80367742D02*
X115149435Y-81567742D01*
X115949435Y-80367742D02*
X116178007Y-80367742D01*
X116178007Y-80367742D02*
X116292292Y-80424885D01*
X116292292Y-80424885D02*
X116406578Y-80539171D01*
X116406578Y-80539171D02*
X116463721Y-80767742D01*
X116463721Y-80767742D02*
X116463721Y-81167742D01*
X116463721Y-81167742D02*
X116406578Y-81396314D01*
X116406578Y-81396314D02*
X116292292Y-81510600D01*
X116292292Y-81510600D02*
X116178007Y-81567742D01*
X116178007Y-81567742D02*
X115949435Y-81567742D01*
X115949435Y-81567742D02*
X115835150Y-81510600D01*
X115835150Y-81510600D02*
X115720864Y-81396314D01*
X115720864Y-81396314D02*
X115663721Y-81167742D01*
X115663721Y-81167742D02*
X115663721Y-80767742D01*
X115663721Y-80767742D02*
X115720864Y-80539171D01*
X115720864Y-80539171D02*
X115835150Y-80424885D01*
X115835150Y-80424885D02*
X115949435Y-80367742D01*
X116978007Y-81567742D02*
X116978007Y-80367742D01*
X116978007Y-80367742D02*
X117263721Y-80367742D01*
X117263721Y-80367742D02*
X117435150Y-80424885D01*
X117435150Y-80424885D02*
X117549435Y-80539171D01*
X117549435Y-80539171D02*
X117606578Y-80653457D01*
X117606578Y-80653457D02*
X117663721Y-80882028D01*
X117663721Y-80882028D02*
X117663721Y-81053457D01*
X117663721Y-81053457D02*
X117606578Y-81282028D01*
X117606578Y-81282028D02*
X117549435Y-81396314D01*
X117549435Y-81396314D02*
X117435150Y-81510600D01*
X117435150Y-81510600D02*
X117263721Y-81567742D01*
X117263721Y-81567742D02*
X116978007Y-81567742D01*
X118063721Y-80767742D02*
X118349435Y-81567742D01*
X118349435Y-81567742D02*
X118635150Y-80767742D01*
X119720864Y-81567742D02*
X119035150Y-81567742D01*
X119378007Y-81567742D02*
X119378007Y-80367742D01*
X119378007Y-80367742D02*
X119263721Y-80539171D01*
X119263721Y-80539171D02*
X119149436Y-80653457D01*
X119149436Y-80653457D02*
X119035150Y-80710600D01*
X120235150Y-81453457D02*
X120292293Y-81510600D01*
X120292293Y-81510600D02*
X120235150Y-81567742D01*
X120235150Y-81567742D02*
X120178007Y-81510600D01*
X120178007Y-81510600D02*
X120235150Y-81453457D01*
X120235150Y-81453457D02*
X120235150Y-81567742D01*
X121435150Y-81567742D02*
X120749436Y-81567742D01*
X121092293Y-81567742D02*
X121092293Y-80367742D01*
X121092293Y-80367742D02*
X120978007Y-80539171D01*
X120978007Y-80539171D02*
X120863722Y-80653457D01*
X120863722Y-80653457D02*
X120749436Y-80710600D01*
D11*
X111385713Y-82185657D02*
X111357142Y-82157085D01*
X111357142Y-82157085D02*
X111299999Y-82128514D01*
X111299999Y-82128514D02*
X111242856Y-82128514D01*
X111242856Y-82128514D02*
X111185713Y-82157085D01*
X111185713Y-82157085D02*
X111157142Y-82185657D01*
X111157142Y-82185657D02*
X111128570Y-82242800D01*
X111128570Y-82242800D02*
X111128570Y-82299942D01*
X111128570Y-82299942D02*
X111157142Y-82357085D01*
X111157142Y-82357085D02*
X111185713Y-82385657D01*
X111185713Y-82385657D02*
X111242856Y-82414228D01*
X111242856Y-82414228D02*
X111299999Y-82414228D01*
X111299999Y-82414228D02*
X111357142Y-82385657D01*
X111357142Y-82385657D02*
X111385713Y-82357085D01*
X111385713Y-82128514D02*
X111385713Y-82357085D01*
X111385713Y-82357085D02*
X111414285Y-82385657D01*
X111414285Y-82385657D02*
X111442856Y-82385657D01*
X111442856Y-82385657D02*
X111499999Y-82357085D01*
X111499999Y-82357085D02*
X111528570Y-82299942D01*
X111528570Y-82299942D02*
X111528570Y-82157085D01*
X111528570Y-82157085D02*
X111471428Y-82071371D01*
X111471428Y-82071371D02*
X111385713Y-82014228D01*
X111385713Y-82014228D02*
X111271428Y-81985657D01*
X111271428Y-81985657D02*
X111157142Y-82014228D01*
X111157142Y-82014228D02*
X111071428Y-82071371D01*
X111071428Y-82071371D02*
X111014285Y-82157085D01*
X111014285Y-82157085D02*
X110985713Y-82271371D01*
X110985713Y-82271371D02*
X111014285Y-82385657D01*
X111014285Y-82385657D02*
X111071428Y-82471371D01*
X111071428Y-82471371D02*
X111157142Y-82528514D01*
X111157142Y-82528514D02*
X111271428Y-82557085D01*
X111271428Y-82557085D02*
X111385713Y-82528514D01*
X111385713Y-82528514D02*
X111471428Y-82471371D01*
X112042857Y-82071371D02*
X112042857Y-82557085D01*
X112042857Y-82557085D02*
X112014285Y-82614228D01*
X112014285Y-82614228D02*
X111985714Y-82642800D01*
X111985714Y-82642800D02*
X111928571Y-82671371D01*
X111928571Y-82671371D02*
X111842857Y-82671371D01*
X111842857Y-82671371D02*
X111785714Y-82642800D01*
X112042857Y-82442800D02*
X111985714Y-82471371D01*
X111985714Y-82471371D02*
X111871428Y-82471371D01*
X111871428Y-82471371D02*
X111814285Y-82442800D01*
X111814285Y-82442800D02*
X111785714Y-82414228D01*
X111785714Y-82414228D02*
X111757142Y-82357085D01*
X111757142Y-82357085D02*
X111757142Y-82185657D01*
X111757142Y-82185657D02*
X111785714Y-82128514D01*
X111785714Y-82128514D02*
X111814285Y-82099942D01*
X111814285Y-82099942D02*
X111871428Y-82071371D01*
X111871428Y-82071371D02*
X111985714Y-82071371D01*
X111985714Y-82071371D02*
X112042857Y-82099942D01*
X112328571Y-82471371D02*
X112328571Y-82071371D01*
X112328571Y-82185657D02*
X112357142Y-82128514D01*
X112357142Y-82128514D02*
X112385714Y-82099942D01*
X112385714Y-82099942D02*
X112442856Y-82071371D01*
X112442856Y-82071371D02*
X112499999Y-82071371D01*
X112957143Y-82471371D02*
X112957143Y-82157085D01*
X112957143Y-82157085D02*
X112928571Y-82099942D01*
X112928571Y-82099942D02*
X112871428Y-82071371D01*
X112871428Y-82071371D02*
X112757143Y-82071371D01*
X112757143Y-82071371D02*
X112700000Y-82099942D01*
X112957143Y-82442800D02*
X112900000Y-82471371D01*
X112900000Y-82471371D02*
X112757143Y-82471371D01*
X112757143Y-82471371D02*
X112700000Y-82442800D01*
X112700000Y-82442800D02*
X112671428Y-82385657D01*
X112671428Y-82385657D02*
X112671428Y-82328514D01*
X112671428Y-82328514D02*
X112700000Y-82271371D01*
X112700000Y-82271371D02*
X112757143Y-82242800D01*
X112757143Y-82242800D02*
X112900000Y-82242800D01*
X112900000Y-82242800D02*
X112957143Y-82214228D01*
X113242857Y-82071371D02*
X113242857Y-82471371D01*
X113242857Y-82128514D02*
X113271428Y-82099942D01*
X113271428Y-82099942D02*
X113328571Y-82071371D01*
X113328571Y-82071371D02*
X113414285Y-82071371D01*
X113414285Y-82071371D02*
X113471428Y-82099942D01*
X113471428Y-82099942D02*
X113500000Y-82157085D01*
X113500000Y-82157085D02*
X113500000Y-82471371D01*
X114042857Y-82471371D02*
X114042857Y-81871371D01*
X114042857Y-82442800D02*
X113985714Y-82471371D01*
X113985714Y-82471371D02*
X113871428Y-82471371D01*
X113871428Y-82471371D02*
X113814285Y-82442800D01*
X113814285Y-82442800D02*
X113785714Y-82414228D01*
X113785714Y-82414228D02*
X113757142Y-82357085D01*
X113757142Y-82357085D02*
X113757142Y-82185657D01*
X113757142Y-82185657D02*
X113785714Y-82128514D01*
X113785714Y-82128514D02*
X113814285Y-82099942D01*
X113814285Y-82099942D02*
X113871428Y-82071371D01*
X113871428Y-82071371D02*
X113985714Y-82071371D01*
X113985714Y-82071371D02*
X114042857Y-82099942D01*
X114414285Y-82471371D02*
X114357142Y-82442800D01*
X114357142Y-82442800D02*
X114328571Y-82414228D01*
X114328571Y-82414228D02*
X114299999Y-82357085D01*
X114299999Y-82357085D02*
X114299999Y-82185657D01*
X114299999Y-82185657D02*
X114328571Y-82128514D01*
X114328571Y-82128514D02*
X114357142Y-82099942D01*
X114357142Y-82099942D02*
X114414285Y-82071371D01*
X114414285Y-82071371D02*
X114499999Y-82071371D01*
X114499999Y-82071371D02*
X114557142Y-82099942D01*
X114557142Y-82099942D02*
X114585714Y-82128514D01*
X114585714Y-82128514D02*
X114614285Y-82185657D01*
X114614285Y-82185657D02*
X114614285Y-82357085D01*
X114614285Y-82357085D02*
X114585714Y-82414228D01*
X114585714Y-82414228D02*
X114557142Y-82442800D01*
X114557142Y-82442800D02*
X114499999Y-82471371D01*
X114499999Y-82471371D02*
X114414285Y-82471371D01*
X114957142Y-82471371D02*
X114899999Y-82442800D01*
X114899999Y-82442800D02*
X114871428Y-82385657D01*
X114871428Y-82385657D02*
X114871428Y-81871371D01*
X115442857Y-82471371D02*
X115442857Y-81871371D01*
X115442857Y-82442800D02*
X115385714Y-82471371D01*
X115385714Y-82471371D02*
X115271428Y-82471371D01*
X115271428Y-82471371D02*
X115214285Y-82442800D01*
X115214285Y-82442800D02*
X115185714Y-82414228D01*
X115185714Y-82414228D02*
X115157142Y-82357085D01*
X115157142Y-82357085D02*
X115157142Y-82185657D01*
X115157142Y-82185657D02*
X115185714Y-82128514D01*
X115185714Y-82128514D02*
X115214285Y-82099942D01*
X115214285Y-82099942D02*
X115271428Y-82071371D01*
X115271428Y-82071371D02*
X115385714Y-82071371D01*
X115385714Y-82071371D02*
X115442857Y-82099942D01*
X115728571Y-82471371D02*
X115728571Y-82071371D01*
X115728571Y-81871371D02*
X115699999Y-81899942D01*
X115699999Y-81899942D02*
X115728571Y-81928514D01*
X115728571Y-81928514D02*
X115757142Y-81899942D01*
X115757142Y-81899942D02*
X115728571Y-81871371D01*
X115728571Y-81871371D02*
X115728571Y-81928514D01*
X116271428Y-82471371D02*
X116271428Y-82157085D01*
X116271428Y-82157085D02*
X116242856Y-82099942D01*
X116242856Y-82099942D02*
X116185713Y-82071371D01*
X116185713Y-82071371D02*
X116071428Y-82071371D01*
X116071428Y-82071371D02*
X116014285Y-82099942D01*
X116271428Y-82442800D02*
X116214285Y-82471371D01*
X116214285Y-82471371D02*
X116071428Y-82471371D01*
X116071428Y-82471371D02*
X116014285Y-82442800D01*
X116014285Y-82442800D02*
X115985713Y-82385657D01*
X115985713Y-82385657D02*
X115985713Y-82328514D01*
X115985713Y-82328514D02*
X116014285Y-82271371D01*
X116014285Y-82271371D02*
X116071428Y-82242800D01*
X116071428Y-82242800D02*
X116214285Y-82242800D01*
X116214285Y-82242800D02*
X116271428Y-82214228D01*
X116557142Y-82071371D02*
X116557142Y-82471371D01*
X116557142Y-82128514D02*
X116585713Y-82099942D01*
X116585713Y-82099942D02*
X116642856Y-82071371D01*
X116642856Y-82071371D02*
X116728570Y-82071371D01*
X116728570Y-82071371D02*
X116785713Y-82099942D01*
X116785713Y-82099942D02*
X116814285Y-82157085D01*
X116814285Y-82157085D02*
X116814285Y-82471371D01*
X117671427Y-81871371D02*
X117728570Y-81871371D01*
X117728570Y-81871371D02*
X117785713Y-81899942D01*
X117785713Y-81899942D02*
X117814285Y-81928514D01*
X117814285Y-81928514D02*
X117842856Y-81985657D01*
X117842856Y-81985657D02*
X117871427Y-82099942D01*
X117871427Y-82099942D02*
X117871427Y-82242800D01*
X117871427Y-82242800D02*
X117842856Y-82357085D01*
X117842856Y-82357085D02*
X117814285Y-82414228D01*
X117814285Y-82414228D02*
X117785713Y-82442800D01*
X117785713Y-82442800D02*
X117728570Y-82471371D01*
X117728570Y-82471371D02*
X117671427Y-82471371D01*
X117671427Y-82471371D02*
X117614285Y-82442800D01*
X117614285Y-82442800D02*
X117585713Y-82414228D01*
X117585713Y-82414228D02*
X117557142Y-82357085D01*
X117557142Y-82357085D02*
X117528570Y-82242800D01*
X117528570Y-82242800D02*
X117528570Y-82099942D01*
X117528570Y-82099942D02*
X117557142Y-81985657D01*
X117557142Y-81985657D02*
X117585713Y-81928514D01*
X117585713Y-81928514D02*
X117614285Y-81899942D01*
X117614285Y-81899942D02*
X117671427Y-81871371D01*
X118157142Y-82471371D02*
X118271428Y-82471371D01*
X118271428Y-82471371D02*
X118328571Y-82442800D01*
X118328571Y-82442800D02*
X118357142Y-82414228D01*
X118357142Y-82414228D02*
X118414285Y-82328514D01*
X118414285Y-82328514D02*
X118442856Y-82214228D01*
X118442856Y-82214228D02*
X118442856Y-81985657D01*
X118442856Y-81985657D02*
X118414285Y-81928514D01*
X118414285Y-81928514D02*
X118385714Y-81899942D01*
X118385714Y-81899942D02*
X118328571Y-81871371D01*
X118328571Y-81871371D02*
X118214285Y-81871371D01*
X118214285Y-81871371D02*
X118157142Y-81899942D01*
X118157142Y-81899942D02*
X118128571Y-81928514D01*
X118128571Y-81928514D02*
X118099999Y-81985657D01*
X118099999Y-81985657D02*
X118099999Y-82128514D01*
X118099999Y-82128514D02*
X118128571Y-82185657D01*
X118128571Y-82185657D02*
X118157142Y-82214228D01*
X118157142Y-82214228D02*
X118214285Y-82242800D01*
X118214285Y-82242800D02*
X118328571Y-82242800D01*
X118328571Y-82242800D02*
X118385714Y-82214228D01*
X118385714Y-82214228D02*
X118414285Y-82185657D01*
X118414285Y-82185657D02*
X118442856Y-82128514D01*
X119128571Y-81842800D02*
X118614285Y-82614228D01*
X119299999Y-81928514D02*
X119328571Y-81899942D01*
X119328571Y-81899942D02*
X119385714Y-81871371D01*
X119385714Y-81871371D02*
X119528571Y-81871371D01*
X119528571Y-81871371D02*
X119585714Y-81899942D01*
X119585714Y-81899942D02*
X119614285Y-81928514D01*
X119614285Y-81928514D02*
X119642856Y-81985657D01*
X119642856Y-81985657D02*
X119642856Y-82042800D01*
X119642856Y-82042800D02*
X119614285Y-82128514D01*
X119614285Y-82128514D02*
X119271428Y-82471371D01*
X119271428Y-82471371D02*
X119642856Y-82471371D01*
X119842857Y-81871371D02*
X120214285Y-81871371D01*
X120214285Y-81871371D02*
X120014285Y-82099942D01*
X120014285Y-82099942D02*
X120100000Y-82099942D01*
X120100000Y-82099942D02*
X120157143Y-82128514D01*
X120157143Y-82128514D02*
X120185714Y-82157085D01*
X120185714Y-82157085D02*
X120214285Y-82214228D01*
X120214285Y-82214228D02*
X120214285Y-82357085D01*
X120214285Y-82357085D02*
X120185714Y-82414228D01*
X120185714Y-82414228D02*
X120157143Y-82442800D01*
X120157143Y-82442800D02*
X120100000Y-82471371D01*
X120100000Y-82471371D02*
X119928571Y-82471371D01*
X119928571Y-82471371D02*
X119871428Y-82442800D01*
X119871428Y-82442800D02*
X119842857Y-82414228D01*
D12*
X116059580Y-68795476D02*
X116107200Y-68843095D01*
X116107200Y-68843095D02*
X116154819Y-68985952D01*
X116154819Y-68985952D02*
X116154819Y-69081190D01*
X116154819Y-69081190D02*
X116107200Y-69224047D01*
X116107200Y-69224047D02*
X116011961Y-69319285D01*
X116011961Y-69319285D02*
X115916723Y-69366904D01*
X115916723Y-69366904D02*
X115726247Y-69414523D01*
X115726247Y-69414523D02*
X115583390Y-69414523D01*
X115583390Y-69414523D02*
X115392914Y-69366904D01*
X115392914Y-69366904D02*
X115297676Y-69319285D01*
X115297676Y-69319285D02*
X115202438Y-69224047D01*
X115202438Y-69224047D02*
X115154819Y-69081190D01*
X115154819Y-69081190D02*
X115154819Y-68985952D01*
X115154819Y-68985952D02*
X115202438Y-68843095D01*
X115202438Y-68843095D02*
X115250057Y-68795476D01*
X115202438Y-67843095D02*
X115154819Y-67938333D01*
X115154819Y-67938333D02*
X115154819Y-68081190D01*
X115154819Y-68081190D02*
X115202438Y-68224047D01*
X115202438Y-68224047D02*
X115297676Y-68319285D01*
X115297676Y-68319285D02*
X115392914Y-68366904D01*
X115392914Y-68366904D02*
X115583390Y-68414523D01*
X115583390Y-68414523D02*
X115726247Y-68414523D01*
X115726247Y-68414523D02*
X115916723Y-68366904D01*
X115916723Y-68366904D02*
X116011961Y-68319285D01*
X116011961Y-68319285D02*
X116107200Y-68224047D01*
X116107200Y-68224047D02*
X116154819Y-68081190D01*
X116154819Y-68081190D02*
X116154819Y-67985952D01*
X116154819Y-67985952D02*
X116107200Y-67843095D01*
X116107200Y-67843095D02*
X116059580Y-67795476D01*
X116059580Y-67795476D02*
X115726247Y-67795476D01*
X115726247Y-67795476D02*
X115726247Y-67985952D01*
X115631009Y-67033571D02*
X115678628Y-66890714D01*
X115678628Y-66890714D02*
X115726247Y-66843095D01*
X115726247Y-66843095D02*
X115821485Y-66795476D01*
X115821485Y-66795476D02*
X115964342Y-66795476D01*
X115964342Y-66795476D02*
X116059580Y-66843095D01*
X116059580Y-66843095D02*
X116107200Y-66890714D01*
X116107200Y-66890714D02*
X116154819Y-66985952D01*
X116154819Y-66985952D02*
X116154819Y-67366904D01*
X116154819Y-67366904D02*
X115154819Y-67366904D01*
X115154819Y-67366904D02*
X115154819Y-67033571D01*
X115154819Y-67033571D02*
X115202438Y-66938333D01*
X115202438Y-66938333D02*
X115250057Y-66890714D01*
X115250057Y-66890714D02*
X115345295Y-66843095D01*
X115345295Y-66843095D02*
X115440533Y-66843095D01*
X115440533Y-66843095D02*
X115535771Y-66890714D01*
X115535771Y-66890714D02*
X115583390Y-66938333D01*
X115583390Y-66938333D02*
X115631009Y-67033571D01*
X115631009Y-67033571D02*
X115631009Y-67366904D01*
D13*
%TO.C,J2*%
X112995000Y-85955000D02*
X112995000Y-84625000D01*
X114325000Y-85955000D02*
X112995000Y-85955000D01*
X115595000Y-85955000D02*
X118195000Y-85955000D01*
X115595000Y-85955000D02*
X115595000Y-83295000D01*
X118195000Y-85955000D02*
X118195000Y-83295000D01*
X115595000Y-83295000D02*
X118195000Y-83295000D01*
%TO.C,U1*%
X109135000Y-55395000D02*
X109135000Y-85995000D01*
X109135000Y-85995000D02*
X122055000Y-85995000D01*
X114595000Y-55395000D02*
X109135000Y-55395000D01*
X122055000Y-55395000D02*
X116595000Y-55395000D01*
X122055000Y-85995000D02*
X122055000Y-55395000D01*
X114595000Y-55395000D02*
G75*
G03*
X116595000Y-55395000I1000000J0D01*
G01*
%TD*%
M02*
