M48
; DRILL file {KiCad 7.0.7} date Sun Sep 17 10:26:03 2023
; FORMAT={-:-/ absolute / inch / decimal}
; #@! TF.CreationDate,2023-09-17T10:26:03+01:00
; #@! TF.GenerationSoftware,Kicad,Pcbnew,7.0.7
; #@! TF.FileFunction,Plated,1,2,PTH
FMAT,2
INCH
; #@! TA.AperFunction,Plated,PTH,ViaDrill
T1C0.0157
; #@! TA.AperFunction,Plated,PTH,ComponentDrill
T2C0.0315
; #@! TA.AperFunction,Plated,PTH,ComponentDrill
T3C0.0394
%
G90
G05
T1
X4.4459Y-3.1407
X4.4537Y-2.25
X4.5029Y-2.9518
X4.5089Y-3.0531
X4.5335Y-3.002
X4.561Y-3.1024
X4.6634Y-2.3524
X4.8098Y-2.5807
T2
X4.251Y-2.2333
X4.251Y-2.3333
X4.251Y-2.4333
X4.251Y-2.5333
X4.251Y-2.6333
X4.251Y-2.7333
X4.251Y-2.8333
X4.251Y-2.9333
X4.251Y-3.0333
X4.251Y-3.1333
X4.251Y-3.2333
X4.251Y-3.3333
X4.4016Y-2.3026
X4.4016Y-2.4026
X4.4016Y-2.5026
X4.4016Y-2.6026
X4.4016Y-2.7026
X4.4016Y-2.8026
X4.4016Y-2.9026
X4.4016Y-3.0026
X4.4016Y-3.1026
X4.7016Y-2.3026
X4.7016Y-2.4026
X4.7016Y-2.5026
X4.7016Y-2.6026
X4.7016Y-2.7026
X4.7016Y-2.8026
X4.7016Y-2.9026
X4.7016Y-3.0026
X4.7016Y-3.1026
X4.851Y-2.2333
X4.851Y-2.3333
X4.851Y-2.4333
X4.851Y-2.5333
X4.851Y-2.6333
X4.851Y-2.7333
X4.851Y-2.8333
X4.851Y-2.9333
X4.851Y-3.0333
X4.851Y-3.1333
X4.851Y-3.2333
X4.851Y-3.3333
T3
X4.501Y-3.3317
X4.601Y-3.3317
T0
M30
