%TF.GenerationSoftware,KiCad,Pcbnew,7.0.7*%
%TF.CreationDate,2023-09-17T10:26:07+01:00*%
%TF.ProjectId,TRSG3JPMod,54525347-334a-4504-9d6f-642e6b696361,rev?*%
%TF.SameCoordinates,Original*%
%TF.FileFunction,Copper,L1,Top*%
%TF.FilePolarity,Positive*%
%FSLAX46Y46*%
G04 Gerber Fmt 4.6, Leading zero omitted, Abs format (unit mm)*
G04 Created by KiCad (PCBNEW 7.0.7) date 2023-09-17 10:26:07*
%MOMM*%
%LPD*%
G01*
G04 APERTURE LIST*
%TA.AperFunction,ComponentPad*%
%ADD10R,1.600000X1.600000*%
%TD*%
%TA.AperFunction,ComponentPad*%
%ADD11O,1.600000X1.600000*%
%TD*%
%TA.AperFunction,ComponentPad*%
%ADD12R,1.700000X1.700000*%
%TD*%
%TA.AperFunction,ComponentPad*%
%ADD13O,1.700000X1.700000*%
%TD*%
%TA.AperFunction,ViaPad*%
%ADD14C,0.800000*%
%TD*%
%TA.AperFunction,Conductor*%
%ADD15C,0.250000*%
%TD*%
%TA.AperFunction,Conductor*%
%ADD16C,0.381000*%
%TD*%
G04 APERTURE END LIST*
D10*
%TO.P,J1,1,Pin_1*%
%TO.N,/I6*%
X111800000Y-58485000D03*
D11*
%TO.P,J1,2,Pin_2*%
%TO.N,/I5*%
X111800000Y-61025000D03*
%TO.P,J1,3,Pin_3*%
%TO.N,/I4*%
X111800000Y-63565000D03*
%TO.P,J1,4,Pin_4*%
%TO.N,/I3*%
X111800000Y-66105000D03*
%TO.P,J1,5,Pin_5*%
%TO.N,/I2*%
X111800000Y-68645000D03*
%TO.P,J1,6,Pin_6*%
%TO.N,/I1*%
X111800000Y-71185000D03*
%TO.P,J1,7,Pin_7*%
%TO.N,/I0*%
X111800000Y-73725000D03*
%TO.P,J1,8,Pin_8*%
%TO.N,RS3*%
X111800000Y-76265000D03*
%TO.P,J1,9,Pin_9*%
%TO.N,GND*%
X111800000Y-78805000D03*
%TO.P,J1,10,Pin_10*%
%TO.N,RS2*%
X119420000Y-78805000D03*
%TO.P,J1,11,Pin_11*%
%TO.N,RS1*%
X119420000Y-76265000D03*
%TO.P,J1,12,Pin_12*%
%TO.N,/O0*%
X119420000Y-73725000D03*
%TO.P,J1,13,Pin_13*%
%TO.N,/O1*%
X119420000Y-71185000D03*
%TO.P,J1,14,Pin_14*%
%TO.N,/O2*%
X119420000Y-68645000D03*
%TO.P,J1,15,Pin_15*%
%TO.N,/O3*%
X119420000Y-66105000D03*
%TO.P,J1,16,Pin_16*%
%TO.N,/O4*%
X119420000Y-63565000D03*
%TO.P,J1,17,Pin_17*%
%TO.N,CSA*%
X119420000Y-61025000D03*
%TO.P,J1,18,Pin_18*%
%TO.N,+5V*%
X119420000Y-58485000D03*
%TD*%
D12*
%TO.P,J2,1,Pin_1*%
%TO.N,Z12p11*%
X114325000Y-84625000D03*
D13*
%TO.P,J2,2,Pin_2*%
%TO.N,Z10p14*%
X116865000Y-84625000D03*
%TD*%
D10*
%TO.P,U1,1,A7*%
%TO.N,/I3*%
X107975000Y-56725000D03*
D11*
%TO.P,U1,2,A6*%
%TO.N,/I2*%
X107975000Y-59265000D03*
%TO.P,U1,3,A5*%
%TO.N,/I1*%
X107975000Y-61805000D03*
%TO.P,U1,4,A4*%
%TO.N,/I0*%
X107975000Y-64345000D03*
%TO.P,U1,5,A3*%
%TO.N,Z12p11*%
X107975000Y-66885000D03*
%TO.P,U1,6,A2*%
%TO.N,RS3*%
X107975000Y-69425000D03*
%TO.P,U1,7,A1*%
%TO.N,RS2*%
X107975000Y-71965000D03*
%TO.P,U1,8,A0*%
%TO.N,RS1*%
X107975000Y-74505000D03*
%TO.P,U1,9,D0*%
%TO.N,/O0*%
X107975000Y-77045000D03*
%TO.P,U1,10,D1*%
%TO.N,/O1*%
X107975000Y-79585000D03*
%TO.P,U1,11,D2*%
%TO.N,/O2*%
X107975000Y-82125000D03*
%TO.P,U1,12,GND*%
%TO.N,GND*%
X107975000Y-84665000D03*
%TO.P,U1,13,D3*%
%TO.N,/O3*%
X123215000Y-84665000D03*
%TO.P,U1,14,D4*%
%TO.N,/O4*%
X123215000Y-82125000D03*
%TO.P,U1,15,D5*%
%TO.N,Z10p14*%
X123215000Y-79585000D03*
%TO.P,U1,16,D6*%
%TO.N,unconnected-(U1-D6-Pad16)*%
X123215000Y-77045000D03*
%TO.P,U1,17,D7*%
%TO.N,unconnected-(U1-D7-Pad17)*%
X123215000Y-74505000D03*
%TO.P,U1,18,A11*%
%TO.N,CSA*%
X123215000Y-71965000D03*
%TO.P,U1,19,A10*%
%TO.N,/I6*%
X123215000Y-69425000D03*
%TO.P,U1,20,~{OE}*%
%TO.N,GND*%
X123215000Y-66885000D03*
%TO.P,U1,21,VPP*%
%TO.N,+5V*%
X123215000Y-64345000D03*
%TO.P,U1,22,A9*%
%TO.N,/I5*%
X123215000Y-61805000D03*
%TO.P,U1,23,A8*%
%TO.N,/I4*%
X123215000Y-59265000D03*
%TO.P,U1,24,VCC*%
%TO.N,+5V*%
X123215000Y-56725000D03*
%TD*%
D14*
%TO.N,/I6*%
X122169500Y-65550000D03*
%TO.N,RS2*%
X115850000Y-78800000D03*
%TO.N,/I5*%
X113125000Y-57150000D03*
%TO.N,RS1*%
X115150000Y-76250000D03*
%TO.N,/I4*%
X118450000Y-59750000D03*
%TO.N,/O0*%
X114374000Y-74975000D03*
%TO.N,/O1*%
X114525000Y-77550000D03*
%TO.N,/O2*%
X112925000Y-79775000D03*
%TD*%
D15*
%TO.N,/I6*%
X121895000Y-69236370D02*
X121895000Y-65824500D01*
X121895000Y-65824500D02*
X122169500Y-65550000D01*
X122083630Y-69425000D02*
X121895000Y-69236370D01*
X123215000Y-69425000D02*
X122083630Y-69425000D01*
%TO.N,RS2*%
X112761396Y-69900000D02*
X112786396Y-69925000D01*
X112786396Y-69925000D02*
X114800000Y-69925000D01*
X115875000Y-78775000D02*
X115850000Y-78800000D01*
X110040000Y-69900000D02*
X112761396Y-69900000D01*
X114800000Y-69925000D02*
X115875000Y-71000000D01*
X115875000Y-71000000D02*
X115875000Y-78775000D01*
X107975000Y-71965000D02*
X110040000Y-69900000D01*
%TO.N,/I5*%
X113125000Y-57150000D02*
X113125000Y-59410000D01*
X112050000Y-59925000D02*
X111800000Y-60175000D01*
X113125000Y-59410000D02*
X112610000Y-59925000D01*
X112610000Y-59925000D02*
X112050000Y-59925000D01*
X111800000Y-60175000D02*
X111800000Y-61025000D01*
%TO.N,RS1*%
X115150000Y-72925000D02*
X115150000Y-76250000D01*
X107975000Y-74505000D02*
X110005000Y-72475000D01*
X114700000Y-72475000D02*
X115150000Y-72925000D01*
X110005000Y-72475000D02*
X114700000Y-72475000D01*
%TO.N,/I4*%
X117560000Y-63565000D02*
X111800000Y-63565000D01*
X118450000Y-59750000D02*
X117900000Y-60300000D01*
X117900000Y-63225000D02*
X117560000Y-63565000D01*
X117900000Y-60300000D02*
X117900000Y-63225000D01*
%TO.N,/O0*%
X107975000Y-77045000D02*
X110045000Y-74975000D01*
X110045000Y-74975000D02*
X114374000Y-74975000D01*
%TO.N,/I3*%
X109100000Y-57050000D02*
X108775000Y-56725000D01*
X108775000Y-56725000D02*
X107975000Y-56725000D01*
X109100000Y-65650000D02*
X109100000Y-57050000D01*
X111800000Y-66105000D02*
X109555000Y-66105000D01*
X109555000Y-66105000D02*
X109100000Y-65650000D01*
%TO.N,/O1*%
X114525000Y-77550000D02*
X114500000Y-77575000D01*
X114500000Y-77575000D02*
X109975000Y-77575000D01*
X109975000Y-77575000D02*
X107975000Y-79575000D01*
X107975000Y-79575000D02*
X107975000Y-79585000D01*
%TO.N,/O2*%
X112925000Y-81800000D02*
X112600000Y-82125000D01*
X112600000Y-82125000D02*
X107975000Y-82125000D01*
X112925000Y-79775000D02*
X112925000Y-81800000D01*
%TO.N,/O3*%
X120545000Y-84020000D02*
X121190000Y-84665000D01*
X120545000Y-66220000D02*
X120545000Y-84020000D01*
X120430000Y-66105000D02*
X120545000Y-66220000D01*
X119420000Y-66105000D02*
X120430000Y-66105000D01*
X121190000Y-84665000D02*
X123215000Y-84665000D01*
%TO.N,/O4*%
X123215000Y-82125000D02*
X121400000Y-82125000D01*
X121400000Y-82125000D02*
X120995000Y-81720000D01*
X120995000Y-63870000D02*
X120690000Y-63565000D01*
X120995000Y-81720000D02*
X120995000Y-63870000D01*
X120690000Y-63565000D02*
X119420000Y-63565000D01*
%TO.N,CSA*%
X121445000Y-61795000D02*
X120675000Y-61025000D01*
X121935000Y-71965000D02*
X121445000Y-71475000D01*
X121445000Y-71475000D02*
X121445000Y-61795000D01*
X123215000Y-71965000D02*
X121935000Y-71965000D01*
X120675000Y-61025000D02*
X119420000Y-61025000D01*
D16*
%TO.N,+5V*%
X122082500Y-58450000D02*
X122082500Y-57857500D01*
D15*
X122082500Y-58450000D02*
X122082500Y-63212500D01*
D16*
X122047500Y-58485000D02*
X119420000Y-58485000D01*
X122082500Y-58450000D02*
X122047500Y-58485000D01*
D15*
X122082500Y-63212500D02*
X123215000Y-64345000D01*
D16*
X122082500Y-57857500D02*
X123215000Y-56725000D01*
D15*
%TO.N,Z12p11*%
X114325000Y-81475000D02*
X114325000Y-84625000D01*
X116575000Y-79225000D02*
X114325000Y-81475000D01*
X116575000Y-68175000D02*
X116575000Y-79225000D01*
X108885000Y-66910000D02*
X109450000Y-67475000D01*
X108885000Y-66885000D02*
X108885000Y-66910000D01*
X115875000Y-67475000D02*
X116575000Y-68175000D01*
X109450000Y-67475000D02*
X115875000Y-67475000D01*
X107975000Y-66885000D02*
X108885000Y-66885000D01*
%TD*%
%TA.AperFunction,Conductor*%
%TO.N,+5V*%
G36*
X124217539Y-55195185D02*
G01*
X124263294Y-55247989D01*
X124274500Y-55299500D01*
X124274500Y-55646660D01*
X124254815Y-55713699D01*
X124202011Y-55759454D01*
X124132853Y-55769398D01*
X124069297Y-55740373D01*
X124062819Y-55734341D01*
X124053820Y-55725342D01*
X123867482Y-55594865D01*
X123661328Y-55498734D01*
X123464999Y-55446127D01*
X123464999Y-56214424D01*
X123445314Y-56281463D01*
X123392510Y-56327218D01*
X123323352Y-56337162D01*
X123321601Y-56336897D01*
X123246486Y-56325000D01*
X123246481Y-56325000D01*
X123183519Y-56325000D01*
X123183514Y-56325000D01*
X123108398Y-56336897D01*
X123039104Y-56327942D01*
X122985652Y-56282946D01*
X122965013Y-56216194D01*
X122965000Y-56214424D01*
X122965000Y-55446127D01*
X122768671Y-55498734D01*
X122562517Y-55594865D01*
X122376179Y-55725342D01*
X122215342Y-55886179D01*
X122084865Y-56072517D01*
X121988734Y-56278673D01*
X121988730Y-56278682D01*
X121936127Y-56474999D01*
X121936128Y-56475000D01*
X122704424Y-56475000D01*
X122771463Y-56494685D01*
X122817218Y-56547489D01*
X122827162Y-56616647D01*
X122826897Y-56618397D01*
X122810014Y-56724996D01*
X122810014Y-56725003D01*
X122826897Y-56831603D01*
X122817942Y-56900896D01*
X122772946Y-56954348D01*
X122706194Y-56974987D01*
X122704424Y-56975000D01*
X121936128Y-56975000D01*
X121988730Y-57171317D01*
X121988734Y-57171326D01*
X122084865Y-57377482D01*
X122215342Y-57563820D01*
X122376179Y-57724657D01*
X122562517Y-57855133D01*
X122611399Y-57877927D01*
X122663839Y-57924099D01*
X122682992Y-57991292D01*
X122662777Y-58058174D01*
X122611402Y-58102691D01*
X122558256Y-58127474D01*
X122558252Y-58127476D01*
X122515575Y-58157359D01*
X122370700Y-58258802D01*
X122370698Y-58258803D01*
X122370695Y-58258806D01*
X122208806Y-58420695D01*
X122208803Y-58420698D01*
X122208802Y-58420700D01*
X122155501Y-58496822D01*
X122077476Y-58608252D01*
X122077475Y-58608254D01*
X121980718Y-58815750D01*
X121980714Y-58815761D01*
X121921457Y-59036910D01*
X121921456Y-59036918D01*
X121901502Y-59264998D01*
X121901502Y-59265001D01*
X121921456Y-59493081D01*
X121921457Y-59493089D01*
X121980714Y-59714238D01*
X121980718Y-59714249D01*
X122060720Y-59885814D01*
X122077477Y-59921749D01*
X122208802Y-60109300D01*
X122370700Y-60271198D01*
X122541042Y-60390473D01*
X122558251Y-60402523D01*
X122601345Y-60422618D01*
X122653784Y-60468791D01*
X122672936Y-60535984D01*
X122652720Y-60602865D01*
X122601345Y-60647382D01*
X122558251Y-60667476D01*
X122433126Y-60755090D01*
X122370700Y-60798802D01*
X122370698Y-60798803D01*
X122370695Y-60798806D01*
X122208806Y-60960695D01*
X122077478Y-61148249D01*
X122030416Y-61249173D01*
X121984243Y-61301612D01*
X121917049Y-61320763D01*
X121850168Y-61300547D01*
X121830353Y-61284448D01*
X121182088Y-60636183D01*
X121172187Y-60623823D01*
X121171977Y-60623998D01*
X121167002Y-60617986D01*
X121167000Y-60617982D01*
X121137649Y-60590420D01*
X121115922Y-60570016D01*
X121094768Y-60548863D01*
X121092792Y-60547331D01*
X121089183Y-60544531D01*
X121084750Y-60540744D01*
X121080361Y-60536623D01*
X121050321Y-60508414D01*
X121050319Y-60508412D01*
X121032431Y-60498578D01*
X121016170Y-60487897D01*
X121000039Y-60475384D01*
X120956693Y-60456627D01*
X120951445Y-60454056D01*
X120924251Y-60439106D01*
X120910060Y-60431305D01*
X120903194Y-60429542D01*
X120890287Y-60426228D01*
X120871881Y-60419926D01*
X120853144Y-60411818D01*
X120853146Y-60411818D01*
X120806496Y-60404430D01*
X120800781Y-60403246D01*
X120780612Y-60398068D01*
X120755032Y-60391500D01*
X120755030Y-60391500D01*
X120734616Y-60391500D01*
X120715217Y-60389973D01*
X120695058Y-60386780D01*
X120695057Y-60386780D01*
X120648034Y-60391225D01*
X120642196Y-60391500D01*
X120638352Y-60391500D01*
X120571313Y-60371815D01*
X120536779Y-60338626D01*
X120426198Y-60180700D01*
X120264300Y-60018802D01*
X120076749Y-59887477D01*
X120023596Y-59862691D01*
X119971158Y-59816519D01*
X119952007Y-59749325D01*
X119972223Y-59682444D01*
X120023600Y-59637927D01*
X120072483Y-59615133D01*
X120258820Y-59484657D01*
X120419657Y-59323820D01*
X120550134Y-59137482D01*
X120646265Y-58931326D01*
X120646269Y-58931317D01*
X120698872Y-58735000D01*
X119930576Y-58735000D01*
X119863537Y-58715315D01*
X119817782Y-58662511D01*
X119807838Y-58593353D01*
X119808103Y-58591603D01*
X119824986Y-58485003D01*
X119824986Y-58484996D01*
X119808103Y-58378397D01*
X119817058Y-58309104D01*
X119862054Y-58255652D01*
X119928806Y-58235013D01*
X119930576Y-58235000D01*
X120698872Y-58235000D01*
X120698872Y-58234999D01*
X120646269Y-58038682D01*
X120646265Y-58038673D01*
X120550134Y-57832517D01*
X120419657Y-57646179D01*
X120258820Y-57485342D01*
X120072482Y-57354865D01*
X119866328Y-57258734D01*
X119670000Y-57206127D01*
X119670000Y-57974424D01*
X119650315Y-58041463D01*
X119597511Y-58087218D01*
X119528353Y-58097162D01*
X119526602Y-58096897D01*
X119451486Y-58085000D01*
X119451481Y-58085000D01*
X119388519Y-58085000D01*
X119388514Y-58085000D01*
X119313398Y-58096897D01*
X119244104Y-58087942D01*
X119190652Y-58042946D01*
X119170013Y-57976194D01*
X119170000Y-57974424D01*
X119169999Y-57206127D01*
X118973671Y-57258734D01*
X118767517Y-57354865D01*
X118581179Y-57485342D01*
X118420342Y-57646179D01*
X118289865Y-57832517D01*
X118193734Y-58038673D01*
X118193730Y-58038682D01*
X118141127Y-58234999D01*
X118141128Y-58235000D01*
X118909424Y-58235000D01*
X118976463Y-58254685D01*
X119022218Y-58307489D01*
X119032162Y-58376647D01*
X119031897Y-58378397D01*
X119015014Y-58484996D01*
X119015014Y-58485003D01*
X119031897Y-58591603D01*
X119022942Y-58660896D01*
X118977946Y-58714348D01*
X118911194Y-58734987D01*
X118909424Y-58735000D01*
X118141128Y-58735000D01*
X118151551Y-58773899D01*
X118149888Y-58843749D01*
X118110726Y-58901612D01*
X118082212Y-58919272D01*
X117993248Y-58958881D01*
X117838745Y-59071135D01*
X117710959Y-59213057D01*
X117615473Y-59378443D01*
X117615470Y-59378450D01*
X117563431Y-59538610D01*
X117556458Y-59560072D01*
X117551540Y-59606867D01*
X117539252Y-59723772D01*
X117512667Y-59788386D01*
X117494986Y-59806341D01*
X117492986Y-59807995D01*
X117445016Y-59859078D01*
X117423872Y-59880222D01*
X117423857Y-59880239D01*
X117419531Y-59885814D01*
X117415747Y-59890244D01*
X117383419Y-59924671D01*
X117383412Y-59924681D01*
X117373579Y-59942567D01*
X117362903Y-59958820D01*
X117350386Y-59974957D01*
X117350385Y-59974959D01*
X117331625Y-60018310D01*
X117329055Y-60023556D01*
X117306303Y-60064941D01*
X117306303Y-60064942D01*
X117301225Y-60084720D01*
X117294925Y-60103122D01*
X117286818Y-60121857D01*
X117279431Y-60168495D01*
X117278246Y-60174216D01*
X117266500Y-60219965D01*
X117266500Y-60240384D01*
X117264973Y-60259783D01*
X117261780Y-60279941D01*
X117261780Y-60279942D01*
X117266225Y-60326966D01*
X117266500Y-60332804D01*
X117266500Y-62807500D01*
X117246815Y-62874539D01*
X117194011Y-62920294D01*
X117142500Y-62931500D01*
X113018352Y-62931500D01*
X112951313Y-62911815D01*
X112916779Y-62878626D01*
X112806198Y-62720700D01*
X112644300Y-62558802D01*
X112456749Y-62427477D01*
X112413655Y-62407382D01*
X112361215Y-62361210D01*
X112342063Y-62294017D01*
X112362278Y-62227136D01*
X112413655Y-62182618D01*
X112416882Y-62181112D01*
X112456749Y-62162523D01*
X112644300Y-62031198D01*
X112806198Y-61869300D01*
X112937523Y-61681749D01*
X113034284Y-61474243D01*
X113093543Y-61253087D01*
X113113498Y-61025000D01*
X113093543Y-60796913D01*
X113034284Y-60575757D01*
X113034281Y-60575750D01*
X113016036Y-60536623D01*
X113005544Y-60467546D01*
X113034064Y-60403762D01*
X113043533Y-60393828D01*
X113047102Y-60390475D01*
X113047107Y-60390472D01*
X113077222Y-60354067D01*
X113081126Y-60349776D01*
X113513817Y-59917086D01*
X113526181Y-59907182D01*
X113526007Y-59906972D01*
X113532011Y-59902003D01*
X113532018Y-59902000D01*
X113579984Y-59850920D01*
X113601135Y-59829770D01*
X113605461Y-59824192D01*
X113609250Y-59819755D01*
X113641586Y-59785321D01*
X113651419Y-59767432D01*
X113662102Y-59751169D01*
X113674614Y-59735041D01*
X113693371Y-59691691D01*
X113695941Y-59686447D01*
X113718693Y-59645064D01*
X113718693Y-59645063D01*
X113718695Y-59645060D01*
X113723774Y-59625273D01*
X113730070Y-59606885D01*
X113738181Y-59588145D01*
X113745569Y-59541497D01*
X113746751Y-59535786D01*
X113758500Y-59490030D01*
X113758500Y-59469615D01*
X113760027Y-59450214D01*
X113763220Y-59430057D01*
X113758775Y-59383033D01*
X113758500Y-59377195D01*
X113758500Y-58660896D01*
X113758500Y-57851752D01*
X113778184Y-57784717D01*
X113790339Y-57768796D01*
X113864040Y-57686944D01*
X113959527Y-57521556D01*
X114018542Y-57339928D01*
X114038504Y-57150000D01*
X114018542Y-56960072D01*
X113959527Y-56778444D01*
X113864040Y-56613056D01*
X113736253Y-56471134D01*
X113581752Y-56358882D01*
X113407288Y-56281206D01*
X113407286Y-56281205D01*
X113220487Y-56241500D01*
X113029513Y-56241500D01*
X112842714Y-56281205D01*
X112842711Y-56281206D01*
X112842712Y-56281206D01*
X112711029Y-56339835D01*
X112668246Y-56358883D01*
X112513745Y-56471135D01*
X112385959Y-56613057D01*
X112290473Y-56778443D01*
X112290470Y-56778450D01*
X112241062Y-56930514D01*
X112231458Y-56960072D01*
X112220381Y-57065463D01*
X112193798Y-57130076D01*
X112136500Y-57170061D01*
X112097061Y-57176500D01*
X110951345Y-57176500D01*
X110890797Y-57183011D01*
X110890795Y-57183011D01*
X110753795Y-57234111D01*
X110636739Y-57321739D01*
X110549111Y-57438795D01*
X110498011Y-57575795D01*
X110498011Y-57575797D01*
X110491500Y-57636345D01*
X110491500Y-59333654D01*
X110498011Y-59394202D01*
X110498011Y-59394204D01*
X110549110Y-59531203D01*
X110549111Y-59531204D01*
X110636739Y-59648261D01*
X110753796Y-59735889D01*
X110853110Y-59772931D01*
X110890793Y-59786987D01*
X110890799Y-59786989D01*
X110905499Y-59788569D01*
X110970048Y-59815305D01*
X111009897Y-59872696D01*
X111012393Y-59942521D01*
X110976742Y-60002611D01*
X110963377Y-60013425D01*
X110956403Y-60018310D01*
X110955696Y-60018805D01*
X110793806Y-60180695D01*
X110793803Y-60180698D01*
X110793802Y-60180700D01*
X110724313Y-60279941D01*
X110662476Y-60368252D01*
X110662475Y-60368254D01*
X110565718Y-60575750D01*
X110565714Y-60575761D01*
X110506457Y-60796910D01*
X110506456Y-60796918D01*
X110486502Y-61024998D01*
X110486502Y-61025001D01*
X110506456Y-61253081D01*
X110506457Y-61253089D01*
X110565714Y-61474238D01*
X110565718Y-61474249D01*
X110613591Y-61576913D01*
X110662477Y-61681749D01*
X110793802Y-61869300D01*
X110955700Y-62031198D01*
X111143251Y-62162523D01*
X111186345Y-62182618D01*
X111238783Y-62228788D01*
X111257936Y-62295981D01*
X111237721Y-62362863D01*
X111186347Y-62407380D01*
X111143252Y-62427476D01*
X111072856Y-62476767D01*
X110955700Y-62558802D01*
X110955698Y-62558803D01*
X110955695Y-62558806D01*
X110793806Y-62720695D01*
X110793803Y-62720698D01*
X110793802Y-62720700D01*
X110725421Y-62818358D01*
X110662476Y-62908252D01*
X110662475Y-62908254D01*
X110565718Y-63115750D01*
X110565714Y-63115761D01*
X110506457Y-63336910D01*
X110506456Y-63336918D01*
X110486502Y-63564998D01*
X110486502Y-63565001D01*
X110506456Y-63793081D01*
X110506457Y-63793089D01*
X110565714Y-64014238D01*
X110565718Y-64014249D01*
X110661592Y-64219852D01*
X110662477Y-64221749D01*
X110793802Y-64409300D01*
X110955700Y-64571198D01*
X111143251Y-64702523D01*
X111186345Y-64722618D01*
X111238783Y-64768788D01*
X111257936Y-64835981D01*
X111237721Y-64902863D01*
X111186347Y-64947380D01*
X111143252Y-64967476D01*
X111143249Y-64967477D01*
X111143251Y-64967477D01*
X110955700Y-65098802D01*
X110955698Y-65098803D01*
X110955695Y-65098806D01*
X110793806Y-65260695D01*
X110793803Y-65260698D01*
X110793802Y-65260700D01*
X110683220Y-65418625D01*
X110628646Y-65462249D01*
X110581648Y-65471500D01*
X109868767Y-65471500D01*
X109801728Y-65451815D01*
X109781086Y-65435181D01*
X109769819Y-65423914D01*
X109736334Y-65362591D01*
X109733500Y-65336233D01*
X109733500Y-57133626D01*
X109735238Y-57117881D01*
X109734967Y-57117856D01*
X109735701Y-57110093D01*
X109733500Y-57040059D01*
X109733500Y-57010150D01*
X109733500Y-57010144D01*
X109732615Y-57003140D01*
X109732156Y-56997311D01*
X109730673Y-56950109D01*
X109724979Y-56930514D01*
X109721032Y-56911457D01*
X109718474Y-56891203D01*
X109701088Y-56847291D01*
X109699196Y-56841764D01*
X109693775Y-56823107D01*
X109686018Y-56796406D01*
X109675625Y-56778833D01*
X109667063Y-56761355D01*
X109659552Y-56742383D01*
X109659550Y-56742380D01*
X109659549Y-56742378D01*
X109631794Y-56704177D01*
X109628586Y-56699293D01*
X109620633Y-56685847D01*
X109604542Y-56658637D01*
X109590108Y-56644202D01*
X109577469Y-56629406D01*
X109565471Y-56612892D01*
X109529084Y-56582790D01*
X109524762Y-56578857D01*
X109319819Y-56373913D01*
X109286334Y-56312590D01*
X109283500Y-56286232D01*
X109283500Y-55876362D01*
X109283499Y-55876345D01*
X109280157Y-55845270D01*
X109276989Y-55815799D01*
X109225889Y-55678796D01*
X109138261Y-55561739D01*
X109021204Y-55474111D01*
X108884203Y-55423011D01*
X108882137Y-55422789D01*
X108880643Y-55422170D01*
X108876659Y-55421229D01*
X108876811Y-55420583D01*
X108817586Y-55396051D01*
X108777738Y-55338658D01*
X108775245Y-55268833D01*
X108810898Y-55208744D01*
X108873377Y-55177470D01*
X108895393Y-55175500D01*
X124150500Y-55175500D01*
X124217539Y-55195185D01*
G37*
%TD.AperFunction*%
%TA.AperFunction,Conductor*%
G36*
X122283701Y-62724645D02*
G01*
X122290179Y-62730677D01*
X122370700Y-62811198D01*
X122542116Y-62931225D01*
X122558251Y-62942523D01*
X122611401Y-62967307D01*
X122663840Y-63013479D01*
X122682992Y-63080673D01*
X122662776Y-63147554D01*
X122611401Y-63192071D01*
X122562517Y-63214865D01*
X122376179Y-63345342D01*
X122290180Y-63431342D01*
X122228857Y-63464827D01*
X122159165Y-63459843D01*
X122103232Y-63417971D01*
X122078815Y-63352507D01*
X122078499Y-63343661D01*
X122078499Y-63098543D01*
X122078499Y-62818354D01*
X122098182Y-62751319D01*
X122150986Y-62705564D01*
X122220145Y-62695620D01*
X122283701Y-62724645D01*
G37*
%TD.AperFunction*%
%TD*%
M02*
