%TF.GenerationSoftware,KiCad,Pcbnew,7.0.6*%
%TF.CreationDate,2023-09-03T23:35:14+01:00*%
%TF.ProjectId,TRSG3JPMod,54525347-334a-4504-9d6f-642e6b696361,rev?*%
%TF.SameCoordinates,Original*%
%TF.FileFunction,Legend,Top*%
%TF.FilePolarity,Positive*%
%FSLAX46Y46*%
G04 Gerber Fmt 4.6, Leading zero omitted, Abs format (unit mm)*
G04 Created by KiCad (PCBNEW 7.0.6) date 2023-09-03 23:35:14*
%MOMM*%
%LPD*%
G01*
G04 APERTURE LIST*
%ADD10C,0.100000*%
%ADD11C,0.200000*%
%ADD12C,0.150000*%
%ADD13C,0.120000*%
G04 APERTURE END LIST*
D10*
X111385713Y-82185657D02*
X111357142Y-82157085D01*
X111357142Y-82157085D02*
X111299999Y-82128514D01*
X111299999Y-82128514D02*
X111242856Y-82128514D01*
X111242856Y-82128514D02*
X111185713Y-82157085D01*
X111185713Y-82157085D02*
X111157142Y-82185657D01*
X111157142Y-82185657D02*
X111128570Y-82242800D01*
X111128570Y-82242800D02*
X111128570Y-82299942D01*
X111128570Y-82299942D02*
X111157142Y-82357085D01*
X111157142Y-82357085D02*
X111185713Y-82385657D01*
X111185713Y-82385657D02*
X111242856Y-82414228D01*
X111242856Y-82414228D02*
X111299999Y-82414228D01*
X111299999Y-82414228D02*
X111357142Y-82385657D01*
X111357142Y-82385657D02*
X111385713Y-82357085D01*
X111385713Y-82128514D02*
X111385713Y-82357085D01*
X111385713Y-82357085D02*
X111414285Y-82385657D01*
X111414285Y-82385657D02*
X111442856Y-82385657D01*
X111442856Y-82385657D02*
X111499999Y-82357085D01*
X111499999Y-82357085D02*
X111528570Y-82299942D01*
X111528570Y-82299942D02*
X111528570Y-82157085D01*
X111528570Y-82157085D02*
X111471428Y-82071371D01*
X111471428Y-82071371D02*
X111385713Y-82014228D01*
X111385713Y-82014228D02*
X111271428Y-81985657D01*
X111271428Y-81985657D02*
X111157142Y-82014228D01*
X111157142Y-82014228D02*
X111071428Y-82071371D01*
X111071428Y-82071371D02*
X111014285Y-82157085D01*
X111014285Y-82157085D02*
X110985713Y-82271371D01*
X110985713Y-82271371D02*
X111014285Y-82385657D01*
X111014285Y-82385657D02*
X111071428Y-82471371D01*
X111071428Y-82471371D02*
X111157142Y-82528514D01*
X111157142Y-82528514D02*
X111271428Y-82557085D01*
X111271428Y-82557085D02*
X111385713Y-82528514D01*
X111385713Y-82528514D02*
X111471428Y-82471371D01*
X112042857Y-82071371D02*
X112042857Y-82557085D01*
X112042857Y-82557085D02*
X112014285Y-82614228D01*
X112014285Y-82614228D02*
X111985714Y-82642800D01*
X111985714Y-82642800D02*
X111928571Y-82671371D01*
X111928571Y-82671371D02*
X111842857Y-82671371D01*
X111842857Y-82671371D02*
X111785714Y-82642800D01*
X112042857Y-82442800D02*
X111985714Y-82471371D01*
X111985714Y-82471371D02*
X111871428Y-82471371D01*
X111871428Y-82471371D02*
X111814285Y-82442800D01*
X111814285Y-82442800D02*
X111785714Y-82414228D01*
X111785714Y-82414228D02*
X111757142Y-82357085D01*
X111757142Y-82357085D02*
X111757142Y-82185657D01*
X111757142Y-82185657D02*
X111785714Y-82128514D01*
X111785714Y-82128514D02*
X111814285Y-82099942D01*
X111814285Y-82099942D02*
X111871428Y-82071371D01*
X111871428Y-82071371D02*
X111985714Y-82071371D01*
X111985714Y-82071371D02*
X112042857Y-82099942D01*
X112328571Y-82471371D02*
X112328571Y-82071371D01*
X112328571Y-82185657D02*
X112357142Y-82128514D01*
X112357142Y-82128514D02*
X112385714Y-82099942D01*
X112385714Y-82099942D02*
X112442856Y-82071371D01*
X112442856Y-82071371D02*
X112499999Y-82071371D01*
X112957143Y-82471371D02*
X112957143Y-82157085D01*
X112957143Y-82157085D02*
X112928571Y-82099942D01*
X112928571Y-82099942D02*
X112871428Y-82071371D01*
X112871428Y-82071371D02*
X112757143Y-82071371D01*
X112757143Y-82071371D02*
X112700000Y-82099942D01*
X112957143Y-82442800D02*
X112900000Y-82471371D01*
X112900000Y-82471371D02*
X112757143Y-82471371D01*
X112757143Y-82471371D02*
X112700000Y-82442800D01*
X112700000Y-82442800D02*
X112671428Y-82385657D01*
X112671428Y-82385657D02*
X112671428Y-82328514D01*
X112671428Y-82328514D02*
X112700000Y-82271371D01*
X112700000Y-82271371D02*
X112757143Y-82242800D01*
X112757143Y-82242800D02*
X112900000Y-82242800D01*
X112900000Y-82242800D02*
X112957143Y-82214228D01*
X113242857Y-82071371D02*
X113242857Y-82471371D01*
X113242857Y-82128514D02*
X113271428Y-82099942D01*
X113271428Y-82099942D02*
X113328571Y-82071371D01*
X113328571Y-82071371D02*
X113414285Y-82071371D01*
X113414285Y-82071371D02*
X113471428Y-82099942D01*
X113471428Y-82099942D02*
X113500000Y-82157085D01*
X113500000Y-82157085D02*
X113500000Y-82471371D01*
X114042857Y-82471371D02*
X114042857Y-81871371D01*
X114042857Y-82442800D02*
X113985714Y-82471371D01*
X113985714Y-82471371D02*
X113871428Y-82471371D01*
X113871428Y-82471371D02*
X113814285Y-82442800D01*
X113814285Y-82442800D02*
X113785714Y-82414228D01*
X113785714Y-82414228D02*
X113757142Y-82357085D01*
X113757142Y-82357085D02*
X113757142Y-82185657D01*
X113757142Y-82185657D02*
X113785714Y-82128514D01*
X113785714Y-82128514D02*
X113814285Y-82099942D01*
X113814285Y-82099942D02*
X113871428Y-82071371D01*
X113871428Y-82071371D02*
X113985714Y-82071371D01*
X113985714Y-82071371D02*
X114042857Y-82099942D01*
X114414285Y-82471371D02*
X114357142Y-82442800D01*
X114357142Y-82442800D02*
X114328571Y-82414228D01*
X114328571Y-82414228D02*
X114299999Y-82357085D01*
X114299999Y-82357085D02*
X114299999Y-82185657D01*
X114299999Y-82185657D02*
X114328571Y-82128514D01*
X114328571Y-82128514D02*
X114357142Y-82099942D01*
X114357142Y-82099942D02*
X114414285Y-82071371D01*
X114414285Y-82071371D02*
X114499999Y-82071371D01*
X114499999Y-82071371D02*
X114557142Y-82099942D01*
X114557142Y-82099942D02*
X114585714Y-82128514D01*
X114585714Y-82128514D02*
X114614285Y-82185657D01*
X114614285Y-82185657D02*
X114614285Y-82357085D01*
X114614285Y-82357085D02*
X114585714Y-82414228D01*
X114585714Y-82414228D02*
X114557142Y-82442800D01*
X114557142Y-82442800D02*
X114499999Y-82471371D01*
X114499999Y-82471371D02*
X114414285Y-82471371D01*
X114957142Y-82471371D02*
X114899999Y-82442800D01*
X114899999Y-82442800D02*
X114871428Y-82385657D01*
X114871428Y-82385657D02*
X114871428Y-81871371D01*
X115442857Y-82471371D02*
X115442857Y-81871371D01*
X115442857Y-82442800D02*
X115385714Y-82471371D01*
X115385714Y-82471371D02*
X115271428Y-82471371D01*
X115271428Y-82471371D02*
X115214285Y-82442800D01*
X115214285Y-82442800D02*
X115185714Y-82414228D01*
X115185714Y-82414228D02*
X115157142Y-82357085D01*
X115157142Y-82357085D02*
X115157142Y-82185657D01*
X115157142Y-82185657D02*
X115185714Y-82128514D01*
X115185714Y-82128514D02*
X115214285Y-82099942D01*
X115214285Y-82099942D02*
X115271428Y-82071371D01*
X115271428Y-82071371D02*
X115385714Y-82071371D01*
X115385714Y-82071371D02*
X115442857Y-82099942D01*
X115728571Y-82471371D02*
X115728571Y-82071371D01*
X115728571Y-81871371D02*
X115699999Y-81899942D01*
X115699999Y-81899942D02*
X115728571Y-81928514D01*
X115728571Y-81928514D02*
X115757142Y-81899942D01*
X115757142Y-81899942D02*
X115728571Y-81871371D01*
X115728571Y-81871371D02*
X115728571Y-81928514D01*
X116271428Y-82471371D02*
X116271428Y-82157085D01*
X116271428Y-82157085D02*
X116242856Y-82099942D01*
X116242856Y-82099942D02*
X116185713Y-82071371D01*
X116185713Y-82071371D02*
X116071428Y-82071371D01*
X116071428Y-82071371D02*
X116014285Y-82099942D01*
X116271428Y-82442800D02*
X116214285Y-82471371D01*
X116214285Y-82471371D02*
X116071428Y-82471371D01*
X116071428Y-82471371D02*
X116014285Y-82442800D01*
X116014285Y-82442800D02*
X115985713Y-82385657D01*
X115985713Y-82385657D02*
X115985713Y-82328514D01*
X115985713Y-82328514D02*
X116014285Y-82271371D01*
X116014285Y-82271371D02*
X116071428Y-82242800D01*
X116071428Y-82242800D02*
X116214285Y-82242800D01*
X116214285Y-82242800D02*
X116271428Y-82214228D01*
X116557142Y-82071371D02*
X116557142Y-82471371D01*
X116557142Y-82128514D02*
X116585713Y-82099942D01*
X116585713Y-82099942D02*
X116642856Y-82071371D01*
X116642856Y-82071371D02*
X116728570Y-82071371D01*
X116728570Y-82071371D02*
X116785713Y-82099942D01*
X116785713Y-82099942D02*
X116814285Y-82157085D01*
X116814285Y-82157085D02*
X116814285Y-82471371D01*
X117671427Y-81871371D02*
X117728570Y-81871371D01*
X117728570Y-81871371D02*
X117785713Y-81899942D01*
X117785713Y-81899942D02*
X117814285Y-81928514D01*
X117814285Y-81928514D02*
X117842856Y-81985657D01*
X117842856Y-81985657D02*
X117871427Y-82099942D01*
X117871427Y-82099942D02*
X117871427Y-82242800D01*
X117871427Y-82242800D02*
X117842856Y-82357085D01*
X117842856Y-82357085D02*
X117814285Y-82414228D01*
X117814285Y-82414228D02*
X117785713Y-82442800D01*
X117785713Y-82442800D02*
X117728570Y-82471371D01*
X117728570Y-82471371D02*
X117671427Y-82471371D01*
X117671427Y-82471371D02*
X117614285Y-82442800D01*
X117614285Y-82442800D02*
X117585713Y-82414228D01*
X117585713Y-82414228D02*
X117557142Y-82357085D01*
X117557142Y-82357085D02*
X117528570Y-82242800D01*
X117528570Y-82242800D02*
X117528570Y-82099942D01*
X117528570Y-82099942D02*
X117557142Y-81985657D01*
X117557142Y-81985657D02*
X117585713Y-81928514D01*
X117585713Y-81928514D02*
X117614285Y-81899942D01*
X117614285Y-81899942D02*
X117671427Y-81871371D01*
X118157142Y-82471371D02*
X118271428Y-82471371D01*
X118271428Y-82471371D02*
X118328571Y-82442800D01*
X118328571Y-82442800D02*
X118357142Y-82414228D01*
X118357142Y-82414228D02*
X118414285Y-82328514D01*
X118414285Y-82328514D02*
X118442856Y-82214228D01*
X118442856Y-82214228D02*
X118442856Y-81985657D01*
X118442856Y-81985657D02*
X118414285Y-81928514D01*
X118414285Y-81928514D02*
X118385714Y-81899942D01*
X118385714Y-81899942D02*
X118328571Y-81871371D01*
X118328571Y-81871371D02*
X118214285Y-81871371D01*
X118214285Y-81871371D02*
X118157142Y-81899942D01*
X118157142Y-81899942D02*
X118128571Y-81928514D01*
X118128571Y-81928514D02*
X118099999Y-81985657D01*
X118099999Y-81985657D02*
X118099999Y-82128514D01*
X118099999Y-82128514D02*
X118128571Y-82185657D01*
X118128571Y-82185657D02*
X118157142Y-82214228D01*
X118157142Y-82214228D02*
X118214285Y-82242800D01*
X118214285Y-82242800D02*
X118328571Y-82242800D01*
X118328571Y-82242800D02*
X118385714Y-82214228D01*
X118385714Y-82214228D02*
X118414285Y-82185657D01*
X118414285Y-82185657D02*
X118442856Y-82128514D01*
X119128571Y-81842800D02*
X118614285Y-82614228D01*
X119299999Y-81928514D02*
X119328571Y-81899942D01*
X119328571Y-81899942D02*
X119385714Y-81871371D01*
X119385714Y-81871371D02*
X119528571Y-81871371D01*
X119528571Y-81871371D02*
X119585714Y-81899942D01*
X119585714Y-81899942D02*
X119614285Y-81928514D01*
X119614285Y-81928514D02*
X119642856Y-81985657D01*
X119642856Y-81985657D02*
X119642856Y-82042800D01*
X119642856Y-82042800D02*
X119614285Y-82128514D01*
X119614285Y-82128514D02*
X119271428Y-82471371D01*
X119271428Y-82471371D02*
X119642856Y-82471371D01*
X119842857Y-81871371D02*
X120214285Y-81871371D01*
X120214285Y-81871371D02*
X120014285Y-82099942D01*
X120014285Y-82099942D02*
X120100000Y-82099942D01*
X120100000Y-82099942D02*
X120157143Y-82128514D01*
X120157143Y-82128514D02*
X120185714Y-82157085D01*
X120185714Y-82157085D02*
X120214285Y-82214228D01*
X120214285Y-82214228D02*
X120214285Y-82357085D01*
X120214285Y-82357085D02*
X120185714Y-82414228D01*
X120185714Y-82414228D02*
X120157143Y-82442800D01*
X120157143Y-82442800D02*
X120100000Y-82471371D01*
X120100000Y-82471371D02*
X119928571Y-82471371D01*
X119928571Y-82471371D02*
X119871428Y-82442800D01*
X119871428Y-82442800D02*
X119842857Y-82414228D01*
D11*
X111395863Y-80449885D02*
X111281578Y-80392742D01*
X111281578Y-80392742D02*
X111110149Y-80392742D01*
X111110149Y-80392742D02*
X110938720Y-80449885D01*
X110938720Y-80449885D02*
X110824435Y-80564171D01*
X110824435Y-80564171D02*
X110767292Y-80678457D01*
X110767292Y-80678457D02*
X110710149Y-80907028D01*
X110710149Y-80907028D02*
X110710149Y-81078457D01*
X110710149Y-81078457D02*
X110767292Y-81307028D01*
X110767292Y-81307028D02*
X110824435Y-81421314D01*
X110824435Y-81421314D02*
X110938720Y-81535600D01*
X110938720Y-81535600D02*
X111110149Y-81592742D01*
X111110149Y-81592742D02*
X111224435Y-81592742D01*
X111224435Y-81592742D02*
X111395863Y-81535600D01*
X111395863Y-81535600D02*
X111453006Y-81478457D01*
X111453006Y-81478457D02*
X111453006Y-81078457D01*
X111453006Y-81078457D02*
X111224435Y-81078457D01*
X111853006Y-80392742D02*
X112595863Y-80392742D01*
X112595863Y-80392742D02*
X112195863Y-80849885D01*
X112195863Y-80849885D02*
X112367292Y-80849885D01*
X112367292Y-80849885D02*
X112481578Y-80907028D01*
X112481578Y-80907028D02*
X112538720Y-80964171D01*
X112538720Y-80964171D02*
X112595863Y-81078457D01*
X112595863Y-81078457D02*
X112595863Y-81364171D01*
X112595863Y-81364171D02*
X112538720Y-81478457D01*
X112538720Y-81478457D02*
X112481578Y-81535600D01*
X112481578Y-81535600D02*
X112367292Y-81592742D01*
X112367292Y-81592742D02*
X112024435Y-81592742D01*
X112024435Y-81592742D02*
X111910149Y-81535600D01*
X111910149Y-81535600D02*
X111853006Y-81478457D01*
X113453006Y-80392742D02*
X113453006Y-81249885D01*
X113453006Y-81249885D02*
X113395863Y-81421314D01*
X113395863Y-81421314D02*
X113281577Y-81535600D01*
X113281577Y-81535600D02*
X113110149Y-81592742D01*
X113110149Y-81592742D02*
X112995863Y-81592742D01*
X114024435Y-81592742D02*
X114024435Y-80392742D01*
X114024435Y-80392742D02*
X114481578Y-80392742D01*
X114481578Y-80392742D02*
X114595863Y-80449885D01*
X114595863Y-80449885D02*
X114653006Y-80507028D01*
X114653006Y-80507028D02*
X114710149Y-80621314D01*
X114710149Y-80621314D02*
X114710149Y-80792742D01*
X114710149Y-80792742D02*
X114653006Y-80907028D01*
X114653006Y-80907028D02*
X114595863Y-80964171D01*
X114595863Y-80964171D02*
X114481578Y-81021314D01*
X114481578Y-81021314D02*
X114024435Y-81021314D01*
X115224435Y-81592742D02*
X115224435Y-80392742D01*
X115224435Y-80392742D02*
X115624435Y-81249885D01*
X115624435Y-81249885D02*
X116024435Y-80392742D01*
X116024435Y-80392742D02*
X116024435Y-81592742D01*
X116824435Y-80392742D02*
X117053007Y-80392742D01*
X117053007Y-80392742D02*
X117167292Y-80449885D01*
X117167292Y-80449885D02*
X117281578Y-80564171D01*
X117281578Y-80564171D02*
X117338721Y-80792742D01*
X117338721Y-80792742D02*
X117338721Y-81192742D01*
X117338721Y-81192742D02*
X117281578Y-81421314D01*
X117281578Y-81421314D02*
X117167292Y-81535600D01*
X117167292Y-81535600D02*
X117053007Y-81592742D01*
X117053007Y-81592742D02*
X116824435Y-81592742D01*
X116824435Y-81592742D02*
X116710150Y-81535600D01*
X116710150Y-81535600D02*
X116595864Y-81421314D01*
X116595864Y-81421314D02*
X116538721Y-81192742D01*
X116538721Y-81192742D02*
X116538721Y-80792742D01*
X116538721Y-80792742D02*
X116595864Y-80564171D01*
X116595864Y-80564171D02*
X116710150Y-80449885D01*
X116710150Y-80449885D02*
X116824435Y-80392742D01*
X117853007Y-81592742D02*
X117853007Y-80392742D01*
X117853007Y-80392742D02*
X118138721Y-80392742D01*
X118138721Y-80392742D02*
X118310150Y-80449885D01*
X118310150Y-80449885D02*
X118424435Y-80564171D01*
X118424435Y-80564171D02*
X118481578Y-80678457D01*
X118481578Y-80678457D02*
X118538721Y-80907028D01*
X118538721Y-80907028D02*
X118538721Y-81078457D01*
X118538721Y-81078457D02*
X118481578Y-81307028D01*
X118481578Y-81307028D02*
X118424435Y-81421314D01*
X118424435Y-81421314D02*
X118310150Y-81535600D01*
X118310150Y-81535600D02*
X118138721Y-81592742D01*
X118138721Y-81592742D02*
X117853007Y-81592742D01*
X118938721Y-80792742D02*
X119224435Y-81592742D01*
X119224435Y-81592742D02*
X119510150Y-80792742D01*
X120595864Y-81592742D02*
X119910150Y-81592742D01*
X120253007Y-81592742D02*
X120253007Y-80392742D01*
X120253007Y-80392742D02*
X120138721Y-80564171D01*
X120138721Y-80564171D02*
X120024436Y-80678457D01*
X120024436Y-80678457D02*
X119910150Y-80735600D01*
D12*
X116059580Y-68724047D02*
X116107200Y-68771666D01*
X116107200Y-68771666D02*
X116154819Y-68914523D01*
X116154819Y-68914523D02*
X116154819Y-69009761D01*
X116154819Y-69009761D02*
X116107200Y-69152618D01*
X116107200Y-69152618D02*
X116011961Y-69247856D01*
X116011961Y-69247856D02*
X115916723Y-69295475D01*
X115916723Y-69295475D02*
X115726247Y-69343094D01*
X115726247Y-69343094D02*
X115583390Y-69343094D01*
X115583390Y-69343094D02*
X115392914Y-69295475D01*
X115392914Y-69295475D02*
X115297676Y-69247856D01*
X115297676Y-69247856D02*
X115202438Y-69152618D01*
X115202438Y-69152618D02*
X115154819Y-69009761D01*
X115154819Y-69009761D02*
X115154819Y-68914523D01*
X115154819Y-68914523D02*
X115202438Y-68771666D01*
X115202438Y-68771666D02*
X115250057Y-68724047D01*
X115202438Y-67771666D02*
X115154819Y-67866904D01*
X115154819Y-67866904D02*
X115154819Y-68009761D01*
X115154819Y-68009761D02*
X115202438Y-68152618D01*
X115202438Y-68152618D02*
X115297676Y-68247856D01*
X115297676Y-68247856D02*
X115392914Y-68295475D01*
X115392914Y-68295475D02*
X115583390Y-68343094D01*
X115583390Y-68343094D02*
X115726247Y-68343094D01*
X115726247Y-68343094D02*
X115916723Y-68295475D01*
X115916723Y-68295475D02*
X116011961Y-68247856D01*
X116011961Y-68247856D02*
X116107200Y-68152618D01*
X116107200Y-68152618D02*
X116154819Y-68009761D01*
X116154819Y-68009761D02*
X116154819Y-67914523D01*
X116154819Y-67914523D02*
X116107200Y-67771666D01*
X116107200Y-67771666D02*
X116059580Y-67724047D01*
X116059580Y-67724047D02*
X115726247Y-67724047D01*
X115726247Y-67724047D02*
X115726247Y-67914523D01*
X115869104Y-67343094D02*
X115869104Y-66866904D01*
X116154819Y-67438332D02*
X115154819Y-67104999D01*
X115154819Y-67104999D02*
X116154819Y-66771666D01*
D13*
%TO.C,J2*%
X112995000Y-85955000D02*
X112995000Y-84625000D01*
X114325000Y-85955000D02*
X112995000Y-85955000D01*
X115595000Y-85955000D02*
X118195000Y-85955000D01*
X115595000Y-85955000D02*
X115595000Y-83295000D01*
X118195000Y-85955000D02*
X118195000Y-83295000D01*
X115595000Y-83295000D02*
X118195000Y-83295000D01*
%TO.C,U1*%
X109135000Y-55395000D02*
X109135000Y-85995000D01*
X109135000Y-85995000D02*
X122055000Y-85995000D01*
X114595000Y-55395000D02*
X109135000Y-55395000D01*
X122055000Y-55395000D02*
X116595000Y-55395000D01*
X122055000Y-85995000D02*
X122055000Y-55395000D01*
X114595000Y-55395000D02*
G75*
G03*
X116595000Y-55395000I1000000J0D01*
G01*
%TD*%
M02*
