%TF.GenerationSoftware,KiCad,Pcbnew,7.0.6*%
%TF.CreationDate,2023-09-04T21:12:19+01:00*%
%TF.ProjectId,TRSG3Mod,54525347-334d-46f6-942e-6b696361645f,rev?*%
%TF.SameCoordinates,Original*%
%TF.FileFunction,Drillmap*%
%TF.FilePolarity,Positive*%
%FSLAX45Y45*%
G04 Gerber Fmt 4.5, Leading zero omitted, Abs format (unit mm)*
G04 Created by KiCad (PCBNEW 7.0.6) date 2023-09-04 21:12:19*
%MOMM*%
%LPD*%
G01*
G04 APERTURE LIST*
%ADD10C,0.100000*%
%ADD11C,0.200000*%
%ADD12C,0.040000*%
%ADD13C,0.080000*%
G04 APERTURE END LIST*
D10*
X10691250Y-5037500D02*
X12427500Y-5037500D01*
X12427500Y-8602500D01*
X10691250Y-8602500D01*
X10691250Y-5037500D01*
D11*
D12*
X10872550Y-5795000D02*
X10912550Y-5835000D01*
X10912550Y-5795000D02*
X10872550Y-5835000D01*
X11010000Y-8015000D02*
X11050000Y-8055000D01*
X11050000Y-8015000D02*
X11010000Y-8055000D01*
X11445000Y-6040000D02*
X11485000Y-6080000D01*
X11485000Y-6040000D02*
X11445000Y-6080000D01*
X11495000Y-7802500D02*
X11535000Y-7842500D01*
X11535000Y-7802500D02*
X11495000Y-7842500D01*
X11502500Y-8025000D02*
X11542500Y-8065000D01*
X11542500Y-8025000D02*
X11502500Y-8065000D01*
X11507400Y-7682500D02*
X11547400Y-7722500D01*
X11547400Y-7682500D02*
X11507400Y-7722500D01*
X11579850Y-7430500D02*
X11619850Y-7470500D01*
X11619850Y-7430500D02*
X11579850Y-7470500D01*
X11627500Y-6080000D02*
X11667500Y-6120000D01*
X11667500Y-6080000D02*
X11627500Y-6120000D01*
X11662500Y-7635450D02*
X11702500Y-7675450D01*
X11702500Y-7635450D02*
X11662500Y-7675450D01*
X11786825Y-5865053D02*
X11826825Y-5905053D01*
X11826825Y-5865053D02*
X11786825Y-5905053D01*
D13*
X10837500Y-5672500D02*
G75*
G03*
X10837500Y-5672500I-40000J0D01*
G01*
X10837500Y-5926500D02*
G75*
G03*
X10837500Y-5926500I-40000J0D01*
G01*
X10837500Y-6180500D02*
G75*
G03*
X10837500Y-6180500I-40000J0D01*
G01*
X10837500Y-6434500D02*
G75*
G03*
X10837500Y-6434500I-40000J0D01*
G01*
X10837500Y-6688500D02*
G75*
G03*
X10837500Y-6688500I-40000J0D01*
G01*
X10837500Y-6942500D02*
G75*
G03*
X10837500Y-6942500I-40000J0D01*
G01*
X10837500Y-7196500D02*
G75*
G03*
X10837500Y-7196500I-40000J0D01*
G01*
X10837500Y-7450500D02*
G75*
G03*
X10837500Y-7450500I-40000J0D01*
G01*
X10837500Y-7704500D02*
G75*
G03*
X10837500Y-7704500I-40000J0D01*
G01*
X10837500Y-7958500D02*
G75*
G03*
X10837500Y-7958500I-40000J0D01*
G01*
X10837500Y-8212500D02*
G75*
G03*
X10837500Y-8212500I-40000J0D01*
G01*
X10837500Y-8466500D02*
G75*
G03*
X10837500Y-8466500I-40000J0D01*
G01*
X11219375Y-5805000D02*
G75*
G03*
X11219375Y-5805000I-40000J0D01*
G01*
X11219375Y-6059000D02*
G75*
G03*
X11219375Y-6059000I-40000J0D01*
G01*
X11219375Y-6313000D02*
G75*
G03*
X11219375Y-6313000I-40000J0D01*
G01*
X11219375Y-6567000D02*
G75*
G03*
X11219375Y-6567000I-40000J0D01*
G01*
X11219375Y-6821000D02*
G75*
G03*
X11219375Y-6821000I-40000J0D01*
G01*
X11219375Y-7075000D02*
G75*
G03*
X11219375Y-7075000I-40000J0D01*
G01*
X11219375Y-7329000D02*
G75*
G03*
X11219375Y-7329000I-40000J0D01*
G01*
X11219375Y-7583000D02*
G75*
G03*
X11219375Y-7583000I-40000J0D01*
G01*
X11219375Y-7837000D02*
G75*
G03*
X11219375Y-7837000I-40000J0D01*
G01*
X11597500Y-5277500D02*
G75*
G03*
X11597500Y-5277500I-40000J0D01*
G01*
X11981375Y-5805000D02*
G75*
G03*
X11981375Y-5805000I-40000J0D01*
G01*
X11981375Y-6059000D02*
G75*
G03*
X11981375Y-6059000I-40000J0D01*
G01*
X11981375Y-6313000D02*
G75*
G03*
X11981375Y-6313000I-40000J0D01*
G01*
X11981375Y-6567000D02*
G75*
G03*
X11981375Y-6567000I-40000J0D01*
G01*
X11981375Y-6821000D02*
G75*
G03*
X11981375Y-6821000I-40000J0D01*
G01*
X11981375Y-7075000D02*
G75*
G03*
X11981375Y-7075000I-40000J0D01*
G01*
X11981375Y-7329000D02*
G75*
G03*
X11981375Y-7329000I-40000J0D01*
G01*
X11981375Y-7583000D02*
G75*
G03*
X11981375Y-7583000I-40000J0D01*
G01*
X11981375Y-7837000D02*
G75*
G03*
X11981375Y-7837000I-40000J0D01*
G01*
X12359500Y-5277500D02*
G75*
G03*
X12359500Y-5277500I-40000J0D01*
G01*
X12361500Y-5672500D02*
G75*
G03*
X12361500Y-5672500I-40000J0D01*
G01*
X12361500Y-5926500D02*
G75*
G03*
X12361500Y-5926500I-40000J0D01*
G01*
X12361500Y-6180500D02*
G75*
G03*
X12361500Y-6180500I-40000J0D01*
G01*
X12361500Y-6434500D02*
G75*
G03*
X12361500Y-6434500I-40000J0D01*
G01*
X12361500Y-6688500D02*
G75*
G03*
X12361500Y-6688500I-40000J0D01*
G01*
X12361500Y-6942500D02*
G75*
G03*
X12361500Y-6942500I-40000J0D01*
G01*
X12361500Y-7196500D02*
G75*
G03*
X12361500Y-7196500I-40000J0D01*
G01*
X12361500Y-7450500D02*
G75*
G03*
X12361500Y-7450500I-40000J0D01*
G01*
X12361500Y-7704500D02*
G75*
G03*
X12361500Y-7704500I-40000J0D01*
G01*
X12361500Y-7958500D02*
G75*
G03*
X12361500Y-7958500I-40000J0D01*
G01*
X12361500Y-8212500D02*
G75*
G03*
X12361500Y-8212500I-40000J0D01*
G01*
X12361500Y-8466500D02*
G75*
G03*
X12361500Y-8466500I-40000J0D01*
G01*
D10*
X10928500Y-5232500D02*
X10928500Y-5332500D01*
X10878500Y-5282500D02*
X10978500Y-5282500D01*
X11182500Y-5232500D02*
X11182500Y-5332500D01*
X11132500Y-5282500D02*
X11232500Y-5282500D01*
D11*
X10947027Y-8918984D02*
X10947027Y-8718984D01*
X10947027Y-8718984D02*
X10994646Y-8718984D01*
X10994646Y-8718984D02*
X11023217Y-8728508D01*
X11023217Y-8728508D02*
X11042265Y-8747555D01*
X11042265Y-8747555D02*
X11051789Y-8766603D01*
X11051789Y-8766603D02*
X11061313Y-8804698D01*
X11061313Y-8804698D02*
X11061313Y-8833270D01*
X11061313Y-8833270D02*
X11051789Y-8871365D01*
X11051789Y-8871365D02*
X11042265Y-8890412D01*
X11042265Y-8890412D02*
X11023217Y-8909460D01*
X11023217Y-8909460D02*
X10994646Y-8918984D01*
X10994646Y-8918984D02*
X10947027Y-8918984D01*
X11147027Y-8918984D02*
X11147027Y-8785650D01*
X11147027Y-8823746D02*
X11156551Y-8804698D01*
X11156551Y-8804698D02*
X11166074Y-8795174D01*
X11166074Y-8795174D02*
X11185122Y-8785650D01*
X11185122Y-8785650D02*
X11204170Y-8785650D01*
X11270836Y-8918984D02*
X11270836Y-8785650D01*
X11270836Y-8718984D02*
X11261312Y-8728508D01*
X11261312Y-8728508D02*
X11270836Y-8738031D01*
X11270836Y-8738031D02*
X11280360Y-8728508D01*
X11280360Y-8728508D02*
X11270836Y-8718984D01*
X11270836Y-8718984D02*
X11270836Y-8738031D01*
X11394646Y-8918984D02*
X11375598Y-8909460D01*
X11375598Y-8909460D02*
X11366074Y-8890412D01*
X11366074Y-8890412D02*
X11366074Y-8718984D01*
X11499408Y-8918984D02*
X11480360Y-8909460D01*
X11480360Y-8909460D02*
X11470836Y-8890412D01*
X11470836Y-8890412D02*
X11470836Y-8718984D01*
X11727979Y-8918984D02*
X11727979Y-8718984D01*
X11727979Y-8718984D02*
X11794646Y-8861841D01*
X11794646Y-8861841D02*
X11861312Y-8718984D01*
X11861312Y-8718984D02*
X11861312Y-8918984D01*
X12042265Y-8918984D02*
X12042265Y-8814222D01*
X12042265Y-8814222D02*
X12032741Y-8795174D01*
X12032741Y-8795174D02*
X12013693Y-8785650D01*
X12013693Y-8785650D02*
X11975598Y-8785650D01*
X11975598Y-8785650D02*
X11956551Y-8795174D01*
X12042265Y-8909460D02*
X12023217Y-8918984D01*
X12023217Y-8918984D02*
X11975598Y-8918984D01*
X11975598Y-8918984D02*
X11956551Y-8909460D01*
X11956551Y-8909460D02*
X11947027Y-8890412D01*
X11947027Y-8890412D02*
X11947027Y-8871365D01*
X11947027Y-8871365D02*
X11956551Y-8852317D01*
X11956551Y-8852317D02*
X11975598Y-8842793D01*
X11975598Y-8842793D02*
X12023217Y-8842793D01*
X12023217Y-8842793D02*
X12042265Y-8833270D01*
X12137503Y-8785650D02*
X12137503Y-8985650D01*
X12137503Y-8795174D02*
X12156551Y-8785650D01*
X12156551Y-8785650D02*
X12194646Y-8785650D01*
X12194646Y-8785650D02*
X12213693Y-8795174D01*
X12213693Y-8795174D02*
X12223217Y-8804698D01*
X12223217Y-8804698D02*
X12232741Y-8823746D01*
X12232741Y-8823746D02*
X12232741Y-8880889D01*
X12232741Y-8880889D02*
X12223217Y-8899936D01*
X12223217Y-8899936D02*
X12213693Y-8909460D01*
X12213693Y-8909460D02*
X12194646Y-8918984D01*
X12194646Y-8918984D02*
X12156551Y-8918984D01*
X12156551Y-8918984D02*
X12137503Y-8909460D01*
X12318455Y-8899936D02*
X12327979Y-8909460D01*
X12327979Y-8909460D02*
X12318455Y-8918984D01*
X12318455Y-8918984D02*
X12308932Y-8909460D01*
X12308932Y-8909460D02*
X12318455Y-8899936D01*
X12318455Y-8899936D02*
X12318455Y-8918984D01*
X12318455Y-8795174D02*
X12327979Y-8804698D01*
X12327979Y-8804698D02*
X12318455Y-8814222D01*
X12318455Y-8814222D02*
X12308932Y-8804698D01*
X12308932Y-8804698D02*
X12318455Y-8795174D01*
X12318455Y-8795174D02*
X12318455Y-8814222D01*
D12*
X10646250Y-9227500D02*
X10686250Y-9267500D01*
X10686250Y-9227500D02*
X10646250Y-9267500D01*
D11*
X10985122Y-9138984D02*
X11004170Y-9138984D01*
X11004170Y-9138984D02*
X11023217Y-9148508D01*
X11023217Y-9148508D02*
X11032741Y-9158031D01*
X11032741Y-9158031D02*
X11042265Y-9177079D01*
X11042265Y-9177079D02*
X11051789Y-9215174D01*
X11051789Y-9215174D02*
X11051789Y-9262793D01*
X11051789Y-9262793D02*
X11042265Y-9300889D01*
X11042265Y-9300889D02*
X11032741Y-9319936D01*
X11032741Y-9319936D02*
X11023217Y-9329460D01*
X11023217Y-9329460D02*
X11004170Y-9338984D01*
X11004170Y-9338984D02*
X10985122Y-9338984D01*
X10985122Y-9338984D02*
X10966074Y-9329460D01*
X10966074Y-9329460D02*
X10956551Y-9319936D01*
X10956551Y-9319936D02*
X10947027Y-9300889D01*
X10947027Y-9300889D02*
X10937503Y-9262793D01*
X10937503Y-9262793D02*
X10937503Y-9215174D01*
X10937503Y-9215174D02*
X10947027Y-9177079D01*
X10947027Y-9177079D02*
X10956551Y-9158031D01*
X10956551Y-9158031D02*
X10966074Y-9148508D01*
X10966074Y-9148508D02*
X10985122Y-9138984D01*
X11137503Y-9319936D02*
X11147027Y-9329460D01*
X11147027Y-9329460D02*
X11137503Y-9338984D01*
X11137503Y-9338984D02*
X11127979Y-9329460D01*
X11127979Y-9329460D02*
X11137503Y-9319936D01*
X11137503Y-9319936D02*
X11137503Y-9338984D01*
X11318455Y-9205650D02*
X11318455Y-9338984D01*
X11270836Y-9129460D02*
X11223217Y-9272317D01*
X11223217Y-9272317D02*
X11347027Y-9272317D01*
X11461312Y-9138984D02*
X11480360Y-9138984D01*
X11480360Y-9138984D02*
X11499408Y-9148508D01*
X11499408Y-9148508D02*
X11508932Y-9158031D01*
X11508932Y-9158031D02*
X11518455Y-9177079D01*
X11518455Y-9177079D02*
X11527979Y-9215174D01*
X11527979Y-9215174D02*
X11527979Y-9262793D01*
X11527979Y-9262793D02*
X11518455Y-9300889D01*
X11518455Y-9300889D02*
X11508932Y-9319936D01*
X11508932Y-9319936D02*
X11499408Y-9329460D01*
X11499408Y-9329460D02*
X11480360Y-9338984D01*
X11480360Y-9338984D02*
X11461312Y-9338984D01*
X11461312Y-9338984D02*
X11442265Y-9329460D01*
X11442265Y-9329460D02*
X11432741Y-9319936D01*
X11432741Y-9319936D02*
X11423217Y-9300889D01*
X11423217Y-9300889D02*
X11413693Y-9262793D01*
X11413693Y-9262793D02*
X11413693Y-9215174D01*
X11413693Y-9215174D02*
X11423217Y-9177079D01*
X11423217Y-9177079D02*
X11432741Y-9158031D01*
X11432741Y-9158031D02*
X11442265Y-9148508D01*
X11442265Y-9148508D02*
X11461312Y-9138984D01*
X11651789Y-9138984D02*
X11670836Y-9138984D01*
X11670836Y-9138984D02*
X11689884Y-9148508D01*
X11689884Y-9148508D02*
X11699408Y-9158031D01*
X11699408Y-9158031D02*
X11708932Y-9177079D01*
X11708932Y-9177079D02*
X11718455Y-9215174D01*
X11718455Y-9215174D02*
X11718455Y-9262793D01*
X11718455Y-9262793D02*
X11708932Y-9300889D01*
X11708932Y-9300889D02*
X11699408Y-9319936D01*
X11699408Y-9319936D02*
X11689884Y-9329460D01*
X11689884Y-9329460D02*
X11670836Y-9338984D01*
X11670836Y-9338984D02*
X11651789Y-9338984D01*
X11651789Y-9338984D02*
X11632741Y-9329460D01*
X11632741Y-9329460D02*
X11623217Y-9319936D01*
X11623217Y-9319936D02*
X11613693Y-9300889D01*
X11613693Y-9300889D02*
X11604170Y-9262793D01*
X11604170Y-9262793D02*
X11604170Y-9215174D01*
X11604170Y-9215174D02*
X11613693Y-9177079D01*
X11613693Y-9177079D02*
X11623217Y-9158031D01*
X11623217Y-9158031D02*
X11632741Y-9148508D01*
X11632741Y-9148508D02*
X11651789Y-9138984D01*
X11804170Y-9338984D02*
X11804170Y-9205650D01*
X11804170Y-9224698D02*
X11813693Y-9215174D01*
X11813693Y-9215174D02*
X11832741Y-9205650D01*
X11832741Y-9205650D02*
X11861313Y-9205650D01*
X11861313Y-9205650D02*
X11880360Y-9215174D01*
X11880360Y-9215174D02*
X11889884Y-9234222D01*
X11889884Y-9234222D02*
X11889884Y-9338984D01*
X11889884Y-9234222D02*
X11899408Y-9215174D01*
X11899408Y-9215174D02*
X11918455Y-9205650D01*
X11918455Y-9205650D02*
X11947027Y-9205650D01*
X11947027Y-9205650D02*
X11966074Y-9215174D01*
X11966074Y-9215174D02*
X11975598Y-9234222D01*
X11975598Y-9234222D02*
X11975598Y-9338984D01*
X12070836Y-9338984D02*
X12070836Y-9205650D01*
X12070836Y-9224698D02*
X12080360Y-9215174D01*
X12080360Y-9215174D02*
X12099408Y-9205650D01*
X12099408Y-9205650D02*
X12127979Y-9205650D01*
X12127979Y-9205650D02*
X12147027Y-9215174D01*
X12147027Y-9215174D02*
X12156551Y-9234222D01*
X12156551Y-9234222D02*
X12156551Y-9338984D01*
X12156551Y-9234222D02*
X12166074Y-9215174D01*
X12166074Y-9215174D02*
X12185122Y-9205650D01*
X12185122Y-9205650D02*
X12213693Y-9205650D01*
X12213693Y-9205650D02*
X12232741Y-9215174D01*
X12232741Y-9215174D02*
X12242265Y-9234222D01*
X12242265Y-9234222D02*
X12242265Y-9338984D01*
X12632741Y-9129460D02*
X12461313Y-9386603D01*
X12889884Y-9138984D02*
X12908932Y-9138984D01*
X12908932Y-9138984D02*
X12927979Y-9148508D01*
X12927979Y-9148508D02*
X12937503Y-9158031D01*
X12937503Y-9158031D02*
X12947027Y-9177079D01*
X12947027Y-9177079D02*
X12956551Y-9215174D01*
X12956551Y-9215174D02*
X12956551Y-9262793D01*
X12956551Y-9262793D02*
X12947027Y-9300889D01*
X12947027Y-9300889D02*
X12937503Y-9319936D01*
X12937503Y-9319936D02*
X12927979Y-9329460D01*
X12927979Y-9329460D02*
X12908932Y-9338984D01*
X12908932Y-9338984D02*
X12889884Y-9338984D01*
X12889884Y-9338984D02*
X12870836Y-9329460D01*
X12870836Y-9329460D02*
X12861313Y-9319936D01*
X12861313Y-9319936D02*
X12851789Y-9300889D01*
X12851789Y-9300889D02*
X12842265Y-9262793D01*
X12842265Y-9262793D02*
X12842265Y-9215174D01*
X12842265Y-9215174D02*
X12851789Y-9177079D01*
X12851789Y-9177079D02*
X12861313Y-9158031D01*
X12861313Y-9158031D02*
X12870836Y-9148508D01*
X12870836Y-9148508D02*
X12889884Y-9138984D01*
X13042265Y-9319936D02*
X13051789Y-9329460D01*
X13051789Y-9329460D02*
X13042265Y-9338984D01*
X13042265Y-9338984D02*
X13032741Y-9329460D01*
X13032741Y-9329460D02*
X13042265Y-9319936D01*
X13042265Y-9319936D02*
X13042265Y-9338984D01*
X13175598Y-9138984D02*
X13194646Y-9138984D01*
X13194646Y-9138984D02*
X13213694Y-9148508D01*
X13213694Y-9148508D02*
X13223217Y-9158031D01*
X13223217Y-9158031D02*
X13232741Y-9177079D01*
X13232741Y-9177079D02*
X13242265Y-9215174D01*
X13242265Y-9215174D02*
X13242265Y-9262793D01*
X13242265Y-9262793D02*
X13232741Y-9300889D01*
X13232741Y-9300889D02*
X13223217Y-9319936D01*
X13223217Y-9319936D02*
X13213694Y-9329460D01*
X13213694Y-9329460D02*
X13194646Y-9338984D01*
X13194646Y-9338984D02*
X13175598Y-9338984D01*
X13175598Y-9338984D02*
X13156551Y-9329460D01*
X13156551Y-9329460D02*
X13147027Y-9319936D01*
X13147027Y-9319936D02*
X13137503Y-9300889D01*
X13137503Y-9300889D02*
X13127979Y-9262793D01*
X13127979Y-9262793D02*
X13127979Y-9215174D01*
X13127979Y-9215174D02*
X13137503Y-9177079D01*
X13137503Y-9177079D02*
X13147027Y-9158031D01*
X13147027Y-9158031D02*
X13156551Y-9148508D01*
X13156551Y-9148508D02*
X13175598Y-9138984D01*
X13432741Y-9338984D02*
X13318456Y-9338984D01*
X13375598Y-9338984D02*
X13375598Y-9138984D01*
X13375598Y-9138984D02*
X13356551Y-9167555D01*
X13356551Y-9167555D02*
X13337503Y-9186603D01*
X13337503Y-9186603D02*
X13318456Y-9196127D01*
X13613694Y-9138984D02*
X13518456Y-9138984D01*
X13518456Y-9138984D02*
X13508932Y-9234222D01*
X13508932Y-9234222D02*
X13518456Y-9224698D01*
X13518456Y-9224698D02*
X13537503Y-9215174D01*
X13537503Y-9215174D02*
X13585122Y-9215174D01*
X13585122Y-9215174D02*
X13604170Y-9224698D01*
X13604170Y-9224698D02*
X13613694Y-9234222D01*
X13613694Y-9234222D02*
X13623217Y-9253270D01*
X13623217Y-9253270D02*
X13623217Y-9300889D01*
X13623217Y-9300889D02*
X13613694Y-9319936D01*
X13613694Y-9319936D02*
X13604170Y-9329460D01*
X13604170Y-9329460D02*
X13585122Y-9338984D01*
X13585122Y-9338984D02*
X13537503Y-9338984D01*
X13537503Y-9338984D02*
X13518456Y-9329460D01*
X13518456Y-9329460D02*
X13508932Y-9319936D01*
X13689884Y-9138984D02*
X13823217Y-9138984D01*
X13823217Y-9138984D02*
X13737503Y-9338984D01*
X13889884Y-9138984D02*
X13889884Y-9177079D01*
X13966075Y-9138984D02*
X13966075Y-9177079D01*
X14261313Y-9415174D02*
X14251789Y-9405650D01*
X14251789Y-9405650D02*
X14232741Y-9377079D01*
X14232741Y-9377079D02*
X14223218Y-9358031D01*
X14223218Y-9358031D02*
X14213694Y-9329460D01*
X14213694Y-9329460D02*
X14204170Y-9281841D01*
X14204170Y-9281841D02*
X14204170Y-9243746D01*
X14204170Y-9243746D02*
X14213694Y-9196127D01*
X14213694Y-9196127D02*
X14223218Y-9167555D01*
X14223218Y-9167555D02*
X14232741Y-9148508D01*
X14232741Y-9148508D02*
X14251789Y-9119936D01*
X14251789Y-9119936D02*
X14261313Y-9110412D01*
X14442265Y-9338984D02*
X14327979Y-9338984D01*
X14385122Y-9338984D02*
X14385122Y-9138984D01*
X14385122Y-9138984D02*
X14366075Y-9167555D01*
X14366075Y-9167555D02*
X14347027Y-9186603D01*
X14347027Y-9186603D02*
X14327979Y-9196127D01*
X14566075Y-9138984D02*
X14585122Y-9138984D01*
X14585122Y-9138984D02*
X14604170Y-9148508D01*
X14604170Y-9148508D02*
X14613694Y-9158031D01*
X14613694Y-9158031D02*
X14623218Y-9177079D01*
X14623218Y-9177079D02*
X14632741Y-9215174D01*
X14632741Y-9215174D02*
X14632741Y-9262793D01*
X14632741Y-9262793D02*
X14623218Y-9300889D01*
X14623218Y-9300889D02*
X14613694Y-9319936D01*
X14613694Y-9319936D02*
X14604170Y-9329460D01*
X14604170Y-9329460D02*
X14585122Y-9338984D01*
X14585122Y-9338984D02*
X14566075Y-9338984D01*
X14566075Y-9338984D02*
X14547027Y-9329460D01*
X14547027Y-9329460D02*
X14537503Y-9319936D01*
X14537503Y-9319936D02*
X14527979Y-9300889D01*
X14527979Y-9300889D02*
X14518456Y-9262793D01*
X14518456Y-9262793D02*
X14518456Y-9215174D01*
X14518456Y-9215174D02*
X14527979Y-9177079D01*
X14527979Y-9177079D02*
X14537503Y-9158031D01*
X14537503Y-9158031D02*
X14547027Y-9148508D01*
X14547027Y-9148508D02*
X14566075Y-9138984D01*
X14870837Y-9338984D02*
X14870837Y-9138984D01*
X14956551Y-9338984D02*
X14956551Y-9234222D01*
X14956551Y-9234222D02*
X14947027Y-9215174D01*
X14947027Y-9215174D02*
X14927980Y-9205650D01*
X14927980Y-9205650D02*
X14899408Y-9205650D01*
X14899408Y-9205650D02*
X14880360Y-9215174D01*
X14880360Y-9215174D02*
X14870837Y-9224698D01*
X15080360Y-9338984D02*
X15061313Y-9329460D01*
X15061313Y-9329460D02*
X15051789Y-9319936D01*
X15051789Y-9319936D02*
X15042265Y-9300889D01*
X15042265Y-9300889D02*
X15042265Y-9243746D01*
X15042265Y-9243746D02*
X15051789Y-9224698D01*
X15051789Y-9224698D02*
X15061313Y-9215174D01*
X15061313Y-9215174D02*
X15080360Y-9205650D01*
X15080360Y-9205650D02*
X15108932Y-9205650D01*
X15108932Y-9205650D02*
X15127980Y-9215174D01*
X15127980Y-9215174D02*
X15137503Y-9224698D01*
X15137503Y-9224698D02*
X15147027Y-9243746D01*
X15147027Y-9243746D02*
X15147027Y-9300889D01*
X15147027Y-9300889D02*
X15137503Y-9319936D01*
X15137503Y-9319936D02*
X15127980Y-9329460D01*
X15127980Y-9329460D02*
X15108932Y-9338984D01*
X15108932Y-9338984D02*
X15080360Y-9338984D01*
X15261313Y-9338984D02*
X15242265Y-9329460D01*
X15242265Y-9329460D02*
X15232741Y-9310412D01*
X15232741Y-9310412D02*
X15232741Y-9138984D01*
X15413694Y-9329460D02*
X15394646Y-9338984D01*
X15394646Y-9338984D02*
X15356551Y-9338984D01*
X15356551Y-9338984D02*
X15337503Y-9329460D01*
X15337503Y-9329460D02*
X15327980Y-9310412D01*
X15327980Y-9310412D02*
X15327980Y-9234222D01*
X15327980Y-9234222D02*
X15337503Y-9215174D01*
X15337503Y-9215174D02*
X15356551Y-9205650D01*
X15356551Y-9205650D02*
X15394646Y-9205650D01*
X15394646Y-9205650D02*
X15413694Y-9215174D01*
X15413694Y-9215174D02*
X15423218Y-9234222D01*
X15423218Y-9234222D02*
X15423218Y-9253270D01*
X15423218Y-9253270D02*
X15327980Y-9272317D01*
X15499408Y-9329460D02*
X15518456Y-9338984D01*
X15518456Y-9338984D02*
X15556551Y-9338984D01*
X15556551Y-9338984D02*
X15575599Y-9329460D01*
X15575599Y-9329460D02*
X15585122Y-9310412D01*
X15585122Y-9310412D02*
X15585122Y-9300889D01*
X15585122Y-9300889D02*
X15575599Y-9281841D01*
X15575599Y-9281841D02*
X15556551Y-9272317D01*
X15556551Y-9272317D02*
X15527980Y-9272317D01*
X15527980Y-9272317D02*
X15508932Y-9262793D01*
X15508932Y-9262793D02*
X15499408Y-9243746D01*
X15499408Y-9243746D02*
X15499408Y-9234222D01*
X15499408Y-9234222D02*
X15508932Y-9215174D01*
X15508932Y-9215174D02*
X15527980Y-9205650D01*
X15527980Y-9205650D02*
X15556551Y-9205650D01*
X15556551Y-9205650D02*
X15575599Y-9215174D01*
X15651789Y-9415174D02*
X15661313Y-9405650D01*
X15661313Y-9405650D02*
X15680361Y-9377079D01*
X15680361Y-9377079D02*
X15689884Y-9358031D01*
X15689884Y-9358031D02*
X15699408Y-9329460D01*
X15699408Y-9329460D02*
X15708932Y-9281841D01*
X15708932Y-9281841D02*
X15708932Y-9243746D01*
X15708932Y-9243746D02*
X15699408Y-9196127D01*
X15699408Y-9196127D02*
X15689884Y-9167555D01*
X15689884Y-9167555D02*
X15680361Y-9148508D01*
X15680361Y-9148508D02*
X15661313Y-9119936D01*
X15661313Y-9119936D02*
X15651789Y-9110412D01*
D13*
X10686250Y-9511500D02*
G75*
G03*
X10686250Y-9511500I-40000J0D01*
G01*
D11*
X10985122Y-9402984D02*
X11004170Y-9402984D01*
X11004170Y-9402984D02*
X11023217Y-9412508D01*
X11023217Y-9412508D02*
X11032741Y-9422031D01*
X11032741Y-9422031D02*
X11042265Y-9441079D01*
X11042265Y-9441079D02*
X11051789Y-9479174D01*
X11051789Y-9479174D02*
X11051789Y-9526793D01*
X11051789Y-9526793D02*
X11042265Y-9564889D01*
X11042265Y-9564889D02*
X11032741Y-9583936D01*
X11032741Y-9583936D02*
X11023217Y-9593460D01*
X11023217Y-9593460D02*
X11004170Y-9602984D01*
X11004170Y-9602984D02*
X10985122Y-9602984D01*
X10985122Y-9602984D02*
X10966074Y-9593460D01*
X10966074Y-9593460D02*
X10956551Y-9583936D01*
X10956551Y-9583936D02*
X10947027Y-9564889D01*
X10947027Y-9564889D02*
X10937503Y-9526793D01*
X10937503Y-9526793D02*
X10937503Y-9479174D01*
X10937503Y-9479174D02*
X10947027Y-9441079D01*
X10947027Y-9441079D02*
X10956551Y-9422031D01*
X10956551Y-9422031D02*
X10966074Y-9412508D01*
X10966074Y-9412508D02*
X10985122Y-9402984D01*
X11137503Y-9583936D02*
X11147027Y-9593460D01*
X11147027Y-9593460D02*
X11137503Y-9602984D01*
X11137503Y-9602984D02*
X11127979Y-9593460D01*
X11127979Y-9593460D02*
X11137503Y-9583936D01*
X11137503Y-9583936D02*
X11137503Y-9602984D01*
X11261312Y-9488698D02*
X11242265Y-9479174D01*
X11242265Y-9479174D02*
X11232741Y-9469650D01*
X11232741Y-9469650D02*
X11223217Y-9450603D01*
X11223217Y-9450603D02*
X11223217Y-9441079D01*
X11223217Y-9441079D02*
X11232741Y-9422031D01*
X11232741Y-9422031D02*
X11242265Y-9412508D01*
X11242265Y-9412508D02*
X11261312Y-9402984D01*
X11261312Y-9402984D02*
X11299408Y-9402984D01*
X11299408Y-9402984D02*
X11318455Y-9412508D01*
X11318455Y-9412508D02*
X11327979Y-9422031D01*
X11327979Y-9422031D02*
X11337503Y-9441079D01*
X11337503Y-9441079D02*
X11337503Y-9450603D01*
X11337503Y-9450603D02*
X11327979Y-9469650D01*
X11327979Y-9469650D02*
X11318455Y-9479174D01*
X11318455Y-9479174D02*
X11299408Y-9488698D01*
X11299408Y-9488698D02*
X11261312Y-9488698D01*
X11261312Y-9488698D02*
X11242265Y-9498222D01*
X11242265Y-9498222D02*
X11232741Y-9507746D01*
X11232741Y-9507746D02*
X11223217Y-9526793D01*
X11223217Y-9526793D02*
X11223217Y-9564889D01*
X11223217Y-9564889D02*
X11232741Y-9583936D01*
X11232741Y-9583936D02*
X11242265Y-9593460D01*
X11242265Y-9593460D02*
X11261312Y-9602984D01*
X11261312Y-9602984D02*
X11299408Y-9602984D01*
X11299408Y-9602984D02*
X11318455Y-9593460D01*
X11318455Y-9593460D02*
X11327979Y-9583936D01*
X11327979Y-9583936D02*
X11337503Y-9564889D01*
X11337503Y-9564889D02*
X11337503Y-9526793D01*
X11337503Y-9526793D02*
X11327979Y-9507746D01*
X11327979Y-9507746D02*
X11318455Y-9498222D01*
X11318455Y-9498222D02*
X11299408Y-9488698D01*
X11461312Y-9402984D02*
X11480360Y-9402984D01*
X11480360Y-9402984D02*
X11499408Y-9412508D01*
X11499408Y-9412508D02*
X11508932Y-9422031D01*
X11508932Y-9422031D02*
X11518455Y-9441079D01*
X11518455Y-9441079D02*
X11527979Y-9479174D01*
X11527979Y-9479174D02*
X11527979Y-9526793D01*
X11527979Y-9526793D02*
X11518455Y-9564889D01*
X11518455Y-9564889D02*
X11508932Y-9583936D01*
X11508932Y-9583936D02*
X11499408Y-9593460D01*
X11499408Y-9593460D02*
X11480360Y-9602984D01*
X11480360Y-9602984D02*
X11461312Y-9602984D01*
X11461312Y-9602984D02*
X11442265Y-9593460D01*
X11442265Y-9593460D02*
X11432741Y-9583936D01*
X11432741Y-9583936D02*
X11423217Y-9564889D01*
X11423217Y-9564889D02*
X11413693Y-9526793D01*
X11413693Y-9526793D02*
X11413693Y-9479174D01*
X11413693Y-9479174D02*
X11423217Y-9441079D01*
X11423217Y-9441079D02*
X11432741Y-9422031D01*
X11432741Y-9422031D02*
X11442265Y-9412508D01*
X11442265Y-9412508D02*
X11461312Y-9402984D01*
X11651789Y-9402984D02*
X11670836Y-9402984D01*
X11670836Y-9402984D02*
X11689884Y-9412508D01*
X11689884Y-9412508D02*
X11699408Y-9422031D01*
X11699408Y-9422031D02*
X11708932Y-9441079D01*
X11708932Y-9441079D02*
X11718455Y-9479174D01*
X11718455Y-9479174D02*
X11718455Y-9526793D01*
X11718455Y-9526793D02*
X11708932Y-9564889D01*
X11708932Y-9564889D02*
X11699408Y-9583936D01*
X11699408Y-9583936D02*
X11689884Y-9593460D01*
X11689884Y-9593460D02*
X11670836Y-9602984D01*
X11670836Y-9602984D02*
X11651789Y-9602984D01*
X11651789Y-9602984D02*
X11632741Y-9593460D01*
X11632741Y-9593460D02*
X11623217Y-9583936D01*
X11623217Y-9583936D02*
X11613693Y-9564889D01*
X11613693Y-9564889D02*
X11604170Y-9526793D01*
X11604170Y-9526793D02*
X11604170Y-9479174D01*
X11604170Y-9479174D02*
X11613693Y-9441079D01*
X11613693Y-9441079D02*
X11623217Y-9422031D01*
X11623217Y-9422031D02*
X11632741Y-9412508D01*
X11632741Y-9412508D02*
X11651789Y-9402984D01*
X11804170Y-9602984D02*
X11804170Y-9469650D01*
X11804170Y-9488698D02*
X11813693Y-9479174D01*
X11813693Y-9479174D02*
X11832741Y-9469650D01*
X11832741Y-9469650D02*
X11861313Y-9469650D01*
X11861313Y-9469650D02*
X11880360Y-9479174D01*
X11880360Y-9479174D02*
X11889884Y-9498222D01*
X11889884Y-9498222D02*
X11889884Y-9602984D01*
X11889884Y-9498222D02*
X11899408Y-9479174D01*
X11899408Y-9479174D02*
X11918455Y-9469650D01*
X11918455Y-9469650D02*
X11947027Y-9469650D01*
X11947027Y-9469650D02*
X11966074Y-9479174D01*
X11966074Y-9479174D02*
X11975598Y-9498222D01*
X11975598Y-9498222D02*
X11975598Y-9602984D01*
X12070836Y-9602984D02*
X12070836Y-9469650D01*
X12070836Y-9488698D02*
X12080360Y-9479174D01*
X12080360Y-9479174D02*
X12099408Y-9469650D01*
X12099408Y-9469650D02*
X12127979Y-9469650D01*
X12127979Y-9469650D02*
X12147027Y-9479174D01*
X12147027Y-9479174D02*
X12156551Y-9498222D01*
X12156551Y-9498222D02*
X12156551Y-9602984D01*
X12156551Y-9498222D02*
X12166074Y-9479174D01*
X12166074Y-9479174D02*
X12185122Y-9469650D01*
X12185122Y-9469650D02*
X12213693Y-9469650D01*
X12213693Y-9469650D02*
X12232741Y-9479174D01*
X12232741Y-9479174D02*
X12242265Y-9498222D01*
X12242265Y-9498222D02*
X12242265Y-9602984D01*
X12632741Y-9393460D02*
X12461313Y-9650603D01*
X12889884Y-9402984D02*
X12908932Y-9402984D01*
X12908932Y-9402984D02*
X12927979Y-9412508D01*
X12927979Y-9412508D02*
X12937503Y-9422031D01*
X12937503Y-9422031D02*
X12947027Y-9441079D01*
X12947027Y-9441079D02*
X12956551Y-9479174D01*
X12956551Y-9479174D02*
X12956551Y-9526793D01*
X12956551Y-9526793D02*
X12947027Y-9564889D01*
X12947027Y-9564889D02*
X12937503Y-9583936D01*
X12937503Y-9583936D02*
X12927979Y-9593460D01*
X12927979Y-9593460D02*
X12908932Y-9602984D01*
X12908932Y-9602984D02*
X12889884Y-9602984D01*
X12889884Y-9602984D02*
X12870836Y-9593460D01*
X12870836Y-9593460D02*
X12861313Y-9583936D01*
X12861313Y-9583936D02*
X12851789Y-9564889D01*
X12851789Y-9564889D02*
X12842265Y-9526793D01*
X12842265Y-9526793D02*
X12842265Y-9479174D01*
X12842265Y-9479174D02*
X12851789Y-9441079D01*
X12851789Y-9441079D02*
X12861313Y-9422031D01*
X12861313Y-9422031D02*
X12870836Y-9412508D01*
X12870836Y-9412508D02*
X12889884Y-9402984D01*
X13042265Y-9583936D02*
X13051789Y-9593460D01*
X13051789Y-9593460D02*
X13042265Y-9602984D01*
X13042265Y-9602984D02*
X13032741Y-9593460D01*
X13032741Y-9593460D02*
X13042265Y-9583936D01*
X13042265Y-9583936D02*
X13042265Y-9602984D01*
X13175598Y-9402984D02*
X13194646Y-9402984D01*
X13194646Y-9402984D02*
X13213694Y-9412508D01*
X13213694Y-9412508D02*
X13223217Y-9422031D01*
X13223217Y-9422031D02*
X13232741Y-9441079D01*
X13232741Y-9441079D02*
X13242265Y-9479174D01*
X13242265Y-9479174D02*
X13242265Y-9526793D01*
X13242265Y-9526793D02*
X13232741Y-9564889D01*
X13232741Y-9564889D02*
X13223217Y-9583936D01*
X13223217Y-9583936D02*
X13213694Y-9593460D01*
X13213694Y-9593460D02*
X13194646Y-9602984D01*
X13194646Y-9602984D02*
X13175598Y-9602984D01*
X13175598Y-9602984D02*
X13156551Y-9593460D01*
X13156551Y-9593460D02*
X13147027Y-9583936D01*
X13147027Y-9583936D02*
X13137503Y-9564889D01*
X13137503Y-9564889D02*
X13127979Y-9526793D01*
X13127979Y-9526793D02*
X13127979Y-9479174D01*
X13127979Y-9479174D02*
X13137503Y-9441079D01*
X13137503Y-9441079D02*
X13147027Y-9422031D01*
X13147027Y-9422031D02*
X13156551Y-9412508D01*
X13156551Y-9412508D02*
X13175598Y-9402984D01*
X13308932Y-9402984D02*
X13432741Y-9402984D01*
X13432741Y-9402984D02*
X13366075Y-9479174D01*
X13366075Y-9479174D02*
X13394646Y-9479174D01*
X13394646Y-9479174D02*
X13413694Y-9488698D01*
X13413694Y-9488698D02*
X13423217Y-9498222D01*
X13423217Y-9498222D02*
X13432741Y-9517270D01*
X13432741Y-9517270D02*
X13432741Y-9564889D01*
X13432741Y-9564889D02*
X13423217Y-9583936D01*
X13423217Y-9583936D02*
X13413694Y-9593460D01*
X13413694Y-9593460D02*
X13394646Y-9602984D01*
X13394646Y-9602984D02*
X13337503Y-9602984D01*
X13337503Y-9602984D02*
X13318456Y-9593460D01*
X13318456Y-9593460D02*
X13308932Y-9583936D01*
X13623217Y-9602984D02*
X13508932Y-9602984D01*
X13566075Y-9602984D02*
X13566075Y-9402984D01*
X13566075Y-9402984D02*
X13547027Y-9431555D01*
X13547027Y-9431555D02*
X13527979Y-9450603D01*
X13527979Y-9450603D02*
X13508932Y-9460127D01*
X13804170Y-9402984D02*
X13708932Y-9402984D01*
X13708932Y-9402984D02*
X13699408Y-9498222D01*
X13699408Y-9498222D02*
X13708932Y-9488698D01*
X13708932Y-9488698D02*
X13727979Y-9479174D01*
X13727979Y-9479174D02*
X13775598Y-9479174D01*
X13775598Y-9479174D02*
X13794646Y-9488698D01*
X13794646Y-9488698D02*
X13804170Y-9498222D01*
X13804170Y-9498222D02*
X13813694Y-9517270D01*
X13813694Y-9517270D02*
X13813694Y-9564889D01*
X13813694Y-9564889D02*
X13804170Y-9583936D01*
X13804170Y-9583936D02*
X13794646Y-9593460D01*
X13794646Y-9593460D02*
X13775598Y-9602984D01*
X13775598Y-9602984D02*
X13727979Y-9602984D01*
X13727979Y-9602984D02*
X13708932Y-9593460D01*
X13708932Y-9593460D02*
X13699408Y-9583936D01*
X13889884Y-9402984D02*
X13889884Y-9441079D01*
X13966075Y-9402984D02*
X13966075Y-9441079D01*
X14261313Y-9679174D02*
X14251789Y-9669650D01*
X14251789Y-9669650D02*
X14232741Y-9641079D01*
X14232741Y-9641079D02*
X14223218Y-9622031D01*
X14223218Y-9622031D02*
X14213694Y-9593460D01*
X14213694Y-9593460D02*
X14204170Y-9545841D01*
X14204170Y-9545841D02*
X14204170Y-9507746D01*
X14204170Y-9507746D02*
X14213694Y-9460127D01*
X14213694Y-9460127D02*
X14223218Y-9431555D01*
X14223218Y-9431555D02*
X14232741Y-9412508D01*
X14232741Y-9412508D02*
X14251789Y-9383936D01*
X14251789Y-9383936D02*
X14261313Y-9374412D01*
X14423218Y-9469650D02*
X14423218Y-9602984D01*
X14375598Y-9393460D02*
X14327979Y-9536317D01*
X14327979Y-9536317D02*
X14451789Y-9536317D01*
X14613694Y-9469650D02*
X14613694Y-9602984D01*
X14566075Y-9393460D02*
X14518456Y-9536317D01*
X14518456Y-9536317D02*
X14642265Y-9536317D01*
X14870837Y-9602984D02*
X14870837Y-9402984D01*
X14956551Y-9602984D02*
X14956551Y-9498222D01*
X14956551Y-9498222D02*
X14947027Y-9479174D01*
X14947027Y-9479174D02*
X14927980Y-9469650D01*
X14927980Y-9469650D02*
X14899408Y-9469650D01*
X14899408Y-9469650D02*
X14880360Y-9479174D01*
X14880360Y-9479174D02*
X14870837Y-9488698D01*
X15080360Y-9602984D02*
X15061313Y-9593460D01*
X15061313Y-9593460D02*
X15051789Y-9583936D01*
X15051789Y-9583936D02*
X15042265Y-9564889D01*
X15042265Y-9564889D02*
X15042265Y-9507746D01*
X15042265Y-9507746D02*
X15051789Y-9488698D01*
X15051789Y-9488698D02*
X15061313Y-9479174D01*
X15061313Y-9479174D02*
X15080360Y-9469650D01*
X15080360Y-9469650D02*
X15108932Y-9469650D01*
X15108932Y-9469650D02*
X15127980Y-9479174D01*
X15127980Y-9479174D02*
X15137503Y-9488698D01*
X15137503Y-9488698D02*
X15147027Y-9507746D01*
X15147027Y-9507746D02*
X15147027Y-9564889D01*
X15147027Y-9564889D02*
X15137503Y-9583936D01*
X15137503Y-9583936D02*
X15127980Y-9593460D01*
X15127980Y-9593460D02*
X15108932Y-9602984D01*
X15108932Y-9602984D02*
X15080360Y-9602984D01*
X15261313Y-9602984D02*
X15242265Y-9593460D01*
X15242265Y-9593460D02*
X15232741Y-9574412D01*
X15232741Y-9574412D02*
X15232741Y-9402984D01*
X15413694Y-9593460D02*
X15394646Y-9602984D01*
X15394646Y-9602984D02*
X15356551Y-9602984D01*
X15356551Y-9602984D02*
X15337503Y-9593460D01*
X15337503Y-9593460D02*
X15327980Y-9574412D01*
X15327980Y-9574412D02*
X15327980Y-9498222D01*
X15327980Y-9498222D02*
X15337503Y-9479174D01*
X15337503Y-9479174D02*
X15356551Y-9469650D01*
X15356551Y-9469650D02*
X15394646Y-9469650D01*
X15394646Y-9469650D02*
X15413694Y-9479174D01*
X15413694Y-9479174D02*
X15423218Y-9498222D01*
X15423218Y-9498222D02*
X15423218Y-9517270D01*
X15423218Y-9517270D02*
X15327980Y-9536317D01*
X15499408Y-9593460D02*
X15518456Y-9602984D01*
X15518456Y-9602984D02*
X15556551Y-9602984D01*
X15556551Y-9602984D02*
X15575599Y-9593460D01*
X15575599Y-9593460D02*
X15585122Y-9574412D01*
X15585122Y-9574412D02*
X15585122Y-9564889D01*
X15585122Y-9564889D02*
X15575599Y-9545841D01*
X15575599Y-9545841D02*
X15556551Y-9536317D01*
X15556551Y-9536317D02*
X15527980Y-9536317D01*
X15527980Y-9536317D02*
X15508932Y-9526793D01*
X15508932Y-9526793D02*
X15499408Y-9507746D01*
X15499408Y-9507746D02*
X15499408Y-9498222D01*
X15499408Y-9498222D02*
X15508932Y-9479174D01*
X15508932Y-9479174D02*
X15527980Y-9469650D01*
X15527980Y-9469650D02*
X15556551Y-9469650D01*
X15556551Y-9469650D02*
X15575599Y-9479174D01*
X15651789Y-9679174D02*
X15661313Y-9669650D01*
X15661313Y-9669650D02*
X15680361Y-9641079D01*
X15680361Y-9641079D02*
X15689884Y-9622031D01*
X15689884Y-9622031D02*
X15699408Y-9593460D01*
X15699408Y-9593460D02*
X15708932Y-9545841D01*
X15708932Y-9545841D02*
X15708932Y-9507746D01*
X15708932Y-9507746D02*
X15699408Y-9460127D01*
X15699408Y-9460127D02*
X15689884Y-9431555D01*
X15689884Y-9431555D02*
X15680361Y-9412508D01*
X15680361Y-9412508D02*
X15661313Y-9383936D01*
X15661313Y-9383936D02*
X15651789Y-9374412D01*
D10*
X10636250Y-9725500D02*
X10636250Y-9825500D01*
X10586250Y-9775500D02*
X10686250Y-9775500D01*
D11*
X11051789Y-9866984D02*
X10937503Y-9866984D01*
X10994646Y-9866984D02*
X10994646Y-9666984D01*
X10994646Y-9666984D02*
X10975598Y-9695555D01*
X10975598Y-9695555D02*
X10956551Y-9714603D01*
X10956551Y-9714603D02*
X10937503Y-9724127D01*
X11137503Y-9847936D02*
X11147027Y-9857460D01*
X11147027Y-9857460D02*
X11137503Y-9866984D01*
X11137503Y-9866984D02*
X11127979Y-9857460D01*
X11127979Y-9857460D02*
X11137503Y-9847936D01*
X11137503Y-9847936D02*
X11137503Y-9866984D01*
X11270836Y-9666984D02*
X11289884Y-9666984D01*
X11289884Y-9666984D02*
X11308932Y-9676508D01*
X11308932Y-9676508D02*
X11318455Y-9686031D01*
X11318455Y-9686031D02*
X11327979Y-9705079D01*
X11327979Y-9705079D02*
X11337503Y-9743174D01*
X11337503Y-9743174D02*
X11337503Y-9790793D01*
X11337503Y-9790793D02*
X11327979Y-9828889D01*
X11327979Y-9828889D02*
X11318455Y-9847936D01*
X11318455Y-9847936D02*
X11308932Y-9857460D01*
X11308932Y-9857460D02*
X11289884Y-9866984D01*
X11289884Y-9866984D02*
X11270836Y-9866984D01*
X11270836Y-9866984D02*
X11251789Y-9857460D01*
X11251789Y-9857460D02*
X11242265Y-9847936D01*
X11242265Y-9847936D02*
X11232741Y-9828889D01*
X11232741Y-9828889D02*
X11223217Y-9790793D01*
X11223217Y-9790793D02*
X11223217Y-9743174D01*
X11223217Y-9743174D02*
X11232741Y-9705079D01*
X11232741Y-9705079D02*
X11242265Y-9686031D01*
X11242265Y-9686031D02*
X11251789Y-9676508D01*
X11251789Y-9676508D02*
X11270836Y-9666984D01*
X11461312Y-9666984D02*
X11480360Y-9666984D01*
X11480360Y-9666984D02*
X11499408Y-9676508D01*
X11499408Y-9676508D02*
X11508932Y-9686031D01*
X11508932Y-9686031D02*
X11518455Y-9705079D01*
X11518455Y-9705079D02*
X11527979Y-9743174D01*
X11527979Y-9743174D02*
X11527979Y-9790793D01*
X11527979Y-9790793D02*
X11518455Y-9828889D01*
X11518455Y-9828889D02*
X11508932Y-9847936D01*
X11508932Y-9847936D02*
X11499408Y-9857460D01*
X11499408Y-9857460D02*
X11480360Y-9866984D01*
X11480360Y-9866984D02*
X11461312Y-9866984D01*
X11461312Y-9866984D02*
X11442265Y-9857460D01*
X11442265Y-9857460D02*
X11432741Y-9847936D01*
X11432741Y-9847936D02*
X11423217Y-9828889D01*
X11423217Y-9828889D02*
X11413693Y-9790793D01*
X11413693Y-9790793D02*
X11413693Y-9743174D01*
X11413693Y-9743174D02*
X11423217Y-9705079D01*
X11423217Y-9705079D02*
X11432741Y-9686031D01*
X11432741Y-9686031D02*
X11442265Y-9676508D01*
X11442265Y-9676508D02*
X11461312Y-9666984D01*
X11651789Y-9666984D02*
X11670836Y-9666984D01*
X11670836Y-9666984D02*
X11689884Y-9676508D01*
X11689884Y-9676508D02*
X11699408Y-9686031D01*
X11699408Y-9686031D02*
X11708932Y-9705079D01*
X11708932Y-9705079D02*
X11718455Y-9743174D01*
X11718455Y-9743174D02*
X11718455Y-9790793D01*
X11718455Y-9790793D02*
X11708932Y-9828889D01*
X11708932Y-9828889D02*
X11699408Y-9847936D01*
X11699408Y-9847936D02*
X11689884Y-9857460D01*
X11689884Y-9857460D02*
X11670836Y-9866984D01*
X11670836Y-9866984D02*
X11651789Y-9866984D01*
X11651789Y-9866984D02*
X11632741Y-9857460D01*
X11632741Y-9857460D02*
X11623217Y-9847936D01*
X11623217Y-9847936D02*
X11613693Y-9828889D01*
X11613693Y-9828889D02*
X11604170Y-9790793D01*
X11604170Y-9790793D02*
X11604170Y-9743174D01*
X11604170Y-9743174D02*
X11613693Y-9705079D01*
X11613693Y-9705079D02*
X11623217Y-9686031D01*
X11623217Y-9686031D02*
X11632741Y-9676508D01*
X11632741Y-9676508D02*
X11651789Y-9666984D01*
X11804170Y-9866984D02*
X11804170Y-9733650D01*
X11804170Y-9752698D02*
X11813693Y-9743174D01*
X11813693Y-9743174D02*
X11832741Y-9733650D01*
X11832741Y-9733650D02*
X11861313Y-9733650D01*
X11861313Y-9733650D02*
X11880360Y-9743174D01*
X11880360Y-9743174D02*
X11889884Y-9762222D01*
X11889884Y-9762222D02*
X11889884Y-9866984D01*
X11889884Y-9762222D02*
X11899408Y-9743174D01*
X11899408Y-9743174D02*
X11918455Y-9733650D01*
X11918455Y-9733650D02*
X11947027Y-9733650D01*
X11947027Y-9733650D02*
X11966074Y-9743174D01*
X11966074Y-9743174D02*
X11975598Y-9762222D01*
X11975598Y-9762222D02*
X11975598Y-9866984D01*
X12070836Y-9866984D02*
X12070836Y-9733650D01*
X12070836Y-9752698D02*
X12080360Y-9743174D01*
X12080360Y-9743174D02*
X12099408Y-9733650D01*
X12099408Y-9733650D02*
X12127979Y-9733650D01*
X12127979Y-9733650D02*
X12147027Y-9743174D01*
X12147027Y-9743174D02*
X12156551Y-9762222D01*
X12156551Y-9762222D02*
X12156551Y-9866984D01*
X12156551Y-9762222D02*
X12166074Y-9743174D01*
X12166074Y-9743174D02*
X12185122Y-9733650D01*
X12185122Y-9733650D02*
X12213693Y-9733650D01*
X12213693Y-9733650D02*
X12232741Y-9743174D01*
X12232741Y-9743174D02*
X12242265Y-9762222D01*
X12242265Y-9762222D02*
X12242265Y-9866984D01*
X12632741Y-9657460D02*
X12461313Y-9914603D01*
X12889884Y-9666984D02*
X12908932Y-9666984D01*
X12908932Y-9666984D02*
X12927979Y-9676508D01*
X12927979Y-9676508D02*
X12937503Y-9686031D01*
X12937503Y-9686031D02*
X12947027Y-9705079D01*
X12947027Y-9705079D02*
X12956551Y-9743174D01*
X12956551Y-9743174D02*
X12956551Y-9790793D01*
X12956551Y-9790793D02*
X12947027Y-9828889D01*
X12947027Y-9828889D02*
X12937503Y-9847936D01*
X12937503Y-9847936D02*
X12927979Y-9857460D01*
X12927979Y-9857460D02*
X12908932Y-9866984D01*
X12908932Y-9866984D02*
X12889884Y-9866984D01*
X12889884Y-9866984D02*
X12870836Y-9857460D01*
X12870836Y-9857460D02*
X12861313Y-9847936D01*
X12861313Y-9847936D02*
X12851789Y-9828889D01*
X12851789Y-9828889D02*
X12842265Y-9790793D01*
X12842265Y-9790793D02*
X12842265Y-9743174D01*
X12842265Y-9743174D02*
X12851789Y-9705079D01*
X12851789Y-9705079D02*
X12861313Y-9686031D01*
X12861313Y-9686031D02*
X12870836Y-9676508D01*
X12870836Y-9676508D02*
X12889884Y-9666984D01*
X13042265Y-9847936D02*
X13051789Y-9857460D01*
X13051789Y-9857460D02*
X13042265Y-9866984D01*
X13042265Y-9866984D02*
X13032741Y-9857460D01*
X13032741Y-9857460D02*
X13042265Y-9847936D01*
X13042265Y-9847936D02*
X13042265Y-9866984D01*
X13175598Y-9666984D02*
X13194646Y-9666984D01*
X13194646Y-9666984D02*
X13213694Y-9676508D01*
X13213694Y-9676508D02*
X13223217Y-9686031D01*
X13223217Y-9686031D02*
X13232741Y-9705079D01*
X13232741Y-9705079D02*
X13242265Y-9743174D01*
X13242265Y-9743174D02*
X13242265Y-9790793D01*
X13242265Y-9790793D02*
X13232741Y-9828889D01*
X13232741Y-9828889D02*
X13223217Y-9847936D01*
X13223217Y-9847936D02*
X13213694Y-9857460D01*
X13213694Y-9857460D02*
X13194646Y-9866984D01*
X13194646Y-9866984D02*
X13175598Y-9866984D01*
X13175598Y-9866984D02*
X13156551Y-9857460D01*
X13156551Y-9857460D02*
X13147027Y-9847936D01*
X13147027Y-9847936D02*
X13137503Y-9828889D01*
X13137503Y-9828889D02*
X13127979Y-9790793D01*
X13127979Y-9790793D02*
X13127979Y-9743174D01*
X13127979Y-9743174D02*
X13137503Y-9705079D01*
X13137503Y-9705079D02*
X13147027Y-9686031D01*
X13147027Y-9686031D02*
X13156551Y-9676508D01*
X13156551Y-9676508D02*
X13175598Y-9666984D01*
X13308932Y-9666984D02*
X13432741Y-9666984D01*
X13432741Y-9666984D02*
X13366075Y-9743174D01*
X13366075Y-9743174D02*
X13394646Y-9743174D01*
X13394646Y-9743174D02*
X13413694Y-9752698D01*
X13413694Y-9752698D02*
X13423217Y-9762222D01*
X13423217Y-9762222D02*
X13432741Y-9781270D01*
X13432741Y-9781270D02*
X13432741Y-9828889D01*
X13432741Y-9828889D02*
X13423217Y-9847936D01*
X13423217Y-9847936D02*
X13413694Y-9857460D01*
X13413694Y-9857460D02*
X13394646Y-9866984D01*
X13394646Y-9866984D02*
X13337503Y-9866984D01*
X13337503Y-9866984D02*
X13318456Y-9857460D01*
X13318456Y-9857460D02*
X13308932Y-9847936D01*
X13527979Y-9866984D02*
X13566075Y-9866984D01*
X13566075Y-9866984D02*
X13585122Y-9857460D01*
X13585122Y-9857460D02*
X13594646Y-9847936D01*
X13594646Y-9847936D02*
X13613694Y-9819365D01*
X13613694Y-9819365D02*
X13623217Y-9781270D01*
X13623217Y-9781270D02*
X13623217Y-9705079D01*
X13623217Y-9705079D02*
X13613694Y-9686031D01*
X13613694Y-9686031D02*
X13604170Y-9676508D01*
X13604170Y-9676508D02*
X13585122Y-9666984D01*
X13585122Y-9666984D02*
X13547027Y-9666984D01*
X13547027Y-9666984D02*
X13527979Y-9676508D01*
X13527979Y-9676508D02*
X13518456Y-9686031D01*
X13518456Y-9686031D02*
X13508932Y-9705079D01*
X13508932Y-9705079D02*
X13508932Y-9752698D01*
X13508932Y-9752698D02*
X13518456Y-9771746D01*
X13518456Y-9771746D02*
X13527979Y-9781270D01*
X13527979Y-9781270D02*
X13547027Y-9790793D01*
X13547027Y-9790793D02*
X13585122Y-9790793D01*
X13585122Y-9790793D02*
X13604170Y-9781270D01*
X13604170Y-9781270D02*
X13613694Y-9771746D01*
X13613694Y-9771746D02*
X13623217Y-9752698D01*
X13794646Y-9733650D02*
X13794646Y-9866984D01*
X13747027Y-9657460D02*
X13699408Y-9800317D01*
X13699408Y-9800317D02*
X13823217Y-9800317D01*
X13889884Y-9666984D02*
X13889884Y-9705079D01*
X13966075Y-9666984D02*
X13966075Y-9705079D01*
X14261313Y-9943174D02*
X14251789Y-9933650D01*
X14251789Y-9933650D02*
X14232741Y-9905079D01*
X14232741Y-9905079D02*
X14223218Y-9886031D01*
X14223218Y-9886031D02*
X14213694Y-9857460D01*
X14213694Y-9857460D02*
X14204170Y-9809841D01*
X14204170Y-9809841D02*
X14204170Y-9771746D01*
X14204170Y-9771746D02*
X14213694Y-9724127D01*
X14213694Y-9724127D02*
X14223218Y-9695555D01*
X14223218Y-9695555D02*
X14232741Y-9676508D01*
X14232741Y-9676508D02*
X14251789Y-9647936D01*
X14251789Y-9647936D02*
X14261313Y-9638412D01*
X14327979Y-9686031D02*
X14337503Y-9676508D01*
X14337503Y-9676508D02*
X14356551Y-9666984D01*
X14356551Y-9666984D02*
X14404170Y-9666984D01*
X14404170Y-9666984D02*
X14423218Y-9676508D01*
X14423218Y-9676508D02*
X14432741Y-9686031D01*
X14432741Y-9686031D02*
X14442265Y-9705079D01*
X14442265Y-9705079D02*
X14442265Y-9724127D01*
X14442265Y-9724127D02*
X14432741Y-9752698D01*
X14432741Y-9752698D02*
X14318456Y-9866984D01*
X14318456Y-9866984D02*
X14442265Y-9866984D01*
X14680360Y-9866984D02*
X14680360Y-9666984D01*
X14766075Y-9866984D02*
X14766075Y-9762222D01*
X14766075Y-9762222D02*
X14756551Y-9743174D01*
X14756551Y-9743174D02*
X14737503Y-9733650D01*
X14737503Y-9733650D02*
X14708932Y-9733650D01*
X14708932Y-9733650D02*
X14689884Y-9743174D01*
X14689884Y-9743174D02*
X14680360Y-9752698D01*
X14889884Y-9866984D02*
X14870837Y-9857460D01*
X14870837Y-9857460D02*
X14861313Y-9847936D01*
X14861313Y-9847936D02*
X14851789Y-9828889D01*
X14851789Y-9828889D02*
X14851789Y-9771746D01*
X14851789Y-9771746D02*
X14861313Y-9752698D01*
X14861313Y-9752698D02*
X14870837Y-9743174D01*
X14870837Y-9743174D02*
X14889884Y-9733650D01*
X14889884Y-9733650D02*
X14918456Y-9733650D01*
X14918456Y-9733650D02*
X14937503Y-9743174D01*
X14937503Y-9743174D02*
X14947027Y-9752698D01*
X14947027Y-9752698D02*
X14956551Y-9771746D01*
X14956551Y-9771746D02*
X14956551Y-9828889D01*
X14956551Y-9828889D02*
X14947027Y-9847936D01*
X14947027Y-9847936D02*
X14937503Y-9857460D01*
X14937503Y-9857460D02*
X14918456Y-9866984D01*
X14918456Y-9866984D02*
X14889884Y-9866984D01*
X15070837Y-9866984D02*
X15051789Y-9857460D01*
X15051789Y-9857460D02*
X15042265Y-9838412D01*
X15042265Y-9838412D02*
X15042265Y-9666984D01*
X15223218Y-9857460D02*
X15204170Y-9866984D01*
X15204170Y-9866984D02*
X15166075Y-9866984D01*
X15166075Y-9866984D02*
X15147027Y-9857460D01*
X15147027Y-9857460D02*
X15137503Y-9838412D01*
X15137503Y-9838412D02*
X15137503Y-9762222D01*
X15137503Y-9762222D02*
X15147027Y-9743174D01*
X15147027Y-9743174D02*
X15166075Y-9733650D01*
X15166075Y-9733650D02*
X15204170Y-9733650D01*
X15204170Y-9733650D02*
X15223218Y-9743174D01*
X15223218Y-9743174D02*
X15232741Y-9762222D01*
X15232741Y-9762222D02*
X15232741Y-9781270D01*
X15232741Y-9781270D02*
X15137503Y-9800317D01*
X15308932Y-9857460D02*
X15327980Y-9866984D01*
X15327980Y-9866984D02*
X15366075Y-9866984D01*
X15366075Y-9866984D02*
X15385122Y-9857460D01*
X15385122Y-9857460D02*
X15394646Y-9838412D01*
X15394646Y-9838412D02*
X15394646Y-9828889D01*
X15394646Y-9828889D02*
X15385122Y-9809841D01*
X15385122Y-9809841D02*
X15366075Y-9800317D01*
X15366075Y-9800317D02*
X15337503Y-9800317D01*
X15337503Y-9800317D02*
X15318456Y-9790793D01*
X15318456Y-9790793D02*
X15308932Y-9771746D01*
X15308932Y-9771746D02*
X15308932Y-9762222D01*
X15308932Y-9762222D02*
X15318456Y-9743174D01*
X15318456Y-9743174D02*
X15337503Y-9733650D01*
X15337503Y-9733650D02*
X15366075Y-9733650D01*
X15366075Y-9733650D02*
X15385122Y-9743174D01*
X15461313Y-9943174D02*
X15470837Y-9933650D01*
X15470837Y-9933650D02*
X15489884Y-9905079D01*
X15489884Y-9905079D02*
X15499408Y-9886031D01*
X15499408Y-9886031D02*
X15508932Y-9857460D01*
X15508932Y-9857460D02*
X15518456Y-9809841D01*
X15518456Y-9809841D02*
X15518456Y-9771746D01*
X15518456Y-9771746D02*
X15508932Y-9724127D01*
X15508932Y-9724127D02*
X15499408Y-9695555D01*
X15499408Y-9695555D02*
X15489884Y-9676508D01*
X15489884Y-9676508D02*
X15470837Y-9647936D01*
X15470837Y-9647936D02*
X15461313Y-9638412D01*
M02*
