%TF.GenerationSoftware,KiCad,Pcbnew,7.0.6*%
%TF.CreationDate,2023-09-04T21:12:20+01:00*%
%TF.ProjectId,TRSG3Mod,54525347-334d-46f6-942e-6b696361645f,rev?*%
%TF.SameCoordinates,Original*%
%TF.FileFunction,Soldermask,Top*%
%TF.FilePolarity,Negative*%
%FSLAX46Y46*%
G04 Gerber Fmt 4.6, Leading zero omitted, Abs format (unit mm)*
G04 Created by KiCad (PCBNEW 7.0.6) date 2023-09-04 21:12:20*
%MOMM*%
%LPD*%
G01*
G04 APERTURE LIST*
G04 Aperture macros list*
%AMRoundRect*
0 Rectangle with rounded corners*
0 $1 Rounding radius*
0 $2 $3 $4 $5 $6 $7 $8 $9 X,Y pos of 4 corners*
0 Add a 4 corners polygon primitive as box body*
4,1,4,$2,$3,$4,$5,$6,$7,$8,$9,$2,$3,0*
0 Add four circle primitives for the rounded corners*
1,1,$1+$1,$2,$3*
1,1,$1+$1,$4,$5*
1,1,$1+$1,$6,$7*
1,1,$1+$1,$8,$9*
0 Add four rect primitives between the rounded corners*
20,1,$1+$1,$2,$3,$4,$5,0*
20,1,$1+$1,$4,$5,$6,$7,0*
20,1,$1+$1,$6,$7,$8,$9,0*
20,1,$1+$1,$8,$9,$2,$3,0*%
G04 Aperture macros list end*
%ADD10R,1.600000X1.600000*%
%ADD11O,1.600000X1.600000*%
%ADD12RoundRect,0.135000X-0.135000X-0.185000X0.135000X-0.185000X0.135000X0.185000X-0.135000X0.185000X0*%
%ADD13R,1.700000X1.700000*%
%ADD14O,1.700000X1.700000*%
%ADD15RoundRect,0.250000X-0.262500X-0.450000X0.262500X-0.450000X0.262500X0.450000X-0.262500X0.450000X0*%
G04 APERTURE END LIST*
D10*
%TO.C,J1*%
X111793750Y-58050000D03*
D11*
X111793750Y-60590000D03*
X111793750Y-63130000D03*
X111793750Y-65670000D03*
X111793750Y-68210000D03*
X111793750Y-70750000D03*
X111793750Y-73290000D03*
X111793750Y-75830000D03*
X111793750Y-78370000D03*
X119413750Y-78370000D03*
X119413750Y-75830000D03*
X119413750Y-73290000D03*
X119413750Y-70750000D03*
X119413750Y-68210000D03*
X119413750Y-65670000D03*
X119413750Y-63130000D03*
X119413750Y-60590000D03*
X119413750Y-58050000D03*
%TD*%
D10*
%TO.C,SW1*%
X115575000Y-52775000D03*
D11*
X123195000Y-52775000D03*
%TD*%
D12*
%TO.C,R2*%
X115083750Y-57350000D03*
X116103750Y-57350000D03*
%TD*%
D13*
%TO.C,J2*%
X109285000Y-52825000D03*
D14*
X111825000Y-52825000D03*
%TD*%
D10*
%TO.C,U1*%
X107975000Y-56725000D03*
D11*
X107975000Y-59265000D03*
X107975000Y-61805000D03*
X107975000Y-64345000D03*
X107975000Y-66885000D03*
X107975000Y-69425000D03*
X107975000Y-71965000D03*
X107975000Y-74505000D03*
X107975000Y-77045000D03*
X107975000Y-79585000D03*
X107975000Y-82125000D03*
X107975000Y-84665000D03*
X123215000Y-84665000D03*
X123215000Y-82125000D03*
X123215000Y-79585000D03*
X123215000Y-77045000D03*
X123215000Y-74505000D03*
X123215000Y-71965000D03*
X123215000Y-69425000D03*
X123215000Y-66885000D03*
X123215000Y-64345000D03*
X123215000Y-61805000D03*
X123215000Y-59265000D03*
X123215000Y-56725000D03*
%TD*%
D15*
%TO.C,R1*%
X114681250Y-58900000D03*
X116506250Y-58900000D03*
%TD*%
M02*
