%TF.GenerationSoftware,KiCad,Pcbnew,7.0.6*%
%TF.CreationDate,2023-09-04T21:12:20+01:00*%
%TF.ProjectId,TRSG3Mod,54525347-334d-46f6-942e-6b696361645f,rev?*%
%TF.SameCoordinates,Original*%
%TF.FileFunction,Legend,Top*%
%TF.FilePolarity,Positive*%
%FSLAX46Y46*%
G04 Gerber Fmt 4.6, Leading zero omitted, Abs format (unit mm)*
G04 Created by KiCad (PCBNEW 7.0.6) date 2023-09-04 21:12:20*
%MOMM*%
%LPD*%
G01*
G04 APERTURE LIST*
%ADD10C,0.100000*%
%ADD11C,0.300000*%
%ADD12C,0.120000*%
G04 APERTURE END LIST*
D10*
X111360713Y-83835657D02*
X111332142Y-83807085D01*
X111332142Y-83807085D02*
X111274999Y-83778514D01*
X111274999Y-83778514D02*
X111217856Y-83778514D01*
X111217856Y-83778514D02*
X111160713Y-83807085D01*
X111160713Y-83807085D02*
X111132142Y-83835657D01*
X111132142Y-83835657D02*
X111103570Y-83892800D01*
X111103570Y-83892800D02*
X111103570Y-83949942D01*
X111103570Y-83949942D02*
X111132142Y-84007085D01*
X111132142Y-84007085D02*
X111160713Y-84035657D01*
X111160713Y-84035657D02*
X111217856Y-84064228D01*
X111217856Y-84064228D02*
X111274999Y-84064228D01*
X111274999Y-84064228D02*
X111332142Y-84035657D01*
X111332142Y-84035657D02*
X111360713Y-84007085D01*
X111360713Y-83778514D02*
X111360713Y-84007085D01*
X111360713Y-84007085D02*
X111389285Y-84035657D01*
X111389285Y-84035657D02*
X111417856Y-84035657D01*
X111417856Y-84035657D02*
X111474999Y-84007085D01*
X111474999Y-84007085D02*
X111503570Y-83949942D01*
X111503570Y-83949942D02*
X111503570Y-83807085D01*
X111503570Y-83807085D02*
X111446428Y-83721371D01*
X111446428Y-83721371D02*
X111360713Y-83664228D01*
X111360713Y-83664228D02*
X111246428Y-83635657D01*
X111246428Y-83635657D02*
X111132142Y-83664228D01*
X111132142Y-83664228D02*
X111046428Y-83721371D01*
X111046428Y-83721371D02*
X110989285Y-83807085D01*
X110989285Y-83807085D02*
X110960713Y-83921371D01*
X110960713Y-83921371D02*
X110989285Y-84035657D01*
X110989285Y-84035657D02*
X111046428Y-84121371D01*
X111046428Y-84121371D02*
X111132142Y-84178514D01*
X111132142Y-84178514D02*
X111246428Y-84207085D01*
X111246428Y-84207085D02*
X111360713Y-84178514D01*
X111360713Y-84178514D02*
X111446428Y-84121371D01*
X112017857Y-83721371D02*
X112017857Y-84207085D01*
X112017857Y-84207085D02*
X111989285Y-84264228D01*
X111989285Y-84264228D02*
X111960714Y-84292800D01*
X111960714Y-84292800D02*
X111903571Y-84321371D01*
X111903571Y-84321371D02*
X111817857Y-84321371D01*
X111817857Y-84321371D02*
X111760714Y-84292800D01*
X112017857Y-84092800D02*
X111960714Y-84121371D01*
X111960714Y-84121371D02*
X111846428Y-84121371D01*
X111846428Y-84121371D02*
X111789285Y-84092800D01*
X111789285Y-84092800D02*
X111760714Y-84064228D01*
X111760714Y-84064228D02*
X111732142Y-84007085D01*
X111732142Y-84007085D02*
X111732142Y-83835657D01*
X111732142Y-83835657D02*
X111760714Y-83778514D01*
X111760714Y-83778514D02*
X111789285Y-83749942D01*
X111789285Y-83749942D02*
X111846428Y-83721371D01*
X111846428Y-83721371D02*
X111960714Y-83721371D01*
X111960714Y-83721371D02*
X112017857Y-83749942D01*
X112303571Y-84121371D02*
X112303571Y-83721371D01*
X112303571Y-83835657D02*
X112332142Y-83778514D01*
X112332142Y-83778514D02*
X112360714Y-83749942D01*
X112360714Y-83749942D02*
X112417856Y-83721371D01*
X112417856Y-83721371D02*
X112474999Y-83721371D01*
X112932143Y-84121371D02*
X112932143Y-83807085D01*
X112932143Y-83807085D02*
X112903571Y-83749942D01*
X112903571Y-83749942D02*
X112846428Y-83721371D01*
X112846428Y-83721371D02*
X112732143Y-83721371D01*
X112732143Y-83721371D02*
X112675000Y-83749942D01*
X112932143Y-84092800D02*
X112875000Y-84121371D01*
X112875000Y-84121371D02*
X112732143Y-84121371D01*
X112732143Y-84121371D02*
X112675000Y-84092800D01*
X112675000Y-84092800D02*
X112646428Y-84035657D01*
X112646428Y-84035657D02*
X112646428Y-83978514D01*
X112646428Y-83978514D02*
X112675000Y-83921371D01*
X112675000Y-83921371D02*
X112732143Y-83892800D01*
X112732143Y-83892800D02*
X112875000Y-83892800D01*
X112875000Y-83892800D02*
X112932143Y-83864228D01*
X113217857Y-83721371D02*
X113217857Y-84121371D01*
X113217857Y-83778514D02*
X113246428Y-83749942D01*
X113246428Y-83749942D02*
X113303571Y-83721371D01*
X113303571Y-83721371D02*
X113389285Y-83721371D01*
X113389285Y-83721371D02*
X113446428Y-83749942D01*
X113446428Y-83749942D02*
X113475000Y-83807085D01*
X113475000Y-83807085D02*
X113475000Y-84121371D01*
X114017857Y-84121371D02*
X114017857Y-83521371D01*
X114017857Y-84092800D02*
X113960714Y-84121371D01*
X113960714Y-84121371D02*
X113846428Y-84121371D01*
X113846428Y-84121371D02*
X113789285Y-84092800D01*
X113789285Y-84092800D02*
X113760714Y-84064228D01*
X113760714Y-84064228D02*
X113732142Y-84007085D01*
X113732142Y-84007085D02*
X113732142Y-83835657D01*
X113732142Y-83835657D02*
X113760714Y-83778514D01*
X113760714Y-83778514D02*
X113789285Y-83749942D01*
X113789285Y-83749942D02*
X113846428Y-83721371D01*
X113846428Y-83721371D02*
X113960714Y-83721371D01*
X113960714Y-83721371D02*
X114017857Y-83749942D01*
X114389285Y-84121371D02*
X114332142Y-84092800D01*
X114332142Y-84092800D02*
X114303571Y-84064228D01*
X114303571Y-84064228D02*
X114274999Y-84007085D01*
X114274999Y-84007085D02*
X114274999Y-83835657D01*
X114274999Y-83835657D02*
X114303571Y-83778514D01*
X114303571Y-83778514D02*
X114332142Y-83749942D01*
X114332142Y-83749942D02*
X114389285Y-83721371D01*
X114389285Y-83721371D02*
X114474999Y-83721371D01*
X114474999Y-83721371D02*
X114532142Y-83749942D01*
X114532142Y-83749942D02*
X114560714Y-83778514D01*
X114560714Y-83778514D02*
X114589285Y-83835657D01*
X114589285Y-83835657D02*
X114589285Y-84007085D01*
X114589285Y-84007085D02*
X114560714Y-84064228D01*
X114560714Y-84064228D02*
X114532142Y-84092800D01*
X114532142Y-84092800D02*
X114474999Y-84121371D01*
X114474999Y-84121371D02*
X114389285Y-84121371D01*
X114932142Y-84121371D02*
X114874999Y-84092800D01*
X114874999Y-84092800D02*
X114846428Y-84035657D01*
X114846428Y-84035657D02*
X114846428Y-83521371D01*
X115417857Y-84121371D02*
X115417857Y-83521371D01*
X115417857Y-84092800D02*
X115360714Y-84121371D01*
X115360714Y-84121371D02*
X115246428Y-84121371D01*
X115246428Y-84121371D02*
X115189285Y-84092800D01*
X115189285Y-84092800D02*
X115160714Y-84064228D01*
X115160714Y-84064228D02*
X115132142Y-84007085D01*
X115132142Y-84007085D02*
X115132142Y-83835657D01*
X115132142Y-83835657D02*
X115160714Y-83778514D01*
X115160714Y-83778514D02*
X115189285Y-83749942D01*
X115189285Y-83749942D02*
X115246428Y-83721371D01*
X115246428Y-83721371D02*
X115360714Y-83721371D01*
X115360714Y-83721371D02*
X115417857Y-83749942D01*
X115703571Y-84121371D02*
X115703571Y-83721371D01*
X115703571Y-83521371D02*
X115674999Y-83549942D01*
X115674999Y-83549942D02*
X115703571Y-83578514D01*
X115703571Y-83578514D02*
X115732142Y-83549942D01*
X115732142Y-83549942D02*
X115703571Y-83521371D01*
X115703571Y-83521371D02*
X115703571Y-83578514D01*
X116246428Y-84121371D02*
X116246428Y-83807085D01*
X116246428Y-83807085D02*
X116217856Y-83749942D01*
X116217856Y-83749942D02*
X116160713Y-83721371D01*
X116160713Y-83721371D02*
X116046428Y-83721371D01*
X116046428Y-83721371D02*
X115989285Y-83749942D01*
X116246428Y-84092800D02*
X116189285Y-84121371D01*
X116189285Y-84121371D02*
X116046428Y-84121371D01*
X116046428Y-84121371D02*
X115989285Y-84092800D01*
X115989285Y-84092800D02*
X115960713Y-84035657D01*
X115960713Y-84035657D02*
X115960713Y-83978514D01*
X115960713Y-83978514D02*
X115989285Y-83921371D01*
X115989285Y-83921371D02*
X116046428Y-83892800D01*
X116046428Y-83892800D02*
X116189285Y-83892800D01*
X116189285Y-83892800D02*
X116246428Y-83864228D01*
X116532142Y-83721371D02*
X116532142Y-84121371D01*
X116532142Y-83778514D02*
X116560713Y-83749942D01*
X116560713Y-83749942D02*
X116617856Y-83721371D01*
X116617856Y-83721371D02*
X116703570Y-83721371D01*
X116703570Y-83721371D02*
X116760713Y-83749942D01*
X116760713Y-83749942D02*
X116789285Y-83807085D01*
X116789285Y-83807085D02*
X116789285Y-84121371D01*
X117646427Y-83521371D02*
X117703570Y-83521371D01*
X117703570Y-83521371D02*
X117760713Y-83549942D01*
X117760713Y-83549942D02*
X117789285Y-83578514D01*
X117789285Y-83578514D02*
X117817856Y-83635657D01*
X117817856Y-83635657D02*
X117846427Y-83749942D01*
X117846427Y-83749942D02*
X117846427Y-83892800D01*
X117846427Y-83892800D02*
X117817856Y-84007085D01*
X117817856Y-84007085D02*
X117789285Y-84064228D01*
X117789285Y-84064228D02*
X117760713Y-84092800D01*
X117760713Y-84092800D02*
X117703570Y-84121371D01*
X117703570Y-84121371D02*
X117646427Y-84121371D01*
X117646427Y-84121371D02*
X117589285Y-84092800D01*
X117589285Y-84092800D02*
X117560713Y-84064228D01*
X117560713Y-84064228D02*
X117532142Y-84007085D01*
X117532142Y-84007085D02*
X117503570Y-83892800D01*
X117503570Y-83892800D02*
X117503570Y-83749942D01*
X117503570Y-83749942D02*
X117532142Y-83635657D01*
X117532142Y-83635657D02*
X117560713Y-83578514D01*
X117560713Y-83578514D02*
X117589285Y-83549942D01*
X117589285Y-83549942D02*
X117646427Y-83521371D01*
X118132142Y-84121371D02*
X118246428Y-84121371D01*
X118246428Y-84121371D02*
X118303571Y-84092800D01*
X118303571Y-84092800D02*
X118332142Y-84064228D01*
X118332142Y-84064228D02*
X118389285Y-83978514D01*
X118389285Y-83978514D02*
X118417856Y-83864228D01*
X118417856Y-83864228D02*
X118417856Y-83635657D01*
X118417856Y-83635657D02*
X118389285Y-83578514D01*
X118389285Y-83578514D02*
X118360714Y-83549942D01*
X118360714Y-83549942D02*
X118303571Y-83521371D01*
X118303571Y-83521371D02*
X118189285Y-83521371D01*
X118189285Y-83521371D02*
X118132142Y-83549942D01*
X118132142Y-83549942D02*
X118103571Y-83578514D01*
X118103571Y-83578514D02*
X118074999Y-83635657D01*
X118074999Y-83635657D02*
X118074999Y-83778514D01*
X118074999Y-83778514D02*
X118103571Y-83835657D01*
X118103571Y-83835657D02*
X118132142Y-83864228D01*
X118132142Y-83864228D02*
X118189285Y-83892800D01*
X118189285Y-83892800D02*
X118303571Y-83892800D01*
X118303571Y-83892800D02*
X118360714Y-83864228D01*
X118360714Y-83864228D02*
X118389285Y-83835657D01*
X118389285Y-83835657D02*
X118417856Y-83778514D01*
X119103571Y-83492800D02*
X118589285Y-84264228D01*
X119274999Y-83578514D02*
X119303571Y-83549942D01*
X119303571Y-83549942D02*
X119360714Y-83521371D01*
X119360714Y-83521371D02*
X119503571Y-83521371D01*
X119503571Y-83521371D02*
X119560714Y-83549942D01*
X119560714Y-83549942D02*
X119589285Y-83578514D01*
X119589285Y-83578514D02*
X119617856Y-83635657D01*
X119617856Y-83635657D02*
X119617856Y-83692800D01*
X119617856Y-83692800D02*
X119589285Y-83778514D01*
X119589285Y-83778514D02*
X119246428Y-84121371D01*
X119246428Y-84121371D02*
X119617856Y-84121371D01*
X119817857Y-83521371D02*
X120189285Y-83521371D01*
X120189285Y-83521371D02*
X119989285Y-83749942D01*
X119989285Y-83749942D02*
X120075000Y-83749942D01*
X120075000Y-83749942D02*
X120132143Y-83778514D01*
X120132143Y-83778514D02*
X120160714Y-83807085D01*
X120160714Y-83807085D02*
X120189285Y-83864228D01*
X120189285Y-83864228D02*
X120189285Y-84007085D01*
X120189285Y-84007085D02*
X120160714Y-84064228D01*
X120160714Y-84064228D02*
X120132143Y-84092800D01*
X120132143Y-84092800D02*
X120075000Y-84121371D01*
X120075000Y-84121371D02*
X119903571Y-84121371D01*
X119903571Y-84121371D02*
X119846428Y-84092800D01*
X119846428Y-84092800D02*
X119817857Y-84064228D01*
D11*
X111715225Y-81647257D02*
X111572368Y-81575828D01*
X111572368Y-81575828D02*
X111358082Y-81575828D01*
X111358082Y-81575828D02*
X111143796Y-81647257D01*
X111143796Y-81647257D02*
X111000939Y-81790114D01*
X111000939Y-81790114D02*
X110929510Y-81932971D01*
X110929510Y-81932971D02*
X110858082Y-82218685D01*
X110858082Y-82218685D02*
X110858082Y-82432971D01*
X110858082Y-82432971D02*
X110929510Y-82718685D01*
X110929510Y-82718685D02*
X111000939Y-82861542D01*
X111000939Y-82861542D02*
X111143796Y-83004400D01*
X111143796Y-83004400D02*
X111358082Y-83075828D01*
X111358082Y-83075828D02*
X111500939Y-83075828D01*
X111500939Y-83075828D02*
X111715225Y-83004400D01*
X111715225Y-83004400D02*
X111786653Y-82932971D01*
X111786653Y-82932971D02*
X111786653Y-82432971D01*
X111786653Y-82432971D02*
X111500939Y-82432971D01*
X112286653Y-81575828D02*
X113215225Y-81575828D01*
X113215225Y-81575828D02*
X112715225Y-82147257D01*
X112715225Y-82147257D02*
X112929510Y-82147257D01*
X112929510Y-82147257D02*
X113072368Y-82218685D01*
X113072368Y-82218685D02*
X113143796Y-82290114D01*
X113143796Y-82290114D02*
X113215225Y-82432971D01*
X113215225Y-82432971D02*
X113215225Y-82790114D01*
X113215225Y-82790114D02*
X113143796Y-82932971D01*
X113143796Y-82932971D02*
X113072368Y-83004400D01*
X113072368Y-83004400D02*
X112929510Y-83075828D01*
X112929510Y-83075828D02*
X112500939Y-83075828D01*
X112500939Y-83075828D02*
X112358082Y-83004400D01*
X112358082Y-83004400D02*
X112286653Y-82932971D01*
X113858081Y-83075828D02*
X113858081Y-81575828D01*
X113858081Y-81575828D02*
X114358081Y-82647257D01*
X114358081Y-82647257D02*
X114858081Y-81575828D01*
X114858081Y-81575828D02*
X114858081Y-83075828D01*
X115858082Y-81575828D02*
X116143796Y-81575828D01*
X116143796Y-81575828D02*
X116286653Y-81647257D01*
X116286653Y-81647257D02*
X116429510Y-81790114D01*
X116429510Y-81790114D02*
X116500939Y-82075828D01*
X116500939Y-82075828D02*
X116500939Y-82575828D01*
X116500939Y-82575828D02*
X116429510Y-82861542D01*
X116429510Y-82861542D02*
X116286653Y-83004400D01*
X116286653Y-83004400D02*
X116143796Y-83075828D01*
X116143796Y-83075828D02*
X115858082Y-83075828D01*
X115858082Y-83075828D02*
X115715225Y-83004400D01*
X115715225Y-83004400D02*
X115572367Y-82861542D01*
X115572367Y-82861542D02*
X115500939Y-82575828D01*
X115500939Y-82575828D02*
X115500939Y-82075828D01*
X115500939Y-82075828D02*
X115572367Y-81790114D01*
X115572367Y-81790114D02*
X115715225Y-81647257D01*
X115715225Y-81647257D02*
X115858082Y-81575828D01*
X117143796Y-83075828D02*
X117143796Y-81575828D01*
X117143796Y-81575828D02*
X117500939Y-81575828D01*
X117500939Y-81575828D02*
X117715225Y-81647257D01*
X117715225Y-81647257D02*
X117858082Y-81790114D01*
X117858082Y-81790114D02*
X117929511Y-81932971D01*
X117929511Y-81932971D02*
X118000939Y-82218685D01*
X118000939Y-82218685D02*
X118000939Y-82432971D01*
X118000939Y-82432971D02*
X117929511Y-82718685D01*
X117929511Y-82718685D02*
X117858082Y-82861542D01*
X117858082Y-82861542D02*
X117715225Y-83004400D01*
X117715225Y-83004400D02*
X117500939Y-83075828D01*
X117500939Y-83075828D02*
X117143796Y-83075828D01*
X118500939Y-82075828D02*
X118858082Y-83075828D01*
X118858082Y-83075828D02*
X119215225Y-82075828D01*
X120572368Y-83075828D02*
X119715225Y-83075828D01*
X120143796Y-83075828D02*
X120143796Y-81575828D01*
X120143796Y-81575828D02*
X120000939Y-81790114D01*
X120000939Y-81790114D02*
X119858082Y-81932971D01*
X119858082Y-81932971D02*
X119715225Y-82004400D01*
D12*
%TO.C,SW1*%
X115735000Y-50425000D02*
X115735000Y-51735000D01*
X115735000Y-50425000D02*
X117118000Y-50425000D01*
X115975000Y-50665000D02*
X115975000Y-51735000D01*
X115975000Y-50665000D02*
X122796000Y-50665000D01*
X115975000Y-53815000D02*
X115975000Y-54885000D01*
X115975000Y-54885000D02*
X122796000Y-54885000D01*
X117575000Y-52140000D02*
X117575000Y-53410000D01*
X117575000Y-52260000D02*
X118781667Y-52260000D01*
X117575000Y-52380000D02*
X118781667Y-52380000D01*
X117575000Y-52500000D02*
X118781667Y-52500000D01*
X117575000Y-52620000D02*
X118781667Y-52620000D01*
X117575000Y-52740000D02*
X118781667Y-52740000D01*
X117575000Y-52860000D02*
X118781667Y-52860000D01*
X117575000Y-52980000D02*
X118781667Y-52980000D01*
X117575000Y-53100000D02*
X118781667Y-53100000D01*
X117575000Y-53220000D02*
X118781667Y-53220000D01*
X117575000Y-53340000D02*
X118781667Y-53340000D01*
X117575000Y-53410000D02*
X121195000Y-53410000D01*
X118781667Y-52140000D02*
X118781667Y-53410000D01*
X121195000Y-52140000D02*
X117575000Y-52140000D01*
X121195000Y-53410000D02*
X121195000Y-52140000D01*
X122796000Y-50665000D02*
X122796000Y-51785000D01*
X122796000Y-53765000D02*
X122796000Y-54885000D01*
%TO.C,R2*%
X115440109Y-56970000D02*
X115747391Y-56970000D01*
X115440109Y-57730000D02*
X115747391Y-57730000D01*
%TO.C,J2*%
X107955000Y-54155000D02*
X107955000Y-52825000D01*
X109285000Y-54155000D02*
X107955000Y-54155000D01*
X110555000Y-54155000D02*
X113155000Y-54155000D01*
X110555000Y-54155000D02*
X110555000Y-51495000D01*
X113155000Y-54155000D02*
X113155000Y-51495000D01*
X110555000Y-51495000D02*
X113155000Y-51495000D01*
%TO.C,U1*%
X109135000Y-55395000D02*
X109135000Y-85995000D01*
X109135000Y-85995000D02*
X122055000Y-85995000D01*
X114595000Y-55395000D02*
X109135000Y-55395000D01*
X122055000Y-55395000D02*
X116595000Y-55395000D01*
X122055000Y-85995000D02*
X122055000Y-55395000D01*
X114595000Y-55395000D02*
G75*
G03*
X116595000Y-55395000I1000000J0D01*
G01*
%TO.C,R1*%
X115366686Y-58165000D02*
X115820814Y-58165000D01*
X115366686Y-59635000D02*
X115820814Y-59635000D01*
%TD*%
M02*
