M48
; DRILL file {KiCad 7.0.6} date Mon Sep  4 21:12:19 2023
; FORMAT={-:-/ absolute / inch / decimal}
; #@! TF.CreationDate,2023-09-04T21:12:19+01:00
; #@! TF.GenerationSoftware,Kicad,Pcbnew,7.0.6
; #@! TF.FileFunction,Plated,1,2,PTH
FMAT,2
INCH
; #@! TA.AperFunction,Plated,PTH,ViaDrill
T1C0.0157
; #@! TA.AperFunction,Plated,PTH,ComponentDrill
T2C0.0315
; #@! TA.AperFunction,Plated,PTH,ComponentDrill
T3C0.0394
%
G90
G05
T1
X4.2884Y-2.2894
X4.3425Y-3.1634
X4.5138Y-2.3858
X4.5335Y-3.0797
X4.5364Y-3.1673
X4.5383Y-3.0325
X4.5669Y-2.9333
X4.5856Y-2.4016
X4.5994Y-3.014
X4.6484Y-2.3169
T2
X4.251Y-2.2333
X4.251Y-2.3333
X4.251Y-2.4333
X4.251Y-2.5333
X4.251Y-2.6333
X4.251Y-2.7333
X4.251Y-2.8333
X4.251Y-2.9333
X4.251Y-3.0333
X4.251Y-3.1333
X4.251Y-3.2333
X4.251Y-3.3333
X4.4013Y-2.2854
X4.4013Y-2.3854
X4.4013Y-2.4854
X4.4013Y-2.5854
X4.4013Y-2.6854
X4.4013Y-2.7854
X4.4013Y-2.8854
X4.4013Y-2.9854
X4.4013Y-3.0854
X4.5502Y-2.0778
X4.7013Y-2.2854
X4.7013Y-2.3854
X4.7013Y-2.4854
X4.7013Y-2.5854
X4.7013Y-2.6854
X4.7013Y-2.7854
X4.7013Y-2.8854
X4.7013Y-2.9854
X4.7013Y-3.0854
X4.8502Y-2.0778
X4.851Y-2.2333
X4.851Y-2.3333
X4.851Y-2.4333
X4.851Y-2.5333
X4.851Y-2.6333
X4.851Y-2.7333
X4.851Y-2.8333
X4.851Y-2.9333
X4.851Y-3.0333
X4.851Y-3.1333
X4.851Y-3.2333
X4.851Y-3.3333
T3
X4.3026Y-2.0797
X4.4026Y-2.0797
T0
M30
